<svg width="100" height="30" viewBox="0 0 100 30" fill="none" xmlns="http://www.w3.org/2000/svg">
<g clip-path="url(#clip0_4517_64178)">
<path d="M61.5731 23.4376C55.8111 27.6899 47.4594 29.9587 40.2688 29.9587C30.1863 29.9587 21.1095 26.225 14.2426 20.015C13.7031 19.5267 14.1865 18.8612 14.8339 19.2415C22.2447 23.5586 31.4078 26.1558 40.873 26.1558C47.2565 26.1558 54.2789 24.8334 60.7358 22.0893C61.7112 21.6745 62.527 22.7289 61.5731 23.4376Z" fill="#FF9900"/>
<path d="M63.9687 20.6921C63.2349 19.75 59.1001 20.247 57.2442 20.4674C56.6787 20.5365 56.5924 20.0439 57.1017 19.6895C60.3949 17.3689 65.7987 18.0387 66.4289 18.8166C67.059 19.5988 66.2648 25.0222 63.1702 27.6107C62.6954 28.0083 62.2422 27.7966 62.4537 27.2693C63.1486 25.5321 64.7067 21.6385 63.9687 20.6921Z" fill="#FF9900"/>
<path d="M57.3736 3.3067V1.0509C57.3736 0.709506 57.6326 0.480469 57.9433 0.480469H68.0301C68.3538 0.480469 68.6128 0.713828 68.6128 1.0509V2.98259C68.6085 3.3067 68.3365 3.7302 67.8531 4.40003L62.6263 11.8718C64.5686 11.8243 66.6187 12.1138 68.3797 13.1078C68.7768 13.3325 68.8847 13.6609 68.9149 13.985V16.3921C68.9149 16.7205 68.5523 17.1051 68.1725 16.9063C65.0692 15.2771 60.9473 15.1 57.516 16.9236C57.1664 17.1138 56.7996 16.7335 56.7996 16.405V14.119C56.7996 13.7517 56.8039 13.1251 57.1707 12.5676L63.2263 3.87281H57.9563C57.6326 3.87281 57.3736 3.64378 57.3736 3.3067Z" fill="#221F1F"/>
<path d="M20.5788 17.3822H17.5101C17.2166 17.3606 16.9835 17.1402 16.9619 16.8593V1.09027C16.9619 0.774806 17.2252 0.524159 17.5532 0.524159H20.4148C20.7126 0.537115 20.95 0.76616 20.9716 1.05138V3.11271H21.0277C21.7744 1.12052 23.1771 0.191406 25.0676 0.191406C26.9882 0.191406 28.1881 1.12052 29.0514 3.11271C29.7937 1.12052 31.4813 0.191406 33.2898 0.191406C34.576 0.191406 35.983 0.722945 36.8419 1.91567C37.8131 3.24236 37.6145 5.16973 37.6145 6.85942L37.6102 16.8117C37.6102 17.1272 37.3469 17.3822 37.0189 17.3822H33.9545C33.648 17.3606 33.402 17.1142 33.402 16.8117V8.45403C33.402 7.78853 33.4624 6.12909 33.3157 5.49816C33.0869 4.4394 32.4007 4.14122 31.5115 4.14122C30.7692 4.14122 29.9923 4.63819 29.6772 5.43334C29.3621 6.22848 29.3923 7.55949 29.3923 8.45403V16.8117C29.3923 17.1272 29.129 17.3822 28.801 17.3822H25.7366C25.4258 17.3606 25.1841 17.1142 25.1841 16.8117L25.1798 8.45403C25.1798 6.6952 25.469 4.10665 23.2893 4.10665C21.0838 4.10665 21.1701 6.63038 21.1701 8.45403V16.8117C21.1701 17.1272 20.9068 17.3822 20.5788 17.3822Z" fill="#221F1F"/>
<path d="M77.2969 0.191406C81.8504 0.191406 84.3149 4.10665 84.3149 9.08497C84.3149 13.8947 81.5914 17.7106 77.2969 17.7106C72.8254 17.7106 70.3911 13.7954 70.3911 8.91643C70.3911 4.00725 72.8556 0.191406 77.2969 0.191406ZM77.3228 3.41089C75.0612 3.41089 74.9187 6.49641 74.9187 8.41946C74.9187 10.3468 74.8885 14.4609 77.2969 14.4609C79.6751 14.4609 79.7873 11.142 79.7873 9.11954C79.7873 7.78853 79.7312 6.19823 79.3298 4.93637C78.9845 3.83872 78.2982 3.41089 77.3228 3.41089Z" fill="#221F1F"/>
<path d="M90.2193 17.3822H87.1635C86.857 17.3606 86.611 17.1142 86.611 16.8117L86.6067 1.03841C86.6326 0.748874 86.8872 0.524159 87.198 0.524159H90.0423C90.3099 0.537115 90.53 0.718625 90.5905 0.964948V3.37632H90.6466C91.5055 1.21991 92.7097 0.191406 94.8289 0.191406C96.2057 0.191406 97.548 0.688374 98.4113 2.04963C99.2141 3.3115 99.2141 5.43334 99.2141 6.95881V16.8852C99.1795 17.1618 98.9249 17.3822 98.6228 17.3822H95.5454C95.2648 17.3606 95.0317 17.1531 95.0015 16.8852V8.32007C95.0015 6.59581 95.2001 4.07207 93.0809 4.07207C92.3342 4.07207 91.6479 4.57337 91.3069 5.33394C90.8753 6.29763 90.8192 7.25699 90.8192 8.32007V16.8117C90.8149 17.1272 90.5473 17.3822 90.2193 17.3822Z" fill="#221F1F"/>
<path d="M49.3328 9.84877V9.18327C47.1143 9.18327 44.7707 9.65863 44.7707 12.2774C44.7707 13.6041 45.4569 14.503 46.6352 14.503C47.4984 14.503 48.271 13.9714 48.7587 13.1072C49.363 12.0441 49.3328 11.0458 49.3328 9.84877ZM52.4274 17.3379C52.2246 17.5194 51.9311 17.5323 51.7023 17.4113C50.6837 16.5643 50.5025 16.1711 49.9414 15.363C48.2581 17.0829 47.0668 17.5971 44.8829 17.5971C42.3018 17.5971 40.2905 16.0025 40.2905 12.809C40.2905 10.3155 41.6415 8.61716 43.5621 7.78744C45.2282 7.05279 47.5545 6.92315 49.3328 6.72004V6.32246C49.3328 5.59213 49.3889 4.72784 48.9616 4.09691C48.5861 3.5308 47.8696 3.29744 47.2395 3.29744C46.0698 3.29744 45.0253 3.89812 44.7707 5.1427C44.7189 5.41928 44.516 5.69153 44.2398 5.70449L41.2617 5.38471C41.0113 5.32853 40.7351 5.12542 40.8041 4.74081C41.4904 1.12807 44.7491 0.0390625 47.6668 0.0390625C49.1601 0.0390625 51.111 0.436637 52.2893 1.56886C53.7827 2.96469 53.6403 4.82724 53.6403 6.854V11.6422C53.6403 13.0812 54.2359 13.7122 54.797 14.49C54.9955 14.7666 55.0387 15.0993 54.7884 15.3068C54.1625 15.8297 53.049 16.802 52.4361 17.3465L52.4274 17.3379Z" fill="#221F1F"/>
<path d="M9.10208 9.84877V9.18327C6.88359 9.18327 4.53994 9.65863 4.53994 12.2774C4.53994 13.6041 5.2262 14.503 6.4045 14.503C7.26773 14.503 8.04031 13.9714 8.52803 13.1072C9.13229 12.0441 9.10208 11.0458 9.10208 9.84877ZM12.1967 17.3379C11.9939 17.5194 11.7004 17.5323 11.4716 17.4113C10.453 16.5643 10.2717 16.1711 9.71065 15.363C8.02736 17.0829 6.83612 17.5971 4.65216 17.5971C2.07112 17.5971 0.0598145 16.0025 0.0598145 12.809C0.0598145 10.3155 1.41076 8.61716 3.33143 7.78744C4.99745 7.05279 7.32384 6.92315 9.10208 6.72004V6.32246C9.10208 5.59213 9.15819 4.72784 8.73089 4.09691C8.35539 3.5308 7.63891 3.29744 7.00876 3.29744C5.83909 3.29744 4.79459 3.89812 4.53994 5.1427C4.48815 5.41928 4.28529 5.69153 4.00906 5.70449L1.03094 5.38471C0.780605 5.32853 0.504374 5.12542 0.573431 4.74081C1.25969 1.12807 4.51836 0.0390625 7.43606 0.0390625C8.92943 0.0390625 10.8803 0.436637 12.0586 1.56886C13.552 2.96469 13.4096 4.82724 13.4096 6.854V11.6422C13.4096 13.0812 14.0052 13.7122 14.5663 14.49C14.7648 14.7666 14.808 15.0993 14.5576 15.3068C13.9318 15.8297 12.8183 16.802 12.2054 17.3465L12.1967 17.3379Z" fill="#221F1F"/>
</g>
<defs>
<clipPath id="clip0_4517_64178">
<rect width="99.2727" height="30" fill="white"/>
</clipPath>
</defs>
</svg>
