<svg width="16" height="16" viewBox="0 0 16 16" fill="none" xmlns="http://www.w3.org/2000/svg">
<path d="M14.4706 3.52816L12.4713 1.52883C12.4095 1.4668 12.336 1.41761 12.2551 1.38409C12.1742 1.35056 12.0875 1.33337 11.9999 1.3335H3.99992C3.91236 1.33337 3.82564 1.35056 3.74474 1.38409C3.66385 1.41761 3.59039 1.4668 3.52859 1.52883L1.52925 3.52816C1.46697 3.58995 1.41757 3.66348 1.38392 3.74451C1.35027 3.82553 1.33305 3.91243 1.33325 4.00016V12.6668C1.33325 13.4022 1.93125 14.0002 2.66659 14.0002H13.3333C14.0686 14.0002 14.6666 13.4022 14.6666 12.6668V4.00016C14.6668 3.91243 14.6496 3.82553 14.6159 3.74451C14.5823 3.66348 14.5329 3.58995 14.4706 3.52816ZM4.27592 2.66683H11.7239L12.3906 3.3335H3.60925L4.27592 2.66683ZM2.66659 12.6668V4.66683H13.3333L13.3346 12.6668H2.66659Z" fill="white"/>
<path d="M9.33341 6H6.66675V8H4.66675L8.00008 11.3333L11.3334 8H9.33341V6Z" fill="white"/>
</svg>
