<svg width="29" height="26" viewBox="0 0 29 26" fill="none" xmlns="http://www.w3.org/2000/svg">
<path d="M23.6403 8.05026C23.5407 7.90625 23.4076 7.78855 23.2525 7.70723C23.0974 7.62591 22.925 7.5834 22.7498 7.58334H7.94392L6.69375 4.5825C6.52983 4.18733 6.25226 3.84973 5.89623 3.6125C5.5402 3.37527 5.12174 3.24911 4.69392 3.25H2.1665V5.41667H4.69392L9.83325 17.7504C9.91557 17.9478 10.0544 18.1163 10.2324 18.2349C10.4103 18.3534 10.6194 18.4167 10.8332 18.4167H19.4998C19.9516 18.4167 20.3557 18.1361 20.5149 17.7147L23.7649 9.04801C23.8263 8.88401 23.8471 8.70757 23.8254 8.5338C23.8037 8.36003 23.7402 8.19411 23.6403 8.05026ZM18.7491 16.25H11.5558L8.84742 9.75H21.1866L18.7491 16.25Z" fill="#556CB1"/>
<path d="M11.375 22.75C12.2725 22.75 13 22.0225 13 21.125C13 20.2275 12.2725 19.5 11.375 19.5C10.4775 19.5 9.75 20.2275 9.75 21.125C9.75 22.0225 10.4775 22.75 11.375 22.75Z" fill="#556CB1"/>
<path d="M18.9585 22.75C19.856 22.75 20.5835 22.0225 20.5835 21.125C20.5835 20.2275 19.856 19.5 18.9585 19.5C18.061 19.5 17.3335 20.2275 17.3335 21.125C17.3335 22.0225 18.061 22.75 18.9585 22.75Z" fill="#556CB1"/>
<circle cx="22" cy="8" r="6" fill="#EF6355" stroke="white" stroke-width="2"/>
</svg>
