<svg width="28" height="28" viewBox="0 0 28 28" fill="none" xmlns="http://www.w3.org/2000/svg">
<path d="M13.9997 2.33203C7.56667 2.33203 2.33301 7.5657 2.33301 13.9987C2.33301 20.4317 7.56667 25.6654 13.9997 25.6654C20.4327 25.6654 25.6663 20.4317 25.6663 13.9987C25.6663 7.5657 20.4327 2.33203 13.9997 2.33203ZM13.9997 23.332C8.85351 23.332 4.66634 19.1449 4.66634 13.9987C4.66634 8.85253 8.85351 4.66536 13.9997 4.66536C19.1458 4.66536 23.333 8.85253 23.333 13.9987C23.333 19.1449 19.1458 23.332 13.9997 23.332Z" fill="white"/>
<path d="M11.6654 15.8521L8.98327 13.1746L7.33594 14.8266L11.6678 19.1491L19.4914 11.3254L17.8418 9.67578L11.6654 15.8521Z" fill="white"/>
</svg>
