<svg width="22" height="22" viewBox="0 0 22 22" fill="none" xmlns="http://www.w3.org/2000/svg">
<path d="M10.0844 9.16797H11.9177V13.7513H10.0844V9.16797ZM10.0835 14.668H11.9168V16.5013H10.0835V14.668Z" fill="#F9A000"/>
<path d="M12.6205 3.8485C12.3015 3.24808 11.68 2.875 10.9999 2.875C10.3197 2.875 9.6982 3.24808 9.37921 3.84942L2.65271 16.5572C2.50344 16.8362 2.4295 17.1494 2.43819 17.4657C2.44687 17.7821 2.53786 18.0907 2.70221 18.3612C2.86418 18.6328 3.09421 18.8576 3.36958 19.0132C3.64496 19.1688 3.95616 19.2499 4.27245 19.2485H17.7273C18.3763 19.2485 18.9639 18.9167 19.2985 18.3612C19.4625 18.0906 19.5534 17.782 19.5621 17.4657C19.5707 17.1494 19.497 16.8363 19.348 16.5572L12.6205 3.8485ZM4.27245 17.4152L10.9999 4.70742L17.7319 17.4152H4.27245Z" fill="#F9A000"/>
</svg>
