<svg width="26" height="26" viewBox="0 0 26 26" fill="none" xmlns="http://www.w3.org/2000/svg">
<path d="M13.0003 2.16797C7.02683 2.16797 2.16699 7.0278 2.16699 13.0013C2.16699 18.9748 7.02683 23.8346 13.0003 23.8346C18.9738 23.8346 23.8337 18.9748 23.8337 13.0013C23.8337 7.0278 18.9738 2.16797 13.0003 2.16797ZM13.0003 21.668C8.22174 21.668 4.33366 17.7799 4.33366 13.0013C4.33366 8.22272 8.22174 4.33464 13.0003 4.33464C17.7789 4.33464 21.667 8.22272 21.667 13.0013C21.667 17.7799 17.7789 21.668 13.0003 21.668Z" fill="#00BC82"/>
<path d="M11.917 11.9154H14.0837V18.4154H11.917V11.9154ZM11.917 7.58203H14.0837V9.7487H11.917V7.58203Z" fill="#00BC82"/>
</svg>
