<svg width="16" height="16" viewBox="0 0 16 16" fill="none" xmlns="http://www.w3.org/2000/svg">
<path d="M7.99967 1.33398C4.32367 1.33398 1.33301 4.32465 1.33301 8.00065C1.33301 11.6767 4.32367 14.6673 7.99967 14.6673C11.6757 14.6673 14.6663 11.6767 14.6663 8.00065C14.6663 4.32465 11.6757 1.33398 7.99967 1.33398ZM7.99967 13.334C5.05901 13.334 2.66634 10.9413 2.66634 8.00065C2.66634 5.05998 5.05901 2.66732 7.99967 2.66732C10.9403 2.66732 13.333 5.05998 13.333 8.00065C13.333 10.9413 10.9403 13.334 7.99967 13.334Z" fill="white"/>
<path d="M8.66667 6H10V10H8.66667V6ZM6 6H7.33333V10H6V6Z" fill="white"/>
</svg>
