<svg width="22" height="22" viewBox="0 0 22 22" fill="none" xmlns="http://www.w3.org/2000/svg">
<path d="M11.0002 1.83203C5.94566 1.83203 1.8335 5.9442 1.8335 10.9987V14.7964C1.8335 15.7351 2.65575 16.4987 3.66683 16.4987H4.5835C4.82661 16.4987 5.05977 16.4021 5.23168 16.2302C5.40359 16.0583 5.50016 15.8251 5.50016 15.582V10.8676C5.50016 10.6245 5.40359 10.3913 5.23168 10.2194C5.05977 10.0475 4.82661 9.95095 4.5835 9.95095H3.75116C4.26083 6.40345 7.31333 3.66536 11.0002 3.66536C14.687 3.66536 17.7395 6.40345 18.2492 9.95095H17.4168C17.1737 9.95095 16.9406 10.0475 16.7686 10.2194C16.5967 10.3913 16.5002 10.6245 16.5002 10.8676V16.4987C16.5002 17.5098 15.6779 18.332 14.6668 18.332H12.8335V17.4154H9.16683V20.1654H14.6668C16.689 20.1654 18.3335 18.5209 18.3335 16.4987C19.3446 16.4987 20.1668 15.7351 20.1668 14.7964V10.9987C20.1668 5.9442 16.0547 1.83203 11.0002 1.83203Z" fill="#F9A000"/>
</svg>
