<svg width="16" height="16" viewBox="0 0 16 16" fill="none" xmlns="http://www.w3.org/2000/svg">
<path d="M3.88702 9.7414L2.76952 14.5804C2.73492 14.7269 2.7453 14.8805 2.79933 15.021C2.85335 15.1615 2.9485 15.2825 3.07235 15.3681C3.19619 15.4537 3.34298 15.5 3.49353 15.5009C3.64409 15.5018 3.79142 15.4573 3.91627 15.3731L8.00002 12.6506L12.0838 15.3731C12.2115 15.458 12.3622 15.5016 12.5155 15.4983C12.6688 15.4949 12.8174 15.4447 12.9413 15.3543C13.0652 15.264 13.1585 15.1379 13.2086 14.993C13.2587 14.848 13.2632 14.6912 13.2215 14.5436L11.8498 9.74365L15.2518 6.68215C15.3607 6.58404 15.4385 6.45614 15.4756 6.31428C15.5126 6.17242 15.5073 6.02281 15.4602 5.88395C15.4131 5.7451 15.3264 5.62309 15.2107 5.53302C15.095 5.44294 14.9554 5.38875 14.8093 5.37715L10.5335 5.03665L8.68327 0.940897C8.62427 0.809014 8.52837 0.697024 8.40713 0.618442C8.28589 0.539861 8.1445 0.498047 8.00002 0.498047C7.85554 0.498047 7.71415 0.539861 7.59291 0.618442C7.47167 0.697024 7.37577 0.809014 7.31677 0.940897L5.46652 5.03665L1.19077 5.3764C1.04711 5.38778 0.909773 5.44031 0.795186 5.5277C0.680599 5.61509 0.593614 5.73364 0.54464 5.86917C0.495665 6.0047 0.486773 6.15147 0.519028 6.29192C0.551284 6.43238 0.62332 6.56056 0.72652 6.66115L3.88702 9.7414ZM6.02677 6.4969C6.16064 6.48635 6.28921 6.43998 6.399 6.36266C6.50879 6.28533 6.59575 6.17989 6.65077 6.0574L8.00002 3.07165L9.34927 6.0574C9.40429 6.17989 9.49126 6.28533 9.60104 6.36266C9.71083 6.43998 9.8394 6.48635 9.97327 6.4969L12.9523 6.73315L10.499 8.94115C10.286 9.13315 10.2013 9.42865 10.2793 9.70465L11.219 12.9934L8.41702 11.1251C8.29403 11.0426 8.14927 10.9985 8.00115 10.9985C7.85303 10.9985 7.70826 11.0426 7.58527 11.1251L4.65727 13.0774L5.44477 9.6679C5.47364 9.5425 5.46977 9.41178 5.43352 9.28831C5.39726 9.16484 5.32985 9.05278 5.23777 8.9629L2.95927 6.7414L6.02677 6.4969Z" fill="#3B892A"/>
</svg>
