<svg width="32" height="32" viewBox="0 0 32 32" fill="none" xmlns="http://www.w3.org/2000/svg">
<circle cx="16" cy="16" r="16" fill="#3B892A"/>
<path fill-rule="evenodd" clip-rule="evenodd" d="M9 11C9 10.4477 9.44772 10 10 10H22C22.5523 10 23 10.4477 23 11C23 11.5523 22.5523 12 22 12H10C9.44772 12 9 11.5523 9 11ZM9 16C9 15.4477 9.44772 15 10 15H22C22.5523 15 23 15.4477 23 16C23 16.5523 22.5523 17 22 17H10C9.44772 17 9 16.5523 9 16ZM10 20C9.44772 20 9 20.4477 9 21C9 21.5523 9.44772 22 10 22H22C22.5523 22 23 21.5523 23 21C23 20.4477 22.5523 20 22 20H10Z" fill="white"/>
</svg>
