<svg width="32" height="32" viewBox="0 0 32 32" fill="none" xmlns="http://www.w3.org/2000/svg">
<circle cx="16" cy="16" r="16" fill="#6CB155"/>
<path fill-rule="evenodd" clip-rule="evenodd" d="M21.6564 11.7569C22.0469 11.3664 22.0469 10.7332 21.6564 10.3427C21.2659 9.95217 20.6327 9.95217 20.2422 10.3427L15.9996 14.5853L11.757 10.3427C11.3665 9.95218 10.7333 9.95219 10.3428 10.3427C9.95227 10.7332 9.95227 11.3664 10.3428 11.7569L14.5854 15.9995L10.3427 20.2422C9.95217 20.6327 9.95217 21.2659 10.3427 21.6564C10.7332 22.0469 11.3664 22.0469 11.7569 21.6564L15.9996 17.4137L20.2423 21.6564C20.6328 22.0469 21.266 22.0469 21.6565 21.6564C22.047 21.2659 22.047 20.6327 21.6565 20.2422L17.4138 15.9995L21.6564 11.7569Z" fill="white"/>
</svg>
