<svg width="22" height="22" viewBox="0 0 22 22" fill="none" xmlns="http://www.w3.org/2000/svg">
<path d="M6.41699 10.083H8.25033V11.9163H6.41699V10.083ZM6.41699 13.7497H8.25033V15.583H6.41699V13.7497ZM10.0837 10.083H11.917V11.9163H10.0837V10.083ZM10.0837 13.7497H11.917V15.583H10.0837V13.7497ZM13.7503 10.083H15.5837V11.9163H13.7503V10.083ZM13.7503 13.7497H15.5837V15.583H13.7503V13.7497Z" fill="#8181A5"/>
<path d="M4.58333 20.1663H17.4167C18.4278 20.1663 19.25 19.3441 19.25 18.333V5.49967C19.25 4.48859 18.4278 3.66634 17.4167 3.66634H15.5833V1.83301H13.75V3.66634H8.25V1.83301H6.41667V3.66634H4.58333C3.57225 3.66634 2.75 4.48859 2.75 5.49967V18.333C2.75 19.3441 3.57225 20.1663 4.58333 20.1663ZM17.4167 7.33301L17.4176 18.333H4.58333V7.33301H17.4167Z" fill="#8181A5"/>
</svg>
