<svg width="38" height="26" viewBox="0 0 38 26" fill="none" xmlns="http://www.w3.org/2000/svg">
<rect x="0.5" y="0.5" width="37" height="25" rx="4.5" fill="white" stroke="#DBE3EB"/>
<path d="M26.4993 6.3335H11.4993C11.2783 6.3335 11.0664 6.42129 10.9101 6.57757C10.7538 6.73385 10.666 6.94582 10.666 7.16683V18.8335C10.666 19.0545 10.7538 19.2665 10.9101 19.4228C11.0664 19.579 11.2783 19.6668 11.4993 19.6668H26.4993C26.7204 19.6668 26.9323 19.579 27.0886 19.4228C27.2449 19.2665 27.3327 19.0545 27.3327 18.8335V7.16683C27.3327 6.94582 27.2449 6.73385 27.0886 6.57757C26.9323 6.42129 26.7204 6.3335 26.4993 6.3335ZM25.666 15.5002C25.003 15.5002 24.3671 15.7636 23.8982 16.2324C23.4294 16.7012 23.166 17.3371 23.166 18.0002H14.8327C14.8327 17.3371 14.5693 16.7012 14.1004 16.2324C13.6316 15.7636 12.9957 15.5002 12.3327 15.5002V10.5002C12.9957 10.5002 13.6316 10.2368 14.1004 9.76793C14.5693 9.29909 14.8327 8.6632 14.8327 8.00016H23.166C23.166 8.6632 23.4294 9.29909 23.8982 9.76793C24.3671 10.2368 25.003 10.5002 25.666 10.5002V15.5002Z" fill="#00BC82"/>
<path d="M18.9993 9.6665C17.161 9.6665 15.666 11.1615 15.666 12.9998C15.666 14.8382 17.161 16.3332 18.9993 16.3332C20.8377 16.3332 22.3327 14.8382 22.3327 12.9998C22.3327 11.1615 20.8377 9.6665 18.9993 9.6665ZM18.9993 14.6665C18.0802 14.6665 17.3327 13.919 17.3327 12.9998C17.3327 12.0807 18.0802 11.3332 18.9993 11.3332C19.9185 11.3332 20.666 12.0807 20.666 12.9998C20.666 13.919 19.9185 14.6665 18.9993 14.6665Z" fill="#00BC82"/>
</svg>
