<svg width="16" height="16" viewBox="0 0 16 16" fill="none" xmlns="http://www.w3.org/2000/svg">
<path fill-rule="evenodd" clip-rule="evenodd" d="M7.99935 2.00002C4.68564 2.00002 1.99935 4.68631 1.99935 8.00002C1.99935 11.3137 4.68564 14 7.99935 14C11.3131 14 13.9993 11.3137 13.9993 8.00002C13.9993 4.68631 11.3131 2.00002 7.99935 2.00002ZM0.666016 8.00002C0.666016 3.94993 3.94926 0.666687 7.99935 0.666687C12.0494 0.666687 15.3327 3.94993 15.3327 8.00002C15.3327 12.0501 12.0494 15.3334 7.99935 15.3334C3.94926 15.3334 0.666016 12.0501 0.666016 8.00002Z" fill="#8181A5"/>
<path fill-rule="evenodd" clip-rule="evenodd" d="M8.00065 3.33331C8.36884 3.33331 8.66732 3.63179 8.66732 3.99998V7.58796L10.9655 8.73703C11.2948 8.90169 11.4283 9.30214 11.2636 9.63146C11.0989 9.96077 10.6985 10.0943 10.3692 9.9296L7.70251 8.59626C7.47665 8.48334 7.33398 8.25249 7.33398 7.99998V3.99998C7.33398 3.63179 7.63246 3.33331 8.00065 3.33331Z" fill="#8181A5"/>
</svg>
