<svg width="30" height="30" viewBox="0 0 30 30" fill="none" xmlns="http://www.w3.org/2000/svg">
<path d="M16.25 23.75V18.75H20L15 12.5L10 18.75H13.75V23.75H16.25Z" fill="#8181A5"/>
<path d="M8.75 23.75H11.25V21.25H8.75C6.6825 21.25 5 19.5675 5 17.5C5 15.745 6.49875 14.055 8.34125 13.7312L9.0675 13.6038L9.3075 12.9062C10.1863 10.3425 12.3687 8.75 15 8.75C18.4462 8.75 21.25 11.5538 21.25 15V16.25H22.5C23.8787 16.25 25 17.3713 25 18.75C25 20.1287 23.8787 21.25 22.5 21.25H18.75V23.75H22.5C25.2575 23.75 27.5 21.5075 27.5 18.75C27.4981 17.6295 27.1208 16.542 26.4284 15.661C25.7359 14.7801 24.7683 14.1566 23.68 13.89C23.1338 9.5875 19.45 6.25 15 6.25C11.555 6.25 8.5625 8.26375 7.19625 11.4375C4.51125 12.24 2.5 14.775 2.5 17.5C2.5 20.9462 5.30375 23.75 8.75 23.75Z" fill="#8181A5"/>
</svg>
