<svg width="16" height="16" viewBox="0 0 16 16" fill="none" xmlns="http://www.w3.org/2000/svg">
<path d="M12.6319 7.40816C12.3406 5.1135 10.3753 3.3335 8.0026 3.3335C6.16527 3.3335 4.56927 4.4075 3.8406 6.10016C2.4086 6.52816 1.33594 7.88016 1.33594 9.3335C1.33594 11.1715 2.83127 12.6668 4.66927 12.6668H5.33594V11.3335H4.66927C3.5666 11.3335 2.66927 10.4362 2.66927 9.3335C2.66927 8.3975 3.4686 7.4955 4.45127 7.32283L4.8386 7.25483L4.9666 6.88283C5.43527 5.5155 6.5986 4.66683 8.0026 4.66683C9.8406 4.66683 11.3359 6.16216 11.3359 8.00016V8.66683H12.0026C12.7379 8.66683 13.3359 9.26483 13.3359 10.0002C13.3359 10.7355 12.7379 11.3335 12.0026 11.3335H10.6693V12.6668H12.0026C13.4733 12.6668 14.6693 11.4708 14.6693 10.0002C14.6685 9.40251 14.4673 8.82237 14.098 8.35249C13.7287 7.88261 13.2125 7.55012 12.6319 7.40816Z" fill="#8181A5"/>
<path d="M8.66927 9.33317V6.6665H7.33594V9.33317H5.33594L8.0026 12.6665L10.6693 9.33317H8.66927Z" fill="#8181A5"/>
</svg>
