<svg width="31" height="31" viewBox="0 0 31 31" fill="none" xmlns="http://www.w3.org/2000/svg">
<path d="M16.75 24.25V19.25H20.5L15.5 13L10.5 19.25H14.25V24.25H16.75Z" fill="#8181A5"/>
<path d="M9.25 24.25H11.75V21.75H9.25C7.1825 21.75 5.5 20.0675 5.5 18C5.5 16.245 6.99875 14.555 8.84125 14.2312L9.5675 14.1038L9.8075 13.4062C10.6863 10.8425 12.8687 9.25 15.5 9.25C18.9462 9.25 21.75 12.0538 21.75 15.5V16.75H23C24.3787 16.75 25.5 17.8713 25.5 19.25C25.5 20.6287 24.3787 21.75 23 21.75H19.25V24.25H23C25.7575 24.25 28 22.0075 28 19.25C27.9981 18.1295 27.6208 17.042 26.9284 16.161C26.2359 15.2801 25.2683 14.6566 24.18 14.39C23.6338 10.0875 19.95 6.75 15.5 6.75C12.055 6.75 9.0625 8.76375 7.69625 11.9375C5.01125 12.74 3 15.275 3 18C3 21.4462 5.80375 24.25 9.25 24.25Z" fill="#8181A5"/>
</svg>
