<svg width="72" height="74" viewBox="0 0 72 74" fill="none" xmlns="http://www.w3.org/2000/svg">
<g clip-path="url(#clip0_10300_6855)">
<path d="M64.776 66.1507C63.7909 70.2252 52.3581 73.7305 39.2536 74.0001C26.1491 74.2697 16.3581 71.1839 17.3432 67.1394C18.3282 63.0649 29.7611 59.5596 42.8656 59.29C55.9402 59.0204 65.7611 62.0762 64.776 66.1507Z" fill="#E0BFAD"/>
<path d="M71.6716 39.2154C72.6567 32.115 71.4925 24.715 67.9104 18.4535C66.7462 16.4162 65.3731 14.5288 63.7611 12.851C61.9402 10.9336 59.8805 9.25589 57.9104 7.48828C63.3432 12.3118 66.7462 19.1126 67.7014 26.3029C68.6865 33.5231 67.2537 41.1328 63.9104 47.6041C60.597 54.0454 55.7014 59.528 49.582 63.3927C43.5223 67.2276 36.4477 69.3547 29.2537 69.1749C22.7164 68.9652 16.2984 66.7782 11.1641 62.6737C10.7761 62.3741 10.4178 62.0446 10.0298 61.715C12.6268 64.0219 15.1343 66.4786 18.0895 68.3061C20.8059 69.9838 23.8208 71.1822 26.9253 71.9312C33.8208 73.549 41.1343 72.7401 47.6417 70.0438C54.1492 67.3474 59.8805 62.8535 64.1193 57.2211C68.1193 51.9182 70.7761 45.7166 71.6716 39.2154Z" fill="url(#paint0_linear_10300_6855)"/>
<path opacity="0.5" d="M47.7314 70.0141C50 69.0853 52.1791 67.9169 54.2388 66.5388L51.7612 63.9023C51.4627 64.1121 51.1642 64.2918 50.8657 64.5015C44.6866 68.4262 37.4627 70.5833 30.1194 70.3736C24.9254 70.2238 19.7911 68.8157 15.3135 66.2092C16.2388 66.9283 17.1941 67.6473 18.209 68.2465C20.9254 69.9242 23.9403 71.1226 27.0448 71.8716C33.8806 73.4894 41.1941 72.7104 47.7314 70.0141Z" fill="url(#paint1_linear_10300_6855)" fill-opacity="0.5"/>
<path d="M41.1344 0.17881C59.4927 2.12618 71.1941 19.0833 67.2837 38.1076C63.3434 57.1019 45.2837 70.9432 26.8956 68.9958C8.53743 67.0484 -3.16406 50.0914 0.746388 31.0671C4.68669 12.0727 22.7762 -1.76856 41.1344 0.17881Z" fill="url(#paint2_linear_10300_6855)"/>
<path opacity="0.2" d="M41.0148 0.986319C23.2834 -0.90113 5.82074 12.4608 2.0297 30.796C1.73119 32.2041 1.52224 33.6122 1.40283 34.9904C8.83567 40.3831 17.8207 43.9183 27.9103 44.9669C41.373 46.375 54.7461 43.1693 66.4178 36.5483C69.6118 18.6325 58.4178 2.81385 41.0148 0.986319Z" fill="url(#paint3_linear_10300_6855)"/>
<path opacity="0.5" d="M29.7015 67.3776C13.3135 65.6399 1.37316 51.3193 5.07465 33.5233C8.7463 15.7573 25.6717 2.81483 42.8358 4.6124C57.2538 6.14034 65.7015 18.3339 66.3284 31.8156C67.0448 15.8173 56.2985 2.3954 40.3284 0.687706C22.5373 -1.16978 5.01495 12.2221 1.22391 30.6173C-2.59699 49.0124 8.7463 65.4602 26.5373 67.3476C28.1493 67.5274 29.7612 67.5573 31.3732 67.4974C30.806 67.4675 30.2388 67.4075 29.7015 67.3776Z" fill="#94512A"/>
<path d="M38.4777 3.86443C39.5225 3.86443 40.5673 3.92435 41.5822 4.01423C49.2539 4.82313 55.8807 8.59803 60.2688 14.6199C62.5374 17.7656 64.1195 21.3308 64.9255 25.2555C65.7613 29.36 65.7315 33.6142 64.836 37.9584C63.224 45.7778 58.8658 52.998 52.5673 58.2709C46.3285 63.4839 38.7464 66.36 31.1942 66.36C30.1494 66.36 29.1046 66.3 28.0897 66.2102C20.418 65.4013 13.7912 61.6264 9.40312 55.6045C7.13446 52.4588 5.55237 48.8936 4.7464 44.9689C3.91058 40.8644 3.94043 36.6102 4.83595 32.266C6.44789 24.4466 10.8061 17.2264 17.1046 11.9535C23.3434 6.74054 30.9255 3.86443 38.4777 3.86443ZM38.4777 0.898438C21.5225 0.928397 5.58222 14.0507 1.94043 31.6669C-1.94017 50.4515 9.64192 65.7608 27.7912 67.6782C28.9255 67.798 30.0598 67.8579 31.1942 67.8579C48.1494 67.8579 62.7166 55.245 66.3583 37.6288C70.2389 18.8442 60.03 3.02556 41.8807 1.10815C40.7464 0.958357 39.6121 0.898438 38.4777 0.898438Z" fill="#E99855"/>
<path d="M37.7015 2.99595C38.7463 2.99595 39.7911 3.05587 40.8358 3.14575C48.597 3.95466 55.2836 7.75951 59.7314 13.8713C62.0299 17.047 63.612 20.6721 64.4478 24.6267C65.3135 28.7611 65.2836 33.0753 64.3582 37.4794C62.7164 45.3887 58.3284 52.6688 51.9403 58.0016C45.6418 63.2745 37.9702 66.1806 30.3582 66.1806C29.3135 66.1806 28.2687 66.1207 27.2239 66.0308C19.4926 65.2219 12.7761 61.417 8.32838 55.3053C6.02988 52.1296 4.44779 48.5045 3.61197 44.5498C2.74629 40.4154 2.77614 36.1012 3.70152 31.6972C5.31346 23.7879 9.73137 16.4777 16.0896 11.1749C22.3881 5.90202 30.0597 2.99595 37.7015 2.99595ZM37.7015 0C20.5672 0 4.44779 13.2721 0.746294 31.068C-3.194 50.0624 8.50749 67.0494 26.8955 68.9968C28.0597 69.1166 29.1941 69.1765 30.3582 69.1765C47.4926 69.1765 63.612 55.9045 67.2836 38.1085C71.2239 19.1142 59.5224 2.12713 41.1344 0.179757C40 0.059919 38.8358 0 37.7015 0Z" fill="url(#paint4_linear_10300_6855)"/>
<path opacity="0.7" d="M41.1341 0.179757C39.9998 0.059919 38.8356 0 37.7013 0C20.567 0 4.44756 13.2721 0.746072 31.068C0.417714 32.6858 0.208758 34.2737 0.0893555 35.8316C1.04458 36.4907 1.9998 37.1198 2.98488 37.749C3.01473 35.7417 3.25353 33.7344 3.67145 31.6972C5.31324 23.7879 9.73115 16.4777 16.0894 11.1749C22.3879 5.90202 30.0595 2.99595 37.7013 2.99595C38.7461 2.99595 39.7909 3.05587 40.8356 3.14575C48.5968 3.95466 55.2834 7.75951 59.7312 13.8713C62.0297 17.047 63.6117 20.6721 64.4476 24.6267C65.3132 28.7611 65.2834 33.0753 64.358 37.4793C64.2685 37.8389 64.2088 38.1984 64.1192 38.5579C65.2834 37.9587 66.4177 37.3296 67.552 36.7004C70.6267 18.2753 59.0446 2.06721 41.1341 0.179757Z" fill="url(#paint5_linear_10300_6855)"/>
<g opacity="0.5">
<path d="M41.254 18.0641C45.4331 18.5135 48.1196 20.7904 49.3137 24.8949C49.4032 25.2244 49.2241 25.6139 48.8958 25.7337L44.8659 27.1418C44.7764 27.1718 44.657 27.1718 44.5674 27.1718C44.3883 27.1418 44.2391 27.052 44.2092 26.8422C43.8808 24.4455 42.6271 23.1273 40.4779 22.9176C39.1644 22.7678 38.0301 23.1572 37.0749 23.9661C36.1196 24.805 35.4331 26.1532 35.0749 27.9508C34.8361 29.0892 34.7465 30.5872 34.8062 32.2649C34.8062 32.6844 35.0152 33.1937 35.4032 33.2236L40.2689 33.7329C40.3585 33.7329 40.4182 33.7329 40.5077 33.7629C40.7465 33.7929 40.9555 33.8528 40.8958 34.0925L40.2092 37.418C40.1495 37.7775 39.642 38.4366 39.3137 38.4066L34.448 37.8973C34.3585 37.8973 34.2391 37.8674 34.1495 37.8674C33.9704 37.8374 33.851 37.8673 33.7913 38.0771C33.254 40.5937 32.6868 42.1516 32.0002 43.32C31.3435 44.4285 30.2391 45.4771 28.657 46.6754C28.4779 46.8252 28.5973 46.8552 28.8062 46.8852L34.5674 47.4844C37.8808 47.8439 40.0898 47.8738 41.3137 47.1248C42.3883 46.4657 43.1346 45.7167 43.642 44.3985C43.7316 44.1888 43.9405 44.069 44.1197 44.0989C44.1794 44.0989 44.2391 44.1289 44.2988 44.1588L48.0599 46.8252C48.3286 47.005 48.4182 47.3046 48.2391 47.6042C47.254 49.222 46.1793 50.4803 44.9853 51.469C43.6719 52.5775 42.3585 53.1767 40.9555 53.5661C39.5525 53.9556 37.7913 53.7759 35.5226 53.5362L17.5226 51.6487C17.3435 51.6188 17.0749 51.6487 16.8361 51.6188C16.6271 51.5888 16.4779 51.5289 16.5077 51.3791L17.4629 46.7653C17.5226 46.4358 18.0599 46.1961 18.3883 46.2261C20.1495 46.3459 21.7316 46.3159 22.7167 46.0763C23.7913 45.8066 24.7764 45.1775 25.7614 44.0989C26.7167 43.0204 27.3435 41.8819 27.6122 40.5637C27.7316 39.9645 27.851 39.0657 28.0002 37.6277C28.0301 37.2682 27.7614 37.1783 27.4331 37.1483L24.7465 36.8787C24.4182 36.8487 24.3585 36.0997 24.4182 35.7402L25.1047 32.4147C25.1644 32.1451 25.2838 32.1451 25.4928 32.1451C25.5525 32.1451 25.642 32.175 25.7017 32.175L27.851 32.4147C28.1794 32.4447 28.5077 31.9354 28.5376 31.6058C28.657 29.988 28.8361 28.5799 29.0152 27.741C29.6719 24.6252 31.1346 22.1386 33.4032 20.341C35.642 18.5135 38.2988 17.7645 41.254 18.0641Z" fill="#94512A"/>
</g>
<path d="M24.1196 35.7401L26.7763 36.0098C26.9554 36.0397 27.1345 36.0697 27.2539 36.1596L25.3733 34.4818C25.2838 34.392 25.1047 34.362 24.8957 34.332L22.9554 34.392C22.8957 34.392 22.836 34.6915 22.8062 34.6616L24.0002 35.7102C24.03 35.7102 24.0599 35.7401 24.1196 35.7401Z" fill="url(#paint6_linear_10300_6855)"/>
<path d="M32.3282 26.512C32.2685 27.0813 32.2386 27.6805 32.2386 28.2497C32.2386 28.8189 32.1491 29.508 32.3879 30.0473C32.4177 30.1371 32.4476 30.3469 32.5371 30.4068L34.4774 31.9946C33.9998 31.5452 34.1491 30.6165 34.1491 30.0473C34.1491 29.2983 34.2088 28.5493 34.2983 27.8303C34.4774 26.3922 34.8953 24.8343 35.7909 23.6659C36.5371 22.6772 37.6416 22.0181 38.8655 21.8983C39.9998 21.7784 41.2834 22.078 42.1491 22.857C41.6416 22.4076 41.1043 21.9282 40.5968 21.4788C40.1491 21.0594 39.7013 20.7299 39.1043 20.4902C37.9103 20.0408 36.5371 20.1007 35.4028 20.6999C33.2834 21.7784 32.567 24.295 32.3282 26.512C32.358 26.3922 32.3282 26.572 32.3282 26.512Z" fill="url(#paint7_linear_10300_6855)"/>
<path d="M30.9849 36.3418C30.6864 37.6001 30.2984 38.8584 29.7014 39.9969C29.2536 40.7758 28.7163 41.4948 28.0894 42.124C27.7312 42.4535 27.373 42.7831 26.9849 43.1126C26.6864 43.3523 26.3581 43.562 26.0894 43.8317L26.0596 43.8616V43.8916C26.0596 43.8916 26.0596 43.8916 26.0596 43.9216C26.3879 44.2211 26.7163 44.5207 27.0446 44.7904C27.2237 44.9402 27.373 45.09 27.5521 45.2398C27.6417 45.2997 27.7312 45.3896 27.7909 45.4495C27.8208 45.4794 27.97 45.6592 27.9402 45.5693V45.5394C27.9402 45.5094 27.97 45.5094 27.97 45.5094C28.2387 45.2098 28.6267 45.0001 28.9551 44.7305C29.3432 44.4309 29.7014 44.1013 30.0297 43.7418C30.6566 43.1126 31.1939 42.4535 31.582 41.6746C31.9999 40.9556 32.2685 40.1167 32.5073 39.3377C32.6267 38.9183 32.7461 38.4689 32.8655 38.0195C32.9252 37.8098 32.9551 37.6001 33.0148 37.3904C33.0446 37.2106 33.0745 36.9709 33.164 36.8211C33.2536 36.6414 33.6118 36.7612 33.7611 36.7612L38.5969 37.2705C38.7461 37.3005 38.8954 37.1507 39.0148 37.0608C39.1939 36.8811 39.3432 36.6713 39.4626 36.4317C39.4924 36.3718 39.4924 36.3418 39.5223 36.2819L40.2088 32.9863C40.2088 32.9264 40.2387 32.8365 40.179 32.7766L40.1491 32.7467L38.7461 31.6082C38.7461 31.6082 38.8058 31.6381 38.8357 31.6381C38.8655 31.6981 38.6267 31.5483 38.6267 31.6082L37.6417 34.5742C37.6118 34.7839 37.4626 34.9637 37.3432 35.1434C37.2237 35.3232 36.9849 35.5928 36.7461 35.5628L31.9103 35.0535C31.7611 35.0535 31.6417 34.9936 31.4924 35.0236C31.4626 35.0236 31.4327 35.0236 31.4029 35.0535L31.373 35.0835C31.3133 35.1135 31.3133 35.2033 31.2835 35.2333C31.164 35.5928 31.0745 35.9823 30.9849 36.3418C31.0148 36.192 30.9849 36.3718 30.9849 36.3418Z" fill="url(#paint8_linear_10300_6855)"/>
<path d="M48.5673 24.0272C48.5673 23.7576 48.418 23.458 48.3285 23.2183C48.2091 22.8888 48.0897 22.5592 47.9404 22.2596C47.6718 21.6904 47.3732 21.1511 47.015 20.6418C46.1792 19.4434 44.9852 18.5446 43.9106 17.5859C44.6568 18.245 45.2538 19.054 45.7315 19.9228C45.9703 20.3722 46.1792 20.8216 46.3583 21.3009C46.5076 21.6604 46.7762 22.1697 46.6568 22.5892C46.5971 22.7989 46.4479 22.9787 46.2389 23.0386L42.3882 24.5365C42.2091 24.5965 42.4479 25.0459 42.3285 24.926L43.6121 26.0645C43.7613 26.1843 43.9703 26.1843 44.1494 26.1244L48.1494 24.7163C48.2688 24.6863 48.3882 24.5965 48.4479 24.4766C48.5076 24.2969 48.5673 24.177 48.5673 24.0272Z" fill="url(#paint9_linear_10300_6855)"/>
<path d="M47.5223 46.0776C47.5223 46.0177 47.4925 45.9278 47.4626 45.8679C47.4328 45.838 47.4029 45.778 47.3731 45.7481C47.1044 45.4485 46.7761 45.2088 46.4776 44.9392C46.1194 44.6096 45.7612 44.31 45.4029 43.9805C45.8507 44.3699 45.4328 44.8493 45.194 45.2388C44.8059 45.838 44.3582 46.4371 43.8806 46.9764C42.9552 48.055 41.8806 48.9837 40.6268 49.6728C39.5223 50.272 38.2985 50.7214 37.0447 50.8112C35.6716 50.9011 34.2686 50.7214 32.8955 50.6015L15.0447 48.7141C14.7761 48.6841 14.9253 49.3732 14.6865 49.1635C15.1641 49.5829 15.0149 49.4331 15.4626 49.8525C15.6716 50.0323 15.9104 50.242 16.1791 50.3019C16.4179 50.3618 16.6865 50.3918 16.9253 50.4218L34.7761 52.3092C36.1194 52.459 37.4925 52.6088 38.8358 52.5189C40.1194 52.4291 41.3432 52.0096 42.4776 51.3805C43.6418 50.7513 44.6567 49.8825 45.5223 48.8938C45.9701 48.3845 46.388 47.8752 46.7761 47.3359C46.9552 47.0663 47.1641 46.7667 47.3432 46.4971C47.4626 46.3473 47.5522 46.2274 47.5223 46.0776Z" fill="url(#paint10_linear_10300_6855)"/>
<path d="M39.2536 15.9665C43.4028 16.4158 46.0596 18.6628 47.2536 22.7373C47.3431 23.0669 47.164 23.4563 46.8357 23.5462L42.8357 24.9543C42.7461 24.9843 42.6267 24.9843 42.5372 24.9843C42.3581 24.9543 42.2088 24.8644 42.179 24.6847C41.8506 22.3179 40.6267 20.9997 38.4775 20.7899C37.1939 20.6401 36.0596 21.0296 35.1043 21.8385C34.1491 22.6474 33.4924 23.9956 33.1043 25.7632C32.8655 26.8717 32.776 28.3697 32.8357 30.0474C32.8357 30.4369 33.0446 30.9762 33.4327 31.0061L38.2685 31.5154C38.3581 31.5154 38.4178 31.5154 38.5073 31.5454C38.7461 31.5754 38.9551 31.6353 38.8954 31.875L38.2088 35.1705C38.1491 35.5001 37.6416 36.1891 37.3133 36.1592L32.4775 35.6499C32.3879 35.6499 32.2685 35.6199 32.179 35.6199C31.9999 35.5899 31.8804 35.6199 31.8207 35.8296C31.2834 38.3462 30.7163 39.8741 30.0297 41.0126C29.373 42.1211 28.2685 43.1397 26.7163 44.3381C26.5372 44.4879 26.6566 44.5179 26.8655 44.5478L32.5969 45.147C35.8804 45.5065 38.0596 45.5065 39.2834 44.7875C40.3581 44.1284 41.0745 43.4094 41.5819 42.0912C41.6715 41.8814 41.8804 41.7616 42.0596 41.7916C42.1193 41.7916 42.179 41.8215 42.2387 41.8515L45.97 44.5179C46.2387 44.6976 46.3282 44.9972 46.1491 45.2968C45.164 46.9146 44.1193 48.143 42.9252 49.1316C41.6416 50.2102 40.2984 50.8393 38.9252 51.1988C37.5521 51.5883 35.7909 51.4086 33.5521 51.1689L15.7013 49.2814C15.5222 49.2515 15.2536 49.2814 15.0148 49.2515C14.8058 49.2215 14.6566 49.1616 14.6864 49.0118L15.6416 44.428C15.7013 44.0984 16.2387 43.8588 16.5372 43.8887C18.2984 44.0086 19.8506 43.9786 20.8058 43.7689C21.8506 43.4993 22.8655 42.8701 23.8207 41.7916C24.776 40.713 25.373 39.6045 25.6416 38.2863C25.761 37.7171 25.8804 36.8183 26.0297 35.3802C26.0596 35.0207 25.7909 34.9308 25.4625 34.9009L22.8058 34.6312C22.4775 34.6013 22.4178 33.8523 22.4775 33.5227L23.164 30.2272C23.2237 29.9575 23.3431 29.9575 23.5521 29.9575C23.6118 29.9575 23.6715 29.9875 23.761 29.9875L25.9103 30.2272C26.2387 30.2571 26.567 29.7778 26.567 29.4183C26.6864 27.8005 26.8655 26.4223 27.0446 25.5835C27.6715 22.4976 29.1342 20.041 31.4028 18.2434C33.6715 16.4158 36.2984 15.6669 39.2536 15.9665Z" fill="url(#paint11_linear_10300_6855)"/>
<g opacity="0.1">
<path d="M37.9701 15.9062V16.7751C38.3582 16.7751 38.7463 16.805 39.1642 16.835C42.9254 17.2245 45.2836 19.2018 46.388 22.8269L42.9552 24.0253C42.3283 20.9694 40.2686 20.1305 38.5671 19.9508C38.3582 19.9208 38.1492 19.9208 37.9701 19.9208C36.6866 19.9208 35.5522 20.3403 34.5671 21.2091C33.4627 22.1378 32.7164 23.6358 32.2985 25.6131C32.0597 26.8415 31.9403 28.3694 32 30.0771C32.0298 30.886 32.4776 31.7848 33.3433 31.8747L37.9104 32.354L37.3731 34.9905C37.3433 35.0803 37.2537 35.2002 37.1642 35.2901L32.5671 34.8107C32.5373 34.8107 32.4776 34.8107 32.4477 34.7807C32.388 34.7807 32.3283 34.7508 32.2686 34.7508C32.2089 34.7508 32.1492 34.7508 32.0895 34.7508C31.5522 34.7508 31.1045 35.1103 30.9851 35.6496C30.4776 37.9565 29.9701 39.4844 29.3134 40.5629C28.7463 41.4917 27.791 42.4504 26.2089 43.6488C25.7015 44.0382 25.791 44.5475 25.8209 44.6973C25.9104 44.967 26.1194 45.3265 26.7761 45.3864L32.5074 45.9856C34.0597 46.1354 35.2239 46.2253 36.1492 46.2253C37.7612 46.2253 38.8955 45.9856 39.7015 45.5063C40.8657 44.7872 41.6418 43.9783 42.1492 42.8399L45.2537 45.0569C44.388 46.435 43.4328 47.5435 42.3582 48.4423C41.2537 49.371 40.0895 49.9702 38.6866 50.3597C38.2089 50.4795 37.6119 50.5395 36.8955 50.5395C35.9403 50.5395 34.8358 50.4196 33.6119 50.2998L15.7612 48.4123C15.7313 48.4123 15.7015 48.4123 15.6716 48.4123L16.4179 44.7573C16.4477 44.7573 16.4477 44.7573 16.4776 44.7273C17.194 44.7872 17.8507 44.8172 18.4776 44.8172C19.5522 44.8172 20.388 44.7273 21.0149 44.5775C22.2686 44.248 23.3731 43.5289 24.4477 42.3605C25.5224 41.1621 26.1791 39.9038 26.4776 38.4658C26.6268 37.8067 26.7164 36.848 26.8657 35.4698C26.9851 34.2714 25.791 34.0617 25.5224 34.0617L23.2836 33.822C23.2836 33.7621 23.2836 33.7322 23.2836 33.6722L23.8806 30.856L25.791 31.0658C25.8209 31.0658 25.8806 31.0658 25.9104 31.0658C26.806 31.0658 27.3433 30.137 27.403 29.448C27.5224 27.9799 27.6716 26.6018 27.8507 25.733C28.4477 22.8569 29.8209 20.55 31.9104 18.8722C33.6716 17.4641 35.7015 16.7451 37.9403 16.7451L37.9701 15.9062ZM37.9701 15.9062C35.5224 15.9062 33.3433 16.6852 31.403 18.2131C29.1343 20.0107 27.6716 22.4674 27.0448 25.5532C26.8657 26.3921 26.6866 27.7702 26.5671 29.388C26.5373 29.7176 26.2388 30.1969 25.9403 30.1969H25.9104L23.7612 29.9573C23.6716 29.9573 23.6119 29.9273 23.5522 29.9273C23.5224 29.9273 23.4925 29.9273 23.4328 29.9273C23.2836 29.9273 23.194 29.9872 23.1343 30.1969L22.4477 33.4925C22.388 33.822 22.4477 34.571 22.7761 34.601L25.4328 34.8706C25.7612 34.9006 26.0298 34.9905 26 35.35C25.8507 36.788 25.7313 37.6868 25.6119 38.2561C25.3433 39.5443 24.7463 40.6828 23.791 41.7613C22.8358 42.8399 21.8507 43.469 20.7761 43.7386C20.1791 43.8884 19.3731 43.9484 18.4477 43.9484C17.8507 43.9484 17.194 43.9184 16.5074 43.8884C16.4776 43.8884 16.4776 43.8884 16.4477 43.8884C16.1194 43.8884 15.6418 44.0982 15.5821 44.4277L14.6269 49.0115C14.597 49.1913 14.7463 49.2512 14.9552 49.2512C15.1642 49.2812 15.4627 49.2512 15.6418 49.2812L33.4925 51.1686C34.7761 51.2884 35.8806 51.4083 36.8657 51.4083C37.6119 51.4083 38.2686 51.3484 38.8657 51.1986C40.2388 50.8091 41.5522 50.2099 42.8657 49.1314C44.0298 48.1427 45.1045 46.9144 46.0895 45.2965C46.2686 44.9969 46.1791 44.6973 45.9104 44.5176L42.1791 41.8512C42.1194 41.8212 42.0597 41.7913 42 41.7913H41.9701C41.791 41.7913 41.6119 41.9111 41.5224 42.0909C41.0149 43.3791 40.2985 44.1281 39.2239 44.7872C38.5074 45.2067 37.4925 45.3864 36.0895 45.3864C35.0746 45.3864 33.9104 45.2965 32.5074 45.1467L26.7761 44.5475C26.5671 44.5176 26.4477 44.4876 26.6268 44.3378C28.1791 43.1395 29.2836 42.1208 29.9403 41.0123C30.6269 39.8739 31.194 38.316 31.7313 35.8293C31.7612 35.6496 31.8806 35.6196 32 35.6196C32.0298 35.6196 32.0597 35.6196 32.0895 35.6196C32.1791 35.6196 32.2686 35.6496 32.388 35.6496L37.2239 36.1589H37.2537C37.5821 36.1589 38.0597 35.4998 38.1194 35.1702L38.806 31.8747C38.8657 31.605 38.6567 31.5451 38.4179 31.5451C38.3283 31.5451 38.2686 31.5451 38.1791 31.5152L33.3433 31.0058C32.9552 30.9759 32.7761 30.4366 32.7463 30.0471C32.6866 28.3694 32.806 26.9014 33.0149 25.7629C33.3731 23.9953 34.0597 22.6471 35.0149 21.8382C35.8507 21.1192 36.7761 20.7597 37.8507 20.7597C38.0298 20.7597 38.2089 20.7597 38.3582 20.7897C40.5074 21.0293 41.7313 22.3176 42.0597 24.6844C42.0895 24.8641 42.2388 24.984 42.4179 24.984C42.4477 24.984 42.4477 24.984 42.4776 24.984C42.5373 24.984 42.6269 24.984 42.7164 24.954L46.7164 23.5459C47.0448 23.4261 47.2239 23.0366 47.1343 22.737C45.9403 18.6625 43.2836 16.4156 39.1343 15.9662C38.806 15.9362 38.388 15.9062 37.9701 15.9062Z" fill="url(#paint12_linear_10300_6855)"/>
</g>
<g opacity="0.5">
<path d="M23.8207 41.8216C23.6118 42.0313 23.4327 42.241 23.2237 42.4208C24.3879 42.6006 25.5521 42.7803 26.7162 42.9001C27.2536 42.9601 27.761 42.99 28.2983 43.0499C29.0446 42.3609 29.6118 41.7018 30.0297 41.0127C30.7162 39.8742 31.2834 38.3163 31.8207 35.8297C31.8506 35.62 31.9998 35.59 32.1789 35.62C32.2685 35.62 32.358 35.6499 32.4774 35.6499L37.3133 36.1593C37.6416 36.1892 38.1192 35.5001 38.2088 35.1706L38.8954 31.875C38.9551 31.6054 38.7461 31.5455 38.5073 31.5455C38.4177 31.5455 38.358 31.5455 38.2685 31.5155L33.4327 31.0062C33.0446 30.9763 32.8655 30.437 32.8357 30.0475C32.7759 28.3698 32.8954 26.9018 33.1043 25.7633C33.4625 23.9957 34.1491 22.6475 35.1043 21.8386C36.0595 20.9997 37.1939 20.6402 38.4774 20.79C40.6267 21.0297 41.8506 22.318 42.1789 24.6848C42.2088 24.8645 42.358 24.9844 42.5371 24.9844C42.6267 24.9844 42.7162 24.9844 42.8356 24.9544L46.8356 23.5463C47.164 23.4265 47.3431 23.037 47.2536 22.7374C46.0595 18.6629 43.4028 16.4159 39.2536 15.9665C36.2983 15.6669 33.7013 16.4159 31.4327 18.2135C29.164 20.0111 27.7013 22.4678 27.0745 25.5536C26.8954 26.3925 26.7162 27.7706 26.5968 29.3884C26.567 29.7479 26.2685 30.2273 25.9401 30.1973L23.7909 29.9576C23.7013 29.9576 23.6416 29.9277 23.5819 29.9277C23.373 29.8977 23.2536 29.9277 23.1939 30.1973L22.5073 33.4929C22.4476 33.8224 22.5073 34.5714 22.8357 34.6014L25.4924 34.871C25.8207 34.901 26.0894 34.9908 26.0595 35.3503C25.9103 36.7884 25.7909 37.6872 25.6715 38.2564C25.373 39.6046 24.7759 40.7431 23.8207 41.8216Z" fill="url(#paint13_linear_10300_6855)"/>
</g>
<path d="M29.7313 20.1015L31.791 20.6707L29.9403 19.5922L29.7611 19.0529L30.3283 16.9258L29.2537 18.8432L28.7462 19.0529L26.6865 18.4537L28.5373 19.5622L28.7462 20.0715L28.1492 22.2286L29.2238 20.3112L29.7313 20.1015Z" fill="white"/>
</g>
<defs>
<linearGradient id="paint0_linear_10300_6855" x1="78.7154" y1="-26.6281" x2="18.3165" y2="98.8208" gradientUnits="userSpaceOnUse">
<stop stop-color="#FFD243"/>
<stop offset="1" stop-color="#CD571B"/>
</linearGradient>
<linearGradient id="paint1_linear_10300_6855" x1="43.3224" y1="48.46" x2="27.7186" y2="80.8691" gradientUnits="userSpaceOnUse">
<stop stop-color="#E08C3C"/>
<stop offset="1" stop-color="#FFD06F"/>
</linearGradient>
<linearGradient id="paint2_linear_10300_6855" x1="15.3167" y1="128.648" x2="56.8274" y2="-78.6019" gradientUnits="userSpaceOnUse">
<stop stop-color="#F5942A"/>
<stop offset="1" stop-color="#F5D85D"/>
</linearGradient>
<linearGradient id="paint3_linear_10300_6855" x1="24.0523" y1="84.8906" x2="51.186" y2="-50.58" gradientUnits="userSpaceOnUse">
<stop stop-color="#E08C3C"/>
<stop offset="1" stop-color="#FFD06F"/>
</linearGradient>
<linearGradient id="paint4_linear_10300_6855" x1="47.5114" y1="-18.8005" x2="11.9896" y2="120.748" gradientUnits="userSpaceOnUse">
<stop offset="0.199" stop-color="#FFDE43"/>
<stop offset="0.5646" stop-color="#FFD23E"/>
<stop offset="1" stop-color="#FFBD37"/>
</linearGradient>
<linearGradient id="paint5_linear_10300_6855" x1="45.7714" y1="-12.1756" x2="22.6406" y2="78.6948" gradientUnits="userSpaceOnUse">
<stop offset="0.0180995" stop-color="#FFFFA0"/>
<stop offset="0.9762" stop-color="#FFEB6A"/>
</linearGradient>
<linearGradient id="paint6_linear_10300_6855" x1="15.2644" y1="24.2771" x2="40.8648" y2="53.2484" gradientUnits="userSpaceOnUse">
<stop offset="0.0860112" stop-color="#CD553F"/>
<stop offset="0.905" stop-color="#FFD067"/>
<stop offset="1" stop-color="#FFC46D"/>
</linearGradient>
<linearGradient id="paint7_linear_10300_6855" x1="24.2713" y1="11.7392" x2="55.0902" y2="46.6161" gradientUnits="userSpaceOnUse">
<stop offset="0.0860112" stop-color="#CD553F"/>
<stop offset="0.905" stop-color="#FFD067"/>
<stop offset="1" stop-color="#FFC46D"/>
</linearGradient>
<linearGradient id="paint8_linear_10300_6855" x1="16.1056" y1="18.9589" x2="46.9236" y2="53.8348" gradientUnits="userSpaceOnUse">
<stop offset="0.0860112" stop-color="#CD553F"/>
<stop offset="0.905" stop-color="#FFD067"/>
<stop offset="1" stop-color="#FFC46D"/>
</linearGradient>
<linearGradient id="paint9_linear_10300_6855" x1="30.3538" y1="6.36679" x2="61.1722" y2="41.2432" gradientUnits="userSpaceOnUse">
<stop offset="0.0860112" stop-color="#CD553F"/>
<stop offset="0.905" stop-color="#FFD067"/>
<stop offset="1" stop-color="#FFC46D"/>
</linearGradient>
<linearGradient id="paint10_linear_10300_6855" x1="11.3516" y1="24.9558" x2="45.5162" y2="63.6191" gradientUnits="userSpaceOnUse">
<stop offset="0.0860112" stop-color="#CD553F"/>
<stop offset="0.2659" stop-color="#CE5840"/>
<stop offset="0.4105" stop-color="#D26243"/>
<stop offset="0.5427" stop-color="#D97349"/>
<stop offset="0.6676" stop-color="#E38B51"/>
<stop offset="0.7863" stop-color="#EFA95A"/>
<stop offset="0.9007" stop-color="#FECE67"/>
<stop offset="0.905" stop-color="#FFD067"/>
<stop offset="1" stop-color="#FFC46D"/>
</linearGradient>
<linearGradient id="paint11_linear_10300_6855" x1="40.9042" y1="5.2958" x2="22.149" y2="78.9761" gradientUnits="userSpaceOnUse">
<stop offset="0.1642" stop-color="#FFDE43"/>
<stop offset="0.2484" stop-color="#FFDA42"/>
<stop offset="1" stop-color="#FFBD37"/>
</linearGradient>
<linearGradient id="paint12_linear_10300_6855" x1="14.688" y1="33.664" x2="47.2732" y2="33.664" gradientUnits="userSpaceOnUse">
<stop offset="0.1642" stop-color="#FFDE43"/>
<stop offset="0.2484" stop-color="#FFDA42"/>
<stop offset="1" stop-color="#FFBD37"/>
</linearGradient>
<linearGradient id="paint13_linear_10300_6855" x1="40.0339" y1="7.55562" x2="25.5197" y2="64.5751" gradientUnits="userSpaceOnUse">
<stop offset="0.0180995" stop-color="#FFFFA0"/>
<stop offset="0.9762" stop-color="#FFEB6A"/>
</linearGradient>
<clipPath id="clip0_10300_6855">
<rect width="72" height="74" fill="white"/>
</clipPath>
</defs>
</svg>
