<svg width="14" height="14" viewBox="0 0 14 14" fill="none" xmlns="http://www.w3.org/2000/svg">
<path d="M12.333 0.333344H5.66634C4.93101 0.333344 4.33301 0.931343 4.33301 1.66668V4.33334H1.66634C0.931008 4.33334 0.333008 4.93134 0.333008 5.66668V12.3333C0.333008 13.0687 0.931008 13.6667 1.66634 13.6667H8.33301C9.06834 13.6667 9.66634 13.0687 9.66634 12.3333V9.66668H12.333C13.0683 9.66668 13.6663 9.06868 13.6663 8.33334V1.66668C13.6663 0.931343 13.0683 0.333344 12.333 0.333344ZM1.66634 12.3333V5.66668H8.33301L8.33434 12.3333H1.66634ZM12.333 8.33334H9.66634V5.66668C9.66634 4.93134 9.06834 4.33334 8.33301 4.33334H5.66634V1.66668H12.333V8.33334Z" fill="current"/>
</svg>
