<svg width="16" height="16" viewBox="0 0 16 16" fill="none" xmlns="http://www.w3.org/2000/svg">
<path d="M13.333 2.66602H2.66634C1.93101 2.66602 1.33301 3.26402 1.33301 3.99935V11.9993C1.33301 12.7347 1.93101 13.3327 2.66634 13.3327H13.333C14.0683 13.3327 14.6663 12.7347 14.6663 11.9993V3.99935C14.6663 3.26402 14.0683 2.66602 13.333 2.66602ZM2.66634 11.9993V3.99935H13.333L13.3337 11.9993H2.66634Z" fill="white"/>
<path d="M4.33333 7.33398H6.33333C6.42174 7.33398 6.50652 7.29887 6.56904 7.23635C6.63155 7.17384 6.66667 7.08906 6.66667 7.00065V5.66732C6.66667 5.57891 6.63155 5.49413 6.56904 5.43162C6.50652 5.3691 6.42174 5.33398 6.33333 5.33398H4.33333C4.24493 5.33398 4.16014 5.3691 4.09763 5.43162C4.03512 5.49413 4 5.57891 4 5.66732V7.00065C4 7.08906 4.03512 7.17384 4.09763 7.23635C4.16014 7.29887 4.24493 7.33398 4.33333 7.33398ZM4 9.33398H8V10.668H4V9.33398ZM8.66667 9.33398H12V10.668H8.66667V9.33398Z" fill="white"/>
</svg>
