<svg width="49" height="50" viewBox="4 0 30 50" fill="none" xmlns="http://www.w3.org/2000/svg">
<path fill-rule="evenodd" clip-rule="evenodd" d="M38.2812 13.1578V46.0523C38.2812 48.2328 36.5078 50 34.3211 50H3.96016C1.77266 50 0 48.2328 0 46.0523V3.94766C0 1.76719 1.77266 0 3.96016 0H25.0805L38.2812 13.1578Z" fill="#8EACF4"/>
<path fill-rule="evenodd" clip-rule="evenodd" d="M38.2809 12.4211V14.0586H27.4895C25.2551 14.0586 24.2246 12.2461 24.2246 10.0109V0H25.859L38.2809 12.4211Z" fill="#3360C8"/>
<path d="M13.5143 33.6413C14.7429 33.6413 15.7334 33.1937 16.381 32.3841L15.181 31.2984C14.7619 31.8032 14.2477 32.0794 13.6096 32.0794C12.5143 32.0794 11.7524 31.3175 11.7524 30.1746C11.7524 29.0318 12.5143 28.2699 13.6096 28.2699C14.2477 28.2699 14.7619 28.546 15.181 29.0508L16.381 27.9651C15.7334 27.1556 14.7429 26.7079 13.5143 26.7079C11.4 26.7079 9.84766 28.146 9.84766 30.1746C9.84766 32.2032 11.4 33.6413 13.5143 33.6413Z" fill="white"/>
<path d="M19.4902 33.6413C21.4712 33.6413 22.4426 32.6508 22.4426 31.4889C22.4426 29.0318 18.6616 29.7937 18.6616 28.7746C18.6616 28.4413 18.9474 28.1746 19.7378 28.1746C20.3188 28.1746 20.9474 28.346 21.5855 28.6889L22.1664 27.2889C21.5093 26.9079 20.614 26.7079 19.7474 26.7079C17.7664 26.7079 16.795 27.6794 16.795 28.8699C16.795 31.346 20.5855 30.5746 20.5855 31.6318C20.5855 31.9556 20.2807 32.1746 19.4997 32.1746C18.7283 32.1746 17.8902 31.9079 17.2997 31.5175L16.6807 32.9079C17.3093 33.346 18.395 33.6413 19.4902 33.6413Z" fill="white"/>
<path d="M28.2089 26.8413L26.3613 31.1841L24.5517 26.8413H22.5137L25.3613 33.5079H27.2184L30.0756 26.8413H28.2089Z" fill="white"/>
</svg>
