<svg width="18" height="18" viewBox="0 0 18 18" fill="none" xmlns="http://www.w3.org/2000/svg">
<path d="M12.4529 8.28601C12.9097 7.50757 13.107 6.60399 13.0162 5.70601C12.8819 4.36801 12.1349 3.18526 10.9139 2.37601L10.0852 3.62551C10.9244 4.18201 11.4352 4.97476 11.5237 5.85601C11.5645 6.26558 11.5135 6.6791 11.3744 7.06649C11.2353 7.45389 11.0117 7.80541 10.7197 8.09551L9.82568 8.98951L11.0392 9.34576C14.2132 10.2758 14.2499 13.4678 14.2499 13.5H15.7499C15.7499 12.1583 15.0329 9.53626 12.4529 8.28601Z" fill="currentColor"/>
<path d="M7.125 9C8.7795 9 10.125 7.6545 10.125 6C10.125 4.3455 8.7795 3 7.125 3C5.4705 3 4.125 4.3455 4.125 6C4.125 7.6545 5.4705 9 7.125 9ZM7.125 4.5C7.95225 4.5 8.625 5.17275 8.625 6C8.625 6.82725 7.95225 7.5 7.125 7.5C6.29775 7.5 5.625 6.82725 5.625 6C5.625 5.17275 6.29775 4.5 7.125 4.5ZM8.25 9.75H6C3.51825 9.75 1.5 11.7682 1.5 14.25V15H3V14.25C3 12.5955 4.3455 11.25 6 11.25H8.25C9.9045 11.25 11.25 12.5955 11.25 14.25V15H12.75V14.25C12.75 11.7682 10.7318 9.75 8.25 9.75Z" fill="currentColor"/>
</svg>
