<svg width="16" height="16" viewBox="0 0 16 16" fill="none" xmlns="http://www.w3.org/2000/svg">
<path d="M3.33333 13.3333C3.33333 13.687 3.47381 14.0261 3.72386 14.2761C3.97391 14.5262 4.31304 14.6667 4.66667 14.6667H11.3333C11.687 14.6667 12.0261 14.5262 12.2761 14.2761C12.5262 14.0261 12.6667 13.687 12.6667 13.3333V5.33334H14V4H11.3333V2.66667C11.3333 2.31305 11.1929 1.97391 10.9428 1.72386C10.6928 1.47381 10.3536 1.33334 10 1.33334H6C5.64638 1.33334 5.30724 1.47381 5.05719 1.72386C4.80714 1.97391 4.66667 2.31305 4.66667 2.66667V4H2V5.33334H3.33333V13.3333ZM6 2.66667H10V4H6V2.66667ZM5.33333 5.33334H11.3333V13.3333H4.66667V5.33334H5.33333Z" fill="current"/>
<path d="M6 6.66666H7.33333V12H6V6.66666ZM8.66667 6.66666H10V12H8.66667V6.66666Z" fill="current"/>
</svg>
