<svg width="11" height="14" viewBox="0 0 11 14" fill="none" xmlns="http://www.w3.org/2000/svg">
<g clip-path="url(#clip0_10941_17162)">
<path d="M10.3443 6.16418C10.0844 5.85075 9.56457 5.79851 9.25269 6.0597L6.02992 8.72388V0.783582C6.02992 0.365672 5.66606 0 5.25021 0C4.83437 0 4.47051 0.365672 4.47051 0.783582V8.56717L1.24774 5.90299C0.935858 5.64179 0.416056 5.69403 0.156155 6.00746C-0.103746 6.3209 -0.0517658 6.84329 0.260115 7.10448L4.57447 10.6567C4.73041 10.9179 4.93833 11.0746 5.25021 11.0746H5.30219C5.30219 11.0746 5.30219 11.0746 5.35417 11.0746C5.51011 11.0746 5.71804 11.0224 5.87398 10.9179L10.2403 7.31343C10.5522 7 10.6042 6.47761 10.3443 6.16418Z" fill="#6C6C8A"/>
<path d="M9.56444 14.0008H0.987711C0.571869 14.0008 0.208008 13.6351 0.208008 13.2172C0.208008 12.7993 0.571869 12.4336 0.987711 12.4336H9.56444C9.98029 12.4336 10.3441 12.7993 10.3441 13.2172C10.3441 13.6351 9.98029 14.0008 9.56444 14.0008Z" fill="#6C6C8A"/>
</g>
<defs>
<clipPath id="clip0_10941_17162">
<rect width="10.5" height="14" fill="white"/>
</clipPath>
</defs>
</svg>
