<svg width="12" height="16" viewBox="0 0 12 16" fill="none" xmlns="http://www.w3.org/2000/svg">
<path d="M11.2838 4.55078C11.5673 4.26728 11.7233 3.89078 11.7233 3.49028C11.7233 3.08978 11.5673 2.71328 11.2838 2.42978L10.0942 1.24028C9.81075 0.956781 9.43425 0.800781 9.03375 0.800781C8.63325 0.800781 8.25675 0.956781 7.974 1.23953L0 9.18878V12.5H3.30975L11.2838 4.55078ZM9.03375 2.30078L10.224 3.48953L9.0315 4.67753L7.842 3.48878L9.03375 2.30078ZM1.5 11V9.81128L6.78 4.54778L7.9695 5.73728L2.69025 11H1.5ZM0 14H12V15.5H0V14Z" fill="#027AFF"/>
</svg>
