<svg width="16" height="16" viewBox="0 0 16 16" fill="none" xmlns="http://www.w3.org/2000/svg">
<path d="M12.697 4.934C12.949 4.682 13.0877 4.34733 13.0877 3.99133C13.0877 3.63533 12.949 3.30066 12.697 3.04866L11.6397 1.99133C11.3877 1.73933 11.053 1.60066 10.697 1.60066C10.341 1.60066 10.0063 1.73933 9.75499 1.99066L2.66699 9.05666V12H5.60899L12.697 4.934ZM10.697 2.934L11.755 3.99066L10.695 5.04666L9.63766 3.99L10.697 2.934ZM4.00033 10.6667V9.60999L8.69366 4.93133L9.75099 5.98866L5.05833 10.6667H4.00033ZM2.66699 13.3333H13.3337V14.6667H2.66699V13.3333Z" fill="current"/>
</svg>
