<svg width="22" height="22" viewBox="0 0 22 22" fill="none" xmlns="http://www.w3.org/2000/svg">
<path d="M10.9576 1.83334C5.9269 1.83334 1.83398 5.94551 1.83398 11C1.83398 16.0545 5.94615 20.1667 11.0007 20.1667C16.0552 20.1667 20.1673 16.0545 20.1673 11C20.1673 5.94551 16.0359 1.83334 10.9576 1.83334ZM11.0007 18.3333C6.95723 18.3333 3.66732 15.0434 3.66732 11C3.66732 6.95659 6.93707 3.66668 10.9576 3.66668C15.0257 3.66668 18.334 6.95659 18.334 11C18.334 15.0434 15.0441 18.3333 11.0007 18.3333Z" fill="#EF6355"/>
<path d="M10.084 6.41666H11.9173V12.8333H10.084V6.41666ZM10.084 13.75H11.9173V15.5833H10.084V13.75Z" fill="#EF6355"/>
</svg>
