<svg width="16" height="16" viewBox="0 0 16 16" fill="none" xmlns="http://www.w3.org/2000/svg">
<path d="M9.33333 8C8.60333 8 8 7.39667 8 6.66667C8 6.43067 8.06867 6.21133 8.17867 6.018C8.11867 6.01333 8.06133 6 8 6C7.47065 6.00349 6.96397 6.21533 6.58965 6.58965C6.21533 6.96397 6.00349 7.47065 6 8C6 9.09467 6.90533 10 8 10C9.094 10 10 9.09467 10 8C10 7.93867 9.98667 7.88133 9.982 7.82133C9.78867 7.93133 9.56933 8 9.33333 8Z" fill="#8181A5"/>
<path d="M7.99954 3.33301C2.91088 3.33301 1.38154 7.74434 1.36754 7.78901L1.29688 7.99967L1.36688 8.21034C1.38154 8.25501 2.91088 12.6663 7.99954 12.6663C13.0882 12.6663 14.6175 8.25501 14.6315 8.21034L14.7022 7.99967L14.6322 7.78901C14.6175 7.74434 13.0882 3.33301 7.99954 3.33301ZM7.99954 11.333C4.43221 11.333 3.05021 8.76901 2.71554 7.99967C3.05154 7.22767 4.43421 4.66634 7.99954 4.66634C11.5669 4.66634 12.9489 7.23034 13.2835 7.99967C12.9475 8.77167 11.5649 11.333 7.99954 11.333Z" fill="#8181A5"/>
</svg>
