<svg width="66" height="66" viewBox="0 0 66 66" fill="none" xmlns="http://www.w3.org/2000/svg">
<circle cx="33" cy="33" r="33" fill="#EF6355" fill-opacity="0.12"/>
<path d="M55 33C55 45.1503 45.1503 55 33 55C20.8497 55 11 45.1503 11 33C11 20.8497 20.8497 11 33 11C45.1503 11 55 20.8497 55 33Z" fill="#EF6355"/>
<path d="M30.1718 37.2418L32.9998 34.4138L35.8278 37.2418L37.2418 35.8278L34.4138 32.9998L37.2418 30.1718L35.8278 28.7578L32.9998 31.5858L30.1718 28.7578L28.7578 30.1718L31.5858 32.9998L28.7578 35.8278L30.1718 37.2418Z" fill="white"/>
<path d="M33 43C38.514 43 43 38.514 43 33C43 27.486 38.514 23 33 23C27.486 23 23 27.486 23 33C23 38.514 27.486 43 33 43ZM33 25C37.411 25 41 28.589 41 33C41 37.411 37.411 41 33 41C28.589 41 25 37.411 25 33C25 28.589 28.589 25 33 25Z" fill="white"/>
</svg>
