<svg width="88" height="25" viewBox="0 0 88 25" fill="none" xmlns="http://www.w3.org/2000/svg">
<g clip-path="url(#clip0_1900_6498)">
<path d="M0 9.03197H1.94896C2.05856 7.40442 2.37777 6.01231 2.90659 4.85563C3.43541 3.69895 4.12918 2.76535 4.98789 2.05484C5.86452 1.33228 6.87595 0.800605 7.96024 0.492397C9.14332 0.15586 10.3665 -0.0098968 11.5943 -7.62051e-05V4.97264C11.0434 4.97807 10.4949 5.04755 9.95935 5.17973C9.38542 5.31257 8.83799 5.5452 8.34083 5.86751C7.84422 6.18934 7.4216 6.61756 7.10208 7.12269C6.77328 7.63845 6.59709 8.28638 6.57353 9.06649L11.0986 9.03197L11.0329 13.6326H6.576V24.4586H1.71798L1.75086 13.6671H0V9.03197Z" fill="#2a3b89"/>
<path d="M23.5511 24.6658C22.247 24.6697 20.9551 24.4085 19.7502 23.8974C18.5454 23.3863 17.4515 22.6354 16.532 21.6882C15.6322 20.7514 14.9147 19.6478 14.4179 18.4362C13.9061 17.1829 13.6426 15.838 13.6426 14.4796C13.6426 13.1211 13.9061 11.7762 14.4179 10.523C15.4123 8.08436 17.3056 6.14571 19.6869 5.12764C20.9106 4.60344 22.2238 4.3335 23.5503 4.3335C24.8767 4.3335 26.1899 4.60344 27.4137 5.12764C28.5956 5.63658 29.6725 6.37044 30.5874 7.29031C31.5126 8.23183 32.2459 9.35219 32.7449 10.5863C33.2439 11.8205 33.4985 13.1438 33.494 14.4796V16.4747H18.8937C19.2632 17.4148 19.8969 18.2213 20.7144 18.7923C21.5463 19.3883 22.54 19.7019 23.5552 19.6889C24.1938 19.693 24.8274 19.5724 25.422 19.3336C25.9902 19.1045 26.5101 18.7655 26.9533 18.3352L30.5537 21.7194C29.6542 22.6417 28.5887 23.3767 27.4161 23.8837C26.1932 24.4111 24.878 24.6772 23.5511 24.6658ZM18.6955 13.0241H28.4066C28.1098 11.96 27.4839 11.0233 26.6229 10.3546C25.7428 9.65475 24.7189 9.30511 23.5511 9.30567C22.9953 9.30283 22.4429 9.39413 21.9161 9.5759C21.4041 9.75378 20.9242 10.0169 20.4957 10.3546C20.0702 10.6872 19.6971 11.0847 19.3893 11.5332C19.0794 11.9875 18.8449 12.4913 18.6955 13.0241Z" fill="#2a3b89"/>
<path d="M51.0666 14.7153C51.0666 13.814 50.9343 13.0361 50.6696 12.3817C50.4324 11.7672 50.0593 11.2174 49.5796 10.7755C49.1089 10.3549 48.5576 10.0395 47.9611 9.84949C47.3201 9.64266 46.6514 9.53984 45.9793 9.54474C45.3112 9.539 44.6469 9.64769 44.0139 9.86632C43.4315 10.0674 42.8897 10.3755 42.4151 10.7755C41.9516 11.1723 41.5794 11.669 41.3251 12.2302C41.0538 12.8403 40.9185 13.5045 40.9289 14.1748L40.896 24.4595H36.1358L36.0701 14.7161V5.0746H40.9914L40.9256 6.93505C41.5296 6.15527 42.3206 5.54909 43.2215 5.17562C44.0965 4.80113 45.0313 4.59481 45.9793 4.56697C52.6101 4.36437 55.9255 7.8375 55.9255 14.9864L55.9584 24.4587H51.1653L51.0666 14.7153Z" fill="#2a3b89"/>
<path d="M79.0116 14.8508V24.4586H74.0565L74.156 23.0848C72.6364 24.3632 70.9406 25.0025 69.0686 25.0025C67.7413 25.0097 66.4266 24.739 65.2052 24.2069C62.8113 23.1762 60.9074 21.2252 59.9025 18.7729C59.3907 17.5196 59.1272 16.1747 59.1272 14.8162C59.1272 13.4578 59.3907 12.1129 59.9025 10.8596C60.9083 8.40931 62.8117 6.46029 65.2044 5.43061C66.428 4.90586 67.7413 4.63562 69.0678 4.63562C70.3943 4.63562 71.7076 4.90586 72.9312 5.43061C75.3249 6.45974 77.2292 8.40884 78.2356 10.8596C78.7547 12.1106 79.0187 13.457 79.0116 14.8162V14.8508ZM74.156 14.8339C74.1607 14.1339 74.0253 13.4402 73.7581 12.7958C73.239 11.5435 72.2644 10.5472 71.0406 10.0178C70.1076 9.60923 69.0762 9.49753 68.0804 9.6972C67.0846 9.89687 66.1704 10.3987 65.4568 11.1374C65.0003 11.6171 64.6349 12.1794 64.3791 12.7958C64.1171 13.4412 63.9821 14.1333 63.9821 14.8322C63.9821 15.5312 64.1171 16.2233 64.3791 16.8686C64.8863 18.1109 65.8508 19.0986 67.0638 19.6181C67.6939 19.8865 68.3697 20.0246 69.0522 20.0246C69.7347 20.0246 70.4104 19.8865 71.0406 19.6181C71.6439 19.3586 72.1947 18.9864 72.6649 18.5203C73.1325 18.05 73.5042 17.4891 73.7581 16.8703C74.0252 16.2265 74.1606 15.5334 74.156 14.8339Z" fill="#2a3b89"/>
<path d="M85.2217 24.8342C84.8604 24.8382 84.5021 24.7684 84.1676 24.6287C83.8331 24.489 83.5292 24.2823 83.2738 24.0207C83.0183 23.7591 82.8165 23.4479 82.6801 23.1053C82.5437 22.7627 82.4754 22.3957 82.4794 22.0258V20.3312H87.9631V22.0224C87.9681 22.3928 87.9007 22.7604 87.7648 23.1036C87.6289 23.4468 87.4272 23.7587 87.1717 24.0207C86.9162 24.2828 86.612 24.4898 86.277 24.6295C85.9421 24.7692 85.5833 24.8388 85.2217 24.8342Z" fill="#2a3b89"/>
</g>
<defs>
<clipPath id="clip0_1900_6498">
<rect width="87.963" height="25" fill="white"/>
</clipPath>
</defs>
</svg>
