<svg width="38" height="26" viewBox="0 0 38 26" fill="none" xmlns="http://www.w3.org/2000/svg">
<rect x="0.5" y="0.5" width="37" height="25" rx="4.5" fill="white" stroke="#DBE3EB"/>
<g clip-path="url(#clip0_4045_42670)">
<path d="M3 12.2512H3.71492C3.75512 11.6653 3.87221 11.1641 4.0662 10.7477C4.26018 10.3313 4.51467 9.99521 4.82966 9.73943C5.15122 9.47931 5.52224 9.28791 5.91998 9.17695C6.35396 9.0558 6.80263 8.99612 7.25303 8.99966V10.7898C7.05095 10.7918 6.84975 10.8168 6.65329 10.8644C6.44276 10.9122 6.24195 10.996 6.05959 11.112C5.87742 11.2278 5.72239 11.382 5.60519 11.5639C5.48458 11.7495 5.41995 11.9828 5.4113 12.2636L7.07121 12.2512L7.04708 13.9074H5.41221V17.8048H3.63019L3.64225 13.9198H3V12.2512Z" fill="#2a3b89"/>
<path d="M11.6386 17.8797C11.1602 17.8811 10.6863 17.7871 10.2443 17.6031C9.80235 17.4191 9.4011 17.1487 9.06382 16.8078C8.73375 16.4705 8.47055 16.0732 8.2883 15.637C8.10057 15.1859 8.00391 14.7017 8.00391 14.2127C8.00391 13.7236 8.10057 13.2394 8.2883 12.7883C8.65308 11.9104 9.34757 11.2125 10.2211 10.8459C10.67 10.6572 11.1517 10.5601 11.6382 10.5601C12.1248 10.5601 12.6065 10.6572 13.0554 10.8459C13.489 11.0292 13.884 11.2934 14.2196 11.6245C14.559 11.9635 14.828 12.3668 15.011 12.8111C15.1941 13.2554 15.2875 13.7318 15.2858 14.2127V14.9309H9.93011C10.0657 15.2693 10.2981 15.5597 10.598 15.7652C10.9032 15.9798 11.2676 16.0927 11.6401 16.088C11.8743 16.0895 12.1067 16.0461 12.3248 15.9601C12.5333 15.8776 12.724 15.7556 12.8866 15.6007L14.2072 16.819C13.8773 17.151 13.4865 17.4156 13.0563 17.5981C12.6077 17.788 12.1253 17.8838 11.6386 17.8797ZM9.85744 13.6887H13.4197C13.3108 13.3056 13.0812 12.9684 12.7654 12.7277C12.4425 12.4757 12.0669 12.3498 11.6386 12.35C11.4347 12.349 11.232 12.3819 11.0388 12.4473C10.851 12.5114 10.675 12.6061 10.5178 12.7277C10.3617 12.8474 10.2248 12.9905 10.1119 13.1519C9.99823 13.3155 9.91224 13.4969 9.85744 13.6887Z" fill="#2a3b89"/>
<path d="M21.7315 14.2975C21.7315 13.973 21.683 13.693 21.5859 13.4574C21.4989 13.2362 21.362 13.0383 21.1861 12.8792C21.0134 12.7278 20.8112 12.6142 20.5923 12.5458C20.3572 12.4714 20.1119 12.4344 19.8654 12.4361C19.6203 12.4341 19.3766 12.4732 19.1444 12.5519C18.9308 12.6243 18.732 12.7352 18.5579 12.8792C18.3879 13.0221 18.2514 13.2009 18.1581 13.4029C18.0586 13.6225 18.009 13.8617 18.0128 14.103L18.0007 17.8055H16.2546L16.2305 14.2978V10.8269H18.0357L18.0116 11.4966C18.2331 11.2159 18.5233 10.9977 18.8537 10.8632C19.1747 10.7284 19.5176 10.6542 19.8654 10.6441C22.2977 10.5712 23.5138 11.8215 23.5138 14.3951L23.5259 17.8052H21.7677L21.7315 14.2975Z" fill="#2a3b89"/>
<path d="M31.9834 14.3464V17.8052H30.1658L30.2023 17.3106C29.6449 17.7709 29.0228 18.001 28.3362 18.001C27.8493 18.0036 27.367 17.9062 26.919 17.7146C26.0408 17.3436 25.3425 16.6412 24.9738 15.7584C24.7861 15.3072 24.6895 14.823 24.6895 14.334C24.6895 13.8449 24.7861 13.3608 24.9738 12.9096C25.3428 12.0275 26.041 11.3258 26.9187 10.9551C27.3675 10.7662 27.8493 10.6689 28.3359 10.6689C28.8225 10.6689 29.3042 10.7662 29.753 10.9551C30.6311 11.3256 31.3296 12.0273 31.6988 12.9096C31.8892 13.3599 31.9861 13.8446 31.9834 14.334V14.3464ZM30.2023 14.3403C30.2041 14.0883 30.1544 13.8386 30.0564 13.6066C29.8659 13.1558 29.5084 12.7971 29.0595 12.6065C28.7173 12.4594 28.3389 12.4192 27.9737 12.4911C27.6084 12.563 27.2731 12.7436 27.0113 13.0096C26.8438 13.1823 26.7098 13.3847 26.616 13.6066C26.5198 13.839 26.4703 14.0881 26.4703 14.3397C26.4703 14.5914 26.5198 14.8405 26.616 15.0728C26.802 15.52 27.1558 15.8756 27.6007 16.0626C27.8319 16.1592 28.0798 16.209 28.3301 16.209C28.5805 16.209 28.8284 16.1592 29.0595 16.0626C29.2808 15.9692 29.4829 15.8352 29.6554 15.6674C29.8269 15.4981 29.9632 15.2962 30.0564 15.0734C30.1543 14.8417 30.204 14.5922 30.2023 14.3403Z" fill="#2a3b89"/>
<path d="M34.2618 17.9404C34.1293 17.9419 33.9979 17.9167 33.8752 17.8664C33.7525 17.8161 33.641 17.7417 33.5473 17.6476C33.4536 17.5534 33.3796 17.4413 33.3295 17.318C33.2795 17.1947 33.2545 17.0626 33.2559 16.9294V16.3193H35.2674V16.9282C35.2693 17.0615 35.2446 17.1938 35.1947 17.3174C35.1449 17.441 35.0709 17.5532 34.9771 17.6476C34.8834 17.7419 34.7718 17.8164 34.649 17.8667C34.5261 17.917 34.3945 17.9421 34.2618 17.9404Z" fill="#2a3b89"/>
</g>
<defs>
<clipPath id="clip0_4045_42670">
<rect width="32.2666" height="9" fill="white" transform="translate(3 9)"/>
</clipPath>
</defs>
</svg>
