<svg width="16" height="16" viewBox="0 0 16 16" fill="none" xmlns="http://www.w3.org/2000/svg">
<path d="M13.269 5.72367C13.2374 5.65132 13.1931 5.58517 13.1383 5.52834L9.13833 1.52834C9.08149 1.47353 9.01535 1.42928 8.94299 1.39767C8.92299 1.38834 8.90166 1.38301 8.88032 1.37567C8.82454 1.35669 8.76647 1.34526 8.70766 1.34167C8.69366 1.34034 8.68099 1.33301 8.66699 1.33301H4.00033C3.26499 1.33301 2.66699 1.93101 2.66699 2.66634V13.333C2.66699 14.0683 3.26499 14.6663 4.00033 14.6663H12.0003C12.7357 14.6663 13.3337 14.0683 13.3337 13.333V5.99967C13.3337 5.98567 13.3263 5.97301 13.325 5.95834C13.3217 5.89949 13.3103 5.84137 13.291 5.78567C13.2843 5.76434 13.2783 5.74367 13.269 5.72367ZM11.0577 5.33301H9.33366V3.60901L11.0577 5.33301ZM4.00033 13.333V2.66634H8.00033V5.99967C8.00033 6.17649 8.07056 6.34605 8.19559 6.47108C8.32061 6.5961 8.49018 6.66634 8.66699 6.66634H12.0003L12.0017 13.333H4.00033Z" fill="#8181A5"/>
<path d="M5.33301 7.99967H10.6663V9.33301H5.33301V7.99967ZM5.33301 10.6663H10.6663V11.9997H5.33301V10.6663ZM5.33301 5.33301H6.66634V6.66634H5.33301V5.33301Z" fill="#8181A5"/>
</svg>
