<svg width="16" height="16" viewBox="0 0 16 16" fill="none" xmlns="http://www.w3.org/2000/svg">
<path d="M13.2912 5.78732C13.2838 5.76598 13.2778 5.74532 13.2692 5.72465C13.2376 5.6523 13.1933 5.58615 13.1385 5.52932L9.1385 1.52932C9.08167 1.47451 9.01553 1.43026 8.94317 1.39865C8.92317 1.38932 8.90184 1.38398 8.8805 1.37665C8.82472 1.35767 8.76665 1.34623 8.70784 1.34265C8.69317 1.34132 8.6805 1.33398 8.6665 1.33398H3.99984C3.2645 1.33398 2.6665 1.93198 2.6665 2.66732V13.334C2.6665 14.0693 3.2645 14.6673 3.99984 14.6673H11.9998C12.7352 14.6673 13.3332 14.0693 13.3332 13.334V6.00065C13.3332 5.98665 13.3258 5.97398 13.3245 5.95932C13.3211 5.90076 13.3099 5.84292 13.2912 5.78732ZM11.0572 5.33398H9.33317V3.60998L11.0572 5.33398ZM3.99984 13.334V2.66732H7.99984V6.00065C7.99984 6.17746 8.07008 6.34703 8.1951 6.47206C8.32012 6.59708 8.48969 6.66732 8.6665 6.66732H11.9998L12.0012 13.334H3.99984Z" fill="#8181A5"/>
</svg>
