<svg width="13" height="13" viewBox="0 0 13 13" fill="none" xmlns="http://www.w3.org/2000/svg">
<path d="M12.0003 0H1.33366C1.15685 0 0.987279 0.0702379 0.862254 0.195262C0.73723 0.320286 0.666992 0.489856 0.666992 0.666667V2.39333C0.666992 2.742 0.808992 3.08467 1.05566 3.33133L4.66699 6.94267V12C4.66712 12.1136 4.69624 12.2253 4.75159 12.3244C4.80694 12.4236 4.88669 12.507 4.98329 12.5668C5.07988 12.6265 5.19013 12.6606 5.30359 12.6659C5.41706 12.6711 5.52997 12.6473 5.63166 12.5967L8.29833 11.2633C8.52433 11.15 8.66699 10.9193 8.66699 10.6667V6.94267L12.2783 3.33133C12.525 3.08467 12.667 2.742 12.667 2.39333V0.666667C12.667 0.489856 12.5968 0.320286 12.4717 0.195262C12.3467 0.0702379 12.1771 0 12.0003 0ZM7.52899 6.19533C7.46696 6.25714 7.41777 6.3306 7.38425 6.41149C7.35073 6.49238 7.33353 6.5791 7.33366 6.66667V10.2547L6.00033 10.9213V6.66667C6.00045 6.5791 5.98326 6.49238 5.94974 6.41149C5.91621 6.3306 5.86702 6.25714 5.80499 6.19533L2.00033 2.39333V1.33333H11.3343L11.3357 2.38867L7.52899 6.19533Z" fill="white"/>
</svg>
