<svg width="65" height="65" viewBox="0 0 65 65" fill="none" xmlns="http://www.w3.org/2000/svg">
<path d="M32.5 65C50.4493 65 65 50.4493 65 32.5C65 14.5507 50.4493 0 32.5 0C14.5507 0 0 14.5507 0 32.5C0 50.4493 14.5507 65 32.5 65Z" fill="#E5EBF0"/>
<path d="M38 20.75H19.25V37H38V20.75Z" stroke="#2a3b89" stroke-width="1.5" stroke-linecap="round" stroke-linejoin="round"/>
<path d="M38 27H43L46.75 30.75V37H38V27Z" stroke="#2a3b89" stroke-width="1.5" stroke-linecap="round" stroke-linejoin="round"/>
<path d="M24.875 43.25C26.6009 43.25 28 41.8509 28 40.125C28 38.3991 26.6009 37 24.875 37C23.1491 37 21.75 38.3991 21.75 40.125C21.75 41.8509 23.1491 43.25 24.875 43.25Z" stroke="#2a3b89" stroke-width="1.5" stroke-linecap="round" stroke-linejoin="round"/>
<path d="M41.125 43.25C42.8509 43.25 44.25 41.8509 44.25 40.125C44.25 38.3991 42.8509 37 41.125 37C39.3991 37 38 38.3991 38 40.125C38 41.8509 39.3991 43.25 41.125 43.25Z" stroke="#2a3b89" stroke-width="1.5" stroke-linecap="round" stroke-linejoin="round"/>
</svg>
