<svg width="22" height="22" viewBox="0 0 22 22" fill="none" xmlns="http://www.w3.org/2000/svg">
<path d="M11.0007 1.83331C5.94615 1.83331 1.83398 5.94548 1.83398 11C1.83398 16.0545 5.94615 20.1666 11.0007 20.1666C16.0552 20.1666 20.1673 16.0545 20.1673 11C20.1673 5.94548 16.0552 1.83331 11.0007 1.83331ZM11.0007 18.3333C6.95723 18.3333 3.66732 15.0434 3.66732 11C3.66732 6.95656 6.95723 3.66665 11.0007 3.66665C15.0441 3.66665 18.334 6.95656 18.334 11C18.334 15.0434 15.0441 18.3333 11.0007 18.3333Z" fill="#027AFF"/>
<path d="M10.084 10.0834H11.9173V15.5834H10.084V10.0834ZM10.084 6.41669H11.9173V8.25002H10.084V6.41669Z" fill="#027AFF"/>
</svg>
