<svg width="22" height="22" viewBox="0 0 22 22" fill="none" xmlns="http://www.w3.org/2000/svg">
<circle cx="11" cy="11" r="10.5" fill="white" stroke="#DBE3EB"/>
<path d="M11 3.5C6.8645 3.5 3.5 6.8645 3.5 11C3.5 15.1355 6.8645 18.5 11 18.5C15.1355 18.5 18.5 15.1355 18.5 11C18.5 6.8645 15.1355 3.5 11 3.5ZM11 17C7.69175 17 5 14.3082 5 11C5 7.69175 7.69175 5 11 5C14.3082 5 17 7.69175 17 11C17 14.3082 14.3082 17 11 17Z" fill="#495B6C"/>
<path d="M10.25 10.25H11.75V14.75H10.25V10.25ZM10.25 7.25H11.75V8.75H10.25V7.25Z" fill="#495B6C"/>
</svg>
