<svg width="18" height="18" viewBox="0 0 18 18" fill="none" xmlns="http://www.w3.org/2000/svg">
<path d="M1.50002 9H3.00002C2.99823 8.21153 3.15214 7.43047 3.45292 6.70162C3.7537 5.97277 4.19543 5.31048 4.75276 4.75275C5.29861 4.20509 5.94626 3.76942 6.65926 3.47025C8.12888 2.8597 9.77911 2.84866 11.2568 3.4395C11.2712 3.9251 11.4745 4.38592 11.8234 4.72401C12.1722 5.0621 12.6392 5.2508 13.125 5.25C14.1645 5.25 15 4.4145 15 3.375C15 2.3355 14.1645 1.5 13.125 1.5C12.6083 1.5 12.141 1.707 11.8028 2.04375C9.97952 1.314 7.88552 1.32525 6.07652 2.088C5.18487 2.46277 4.37478 3.00767 3.69152 3.69225C3.00663 4.37513 2.46146 5.18498 2.08652 6.0765C1.69742 7.00196 1.49798 7.99608 1.50002 9ZM14.5298 11.3415C14.229 12.0555 13.797 12.6975 13.2473 13.2473C12.6975 13.797 12.0555 14.229 11.3408 14.5298C9.87115 15.1403 8.22092 15.1513 6.74327 14.5605C6.72882 14.0749 6.52555 13.6141 6.17668 13.276C5.8278 12.9379 5.36083 12.7492 4.87502 12.75C3.83552 12.75 3.00002 13.5855 3.00002 14.625C3.00002 15.6645 3.83552 16.5 4.87502 16.5C5.39177 16.5 5.85901 16.293 6.19726 15.9563C7.08789 16.3159 8.0395 16.5005 9.00002 16.5C10.4749 16.5028 11.9178 16.07 13.1476 15.2558C14.3774 14.4417 15.3394 13.2824 15.9128 11.9235C16.3024 10.9982 16.5021 10.004 16.5 9H15C15.0019 9.80414 14.842 10.6004 14.5298 11.3415Z" fill="currentColor"/>
<path d="M9.00018 5.5965C7.12368 5.5965 5.59668 7.1235 5.59668 9C5.59668 10.8765 7.12368 12.4035 9.00018 12.4035C10.8767 12.4035 12.4037 10.8765 12.4037 9C12.4037 7.1235 10.8767 5.5965 9.00018 5.5965ZM9.00018 10.9035C7.95093 10.9035 7.09668 10.0492 7.09668 9C7.09668 7.95075 7.95093 7.0965 9.00018 7.0965C10.0494 7.0965 10.9037 7.95075 10.9037 9C10.9037 10.0492 10.0494 10.9035 9.00018 10.9035Z" fill="currentColor"/>
</svg>
