<svg width="18" height="18" viewBox="0 0 18 18" fill="none" xmlns="http://www.w3.org/2000/svg">
<path d="M3.16678 14.8338C3.51468 15.1822 3.928 15.4584 4.38299 15.6466C4.83798 15.8347 5.32566 15.9312 5.81803 15.9303C6.3105 15.9311 6.79829 15.8347 7.2534 15.6465C7.7085 15.4584 8.12196 15.1822 8.47003 14.8338L10.591 12.712L9.53053 11.6515L7.40953 13.7733C6.98688 14.194 6.41478 14.4303 5.8184 14.4303C5.22202 14.4303 4.64992 14.194 4.22728 13.7733C3.80615 13.3508 3.56968 12.7787 3.56968 12.1822C3.56968 11.5857 3.80615 11.0135 4.22728 10.591L6.34903 8.47003L5.28853 7.40953L3.16678 9.53053C2.46463 10.2344 2.07031 11.188 2.07031 12.1822C2.07031 13.1763 2.46463 14.1299 3.16678 14.8338ZM14.8338 8.47003C15.5356 7.76599 15.9296 6.81247 15.9296 5.8184C15.9296 4.82434 15.5356 3.87081 14.8338 3.16678C14.1299 2.46463 13.1763 2.07031 12.1822 2.07031C11.188 2.07031 10.2344 2.46463 9.53053 3.16678L7.40953 5.28853L8.47003 6.34903L10.591 4.22728C11.0137 3.80652 11.5858 3.5703 12.1822 3.5703C12.7785 3.5703 13.3506 3.80652 13.7733 4.22728C14.1944 4.64973 14.4309 5.2219 14.4309 5.8184C14.4309 6.4149 14.1944 6.98707 13.7733 7.40953L11.6515 9.53053L12.712 10.591L14.8338 8.47003Z" fill="#027AFF"/>
<path d="M6.34836 12.7121L5.28711 11.6516L11.6524 5.28711L12.7129 6.34836L6.34836 12.7121Z" fill="#027AFF"/>
</svg>
