<svg width="16" height="16" viewBox="0 0 16 16" fill="none" xmlns="http://www.w3.org/2000/svg">
<path d="M7.99984 1.3335C6.16184 1.3335 4.6665 2.82883 4.6665 4.66683V6.66683H3.99984C3.2645 6.66683 2.6665 7.26483 2.6665 8.00016V13.3335C2.6665 14.0688 3.2645 14.6668 3.99984 14.6668H11.9998C12.7352 14.6668 13.3332 14.0688 13.3332 13.3335V8.00016C13.3332 7.26483 12.7352 6.66683 11.9998 6.66683H11.3332V4.66683C11.3332 2.82883 9.83784 1.3335 7.99984 1.3335ZM11.9998 8.00016L12.0012 13.3335H3.99984V8.00016H11.9998ZM5.99984 6.66683V4.66683C5.99984 3.56416 6.89717 2.66683 7.99984 2.66683C9.1025 2.66683 9.99984 3.56416 9.99984 4.66683V6.66683H5.99984Z" fill="#8181A5"/>
</svg>
