<?xml version="1.0" encoding="UTF-8"?>
<!DOCTYPE svg PUBLIC "-//W3C//DTD SVG 1.1//EN" "http://www.w3.org/Graphics/SVG/1.1/DTD/svg11.dtd">
<svg xmlns="http://www.w3.org/2000/svg" version="1.1" xml:space="preserve" viewBox="0 0 785 275" style="shape-rendering:geometricPrecision; text-rendering:geometricPrecision; fill-rule:evenodd; clip-rule:evenodd" xmlns:xlink="http://www.w3.org/1999/xlink">
<g><path style="opacity:0.938" fill="#4d64ad" d="M 226.5,224.5 C 230.167,224.5 233.833,224.5 237.5,224.5C 247.833,224.5 258.167,224.5 268.5,224.5C 268.5,228.167 268.5,231.833 268.5,235.5C 233.796,235.667 199.13,236.834 164.5,239C 143.857,242.795 123.19,246.462 102.5,250C 79.6348,252.293 57.9682,248.293 37.5,238C 22.5935,228.418 12.0935,215.252 6,198.5C 3.11013,189.197 0.943464,179.863 -0.5,170.5C -0.5,157.5 -0.5,144.5 -0.5,131.5C 1.0068,119.481 4.84013,108.147 11,97.5C 17.1434,89.3449 25.3101,85.3449 35.5,85.5C 45.283,87.5904 55.1164,89.5904 65,91.5C 71.7623,92.0411 76.5956,89.3744 79.5,83.5C 78.8445,80.3412 77.1779,77.8412 74.5,76C 67.9171,72.806 61.2505,69.806 54.5,67C 44.6285,60.3575 42.1285,51.5242 47,40.5C 53.0124,33.4915 60.6791,30.1582 70,30.5C 75.5735,30.8676 81.0735,31.7009 86.5,33C 87.5156,33.5194 88.1822,34.3527 88.5,35.5C 87.8567,38.8836 87.0234,42.217 86,45.5C 77.206,40.7088 68.3727,40.5421 59.5,45C 56.5863,49.8735 57.5863,53.8735 62.5,57C 70.0016,59.9458 77.3349,63.2791 84.5,67C 93.6629,75.4705 94.8296,84.9705 88,95.5C 81.0573,100.659 73.2239,102.993 64.5,102.5C 55.7845,102.39 47.4511,100.557 39.5,97C 32.1424,95.7858 25.9758,97.9525 21,103.5C 15.0707,112.956 11.7374,123.289 11,134.5C 8.66076,156.048 10.9941,177.048 18,197.5C 28.5818,221.568 47.0818,235.068 73.5,238C 84.8307,239.956 96.1641,239.956 107.5,238C 125.444,234.347 143.444,231.014 161.5,228C 183.133,226.192 204.8,225.025 226.5,224.5 Z"/></g>
<g><path style="opacity:0.957" fill="#4d65ad" d="M 102.5,-0.5 C 104.5,-0.5 106.5,-0.5 108.5,-0.5C 108.333,19.1695 108.5,38.8362 109,58.5C 117.531,50.3034 125.698,41.8034 133.5,33C 138.533,32.1711 143.533,32.3377 148.5,33.5C 139.5,43.5 130.5,53.5 121.5,63.5C 132.995,73.8231 142.828,85.4897 151,98.5C 151.333,77.1667 151.667,55.8333 152,34.5C 165.063,30.6464 178.23,30.1464 191.5,33C 200.072,36.6163 204.905,43.1163 206,52.5C 206.5,68.4965 206.667,84.4965 206.5,100.5C 202.167,100.5 197.833,100.5 193.5,100.5C 193.667,86.1628 193.5,71.8295 193,57.5C 193.067,49.4266 189.233,44.5933 181.5,43C 175.812,42.4462 170.145,42.6129 164.5,43.5C 164.5,62.5 164.5,81.5 164.5,100.5C 154.81,100.832 145.144,100.498 135.5,99.5C 128.293,88.1041 119.46,78.1041 109,69.5C 108.5,79.828 108.334,90.1613 108.5,100.5C 104.167,100.5 99.8333,100.5 95.5,100.5C 95.3334,67.4983 95.5,34.4983 96,1.5C 98.277,0.882779 100.444,0.216112 102.5,-0.5 Z"/></g>
<g><path style="opacity:0.913" fill="#000000" d="M 178.5,106.5 C 179.833,106.5 181.167,106.5 182.5,106.5C 182.333,139.168 182.5,171.835 183,204.5C 185.168,209.346 189.001,211.846 194.5,212C 193.352,215.719 192.686,219.552 192.5,223.5C 184.747,224.413 177.913,222.413 172,217.5C 171,215.5 170,213.5 169,211.5C 167.534,177.207 167.034,142.874 167.5,108.5C 171.387,108.354 175.054,107.687 178.5,106.5 Z"/></g>
<g><path style="opacity:0.913" fill="#000000" d="M 354.5,106.5 C 355.833,106.5 357.167,106.5 358.5,106.5C 358.168,119.517 358.501,132.517 359.5,145.5C 373.288,140.545 386.288,142.045 398.5,150C 404.094,156.777 406.927,164.61 407,173.5C 407.5,189.83 407.667,206.163 407.5,222.5C 402.5,222.5 397.5,222.5 392.5,222.5C 392.916,204.458 392.416,186.458 391,168.5C 388.895,160.014 383.395,155.68 374.5,155.5C 369.226,156.136 364.059,157.136 359,158.5C 358.5,179.831 358.333,201.164 358.5,222.5C 353.5,222.5 348.5,222.5 343.5,222.5C 343.5,184.5 343.5,146.5 343.5,108.5C 347.387,108.354 351.054,107.687 354.5,106.5 Z"/></g>
<g><path style="opacity:0.919" fill="#000000" d="M 60.5,120.5 C 61.8333,120.5 63.1667,120.5 64.5,120.5C 64.5,128.5 64.5,136.5 64.5,144.5C 74.1667,144.5 83.8333,144.5 93.5,144.5C 93.5,148.5 93.5,152.5 93.5,156.5C 83.8333,156.5 74.1667,156.5 64.5,156.5C 64.0617,172.557 64.5617,188.557 66,204.5C 67.1667,207 69,208.833 71.5,210C 76.5,210.667 81.5,210.667 86.5,210C 88.8437,208.972 91.1771,208.306 93.5,208C 94.7308,212.091 95.7308,216.257 96.5,220.5C 86.6853,223.928 76.6853,224.761 66.5,223C 56.6518,219.865 51.1518,213.032 50,202.5C 49.5,175.835 49.3334,149.169 49.5,122.5C 53.3875,122.354 57.0542,121.687 60.5,120.5 Z"/></g>
<g><path style="opacity:0.922" fill="#000000" d="M 121.5,142.5 C 133.686,140.833 144.186,144.166 153,152.5C 159.515,163.239 162.015,174.906 160.5,187.5C 143.167,187.5 125.833,187.5 108.5,187.5C 109.644,203.141 118.144,211.141 134,211.5C 140.368,211.043 146.535,209.71 152.5,207.5C 154.456,211.548 155.456,215.882 155.5,220.5C 143.707,224.308 131.707,225.141 119.5,223C 101.133,216.629 92.1328,203.629 92.5,184C 92.0227,162.71 101.689,148.876 121.5,142.5 Z M 122.5,155.5 C 136.973,154.304 144.639,160.971 145.5,175.5C 133.167,175.5 120.833,175.5 108.5,175.5C 109.727,166.296 114.394,159.629 122.5,155.5 Z"/></g>
<g><path style="opacity:0.919" fill="#000000" d="M 237.5,224.5 C 233.833,224.5 230.167,224.5 226.5,224.5C 206.845,221.678 195.678,210.344 193,190.5C 190.442,172.486 196.275,157.986 210.5,147C 223.329,140.773 235.996,141.106 248.5,148C 254.819,153.804 258.653,160.97 260,169.5C 260.499,175.491 260.666,181.491 260.5,187.5C 243.167,187.5 225.833,187.5 208.5,187.5C 209.644,203.141 218.144,211.141 234,211.5C 240.368,211.043 246.535,209.71 252.5,207.5C 254.456,211.548 255.456,215.882 255.5,220.5C 249.453,222.182 243.453,223.515 237.5,224.5 Z M 222.5,155.5 C 236.973,154.304 244.639,160.971 245.5,175.5C 233.167,175.5 220.833,175.5 208.5,175.5C 209.727,166.296 214.394,159.629 222.5,155.5 Z"/></g>
<g><path style="opacity:0.951" fill="#000000" d="M 306.5,224.5 C 303.5,224.5 300.5,224.5 297.5,224.5C 292.532,223.565 287.698,221.898 283,219.5C 282.506,221.134 282.34,222.801 282.5,224.5C 282.5,228.5 282.5,232.5 282.5,236.5C 282.5,240.833 282.5,245.167 282.5,249.5C 277.833,249.5 273.167,249.5 268.5,249.5C 268.5,244.833 268.5,240.167 268.5,235.5C 268.5,231.833 268.5,228.167 268.5,224.5C 268.5,198.5 268.5,172.5 268.5,146.5C 282.015,142.905 295.682,142.072 309.5,144C 328.128,150.48 337.128,163.646 336.5,183.5C 337.788,205.828 327.788,219.495 306.5,224.5 Z M 285.5,156.5 C 314.398,153.905 325.898,166.905 320,195.5C 314.386,209.885 304.22,214.385 289.5,209C 287.254,207.961 285.087,206.794 283,205.5C 282.5,189.503 282.333,173.503 282.5,157.5C 283.791,157.737 284.791,157.404 285.5,156.5 Z M 297.5,224.5 C 292.5,224.5 287.5,224.5 282.5,224.5C 282.34,222.801 282.506,221.134 283,219.5C 287.698,221.898 292.532,223.565 297.5,224.5 Z"/></g>
<g><path style="opacity:0.932" fill="#000000" d="M 442.5,142.5 C 465.599,140.785 479.766,151.118 485,173.5C 486.843,185.393 485.176,196.727 480,207.5C 469.73,221.927 455.896,227.093 438.5,223C 423.197,217.584 414.697,206.751 413,190.5C 410.691,174.09 415.525,160.256 427.5,149C 432.367,146.226 437.367,144.059 442.5,142.5 Z M 445.5,155.5 C 457.942,154.774 465.776,160.44 469,172.5C 472.049,183.953 470.382,194.62 464,204.5C 454,213.833 444,213.833 434,204.5C 426.399,191.88 425.732,178.88 432,165.5C 435.416,160.558 439.916,157.224 445.5,155.5 Z"/></g>
<g><path style="opacity:0.939" fill="#000000" d="M 513.5,142.5 C 523.091,141.778 532.425,142.945 541.5,146C 549.132,150.763 553.632,157.596 555,166.5C 555.5,185.164 555.667,203.83 555.5,222.5C 550.833,222.5 546.167,222.5 541.5,222.5C 541.667,208.163 541.5,193.829 541,179.5C 541.52,171.728 539.354,164.894 534.5,159C 526.064,154.874 517.398,154.374 508.5,157.5C 507.5,179.156 507.167,200.823 507.5,222.5C 502.5,222.5 497.5,222.5 492.5,222.5C 492.5,197.167 492.5,171.833 492.5,146.5C 499.644,145.257 506.644,143.923 513.5,142.5 Z"/></g>
<g><path style="opacity:0.917" fill="#000000" d="M 591.5,142.5 C 611.766,140.201 624.266,148.868 629,168.5C 629.867,174.493 630.2,180.493 630,186.5C 612.577,187.492 595.077,187.825 577.5,187.5C 578.681,203.179 587.181,211.179 603,211.5C 609.368,211.043 615.535,209.71 621.5,207.5C 622.086,207.709 622.586,208.043 623,208.5C 623.5,211.5 624,214.5 624.5,217.5C 624.291,218.994 623.624,220.161 622.5,221C 606.143,226.694 590.476,225.361 575.5,217C 565.878,207.984 561.212,196.817 561.5,183.5C 561.599,162.211 571.599,148.544 591.5,142.5 Z M 591.5,155.5 C 605.953,154.283 613.619,160.949 614.5,175.5C 602.149,175.832 589.815,175.499 577.5,174.5C 579.169,165.848 583.835,159.515 591.5,155.5 Z"/></g>
<g><path style="opacity:0.909" fill="#000000" d="M 659.5,142.5 C 667.321,142.436 674.988,143.436 682.5,145.5C 681.534,148.157 681.034,150.824 681,153.5C 690.105,143.866 701.271,140.366 714.5,143C 719.191,143.772 723.858,144.605 728.5,145.5C 727.731,149.743 726.731,153.909 725.5,158C 722.545,157.581 719.545,156.914 716.5,156C 711.167,155.333 705.833,155.333 700.5,156C 693.989,157.882 691.822,162.049 694,168.5C 695.167,169.667 696.333,170.833 697.5,172C 705.833,175.667 714.167,179.333 722.5,183C 733.113,191.6 735.28,202.1 729,214.5C 722.872,220.769 715.372,223.936 706.5,224C 696.62,224.557 686.954,223.39 677.5,220.5C 677.522,216.389 678.189,212.389 679.5,208.5C 680.167,208.167 680.833,207.833 681.5,207.5C 690.164,211.112 699.164,212.279 708.5,211C 715.622,210.223 718.456,206.39 717,199.5C 715.5,196.667 713.333,194.5 710.5,193C 704.282,190.058 697.949,187.391 691.5,185C 679.953,179.36 675.953,170.36 679.5,158C 670.53,154.983 661.53,154.816 652.5,157.5C 652.5,179.167 652.5,200.833 652.5,222.5C 647.5,222.5 642.5,222.5 637.5,222.5C 637.167,197.491 637.5,172.491 638.5,147.5C 645.477,145.176 652.477,143.509 659.5,142.5 Z"/></g>
<g><path style="opacity:0.94" fill="#4d64ad" d="M 282.5,224.5 C 287.5,224.5 292.5,224.5 297.5,224.5C 300.5,224.5 303.5,224.5 306.5,224.5C 367.801,226.262 429.134,227.596 490.5,228.5C 537.49,226.954 584.49,226.454 631.5,227C 667.248,227.369 702.248,232.535 736.5,242.5C 735.018,246.294 733.351,249.961 731.5,253.5C 717.247,248.437 702.581,244.937 687.5,243C 666.589,240.212 645.589,238.545 624.5,238C 578.332,238.063 532.166,238.563 486,239.5C 418.169,238.319 350.335,237.319 282.5,236.5C 282.5,232.5 282.5,228.5 282.5,224.5 Z"/></g>
<g><path style="opacity:1" fill="#40529e" d="M 768.5,252.5 C 765.425,256.676 763.092,261.343 761.5,266.5C 762.243,267.182 762.909,267.849 763.5,268.5C 762.417,268.539 761.417,268.873 760.5,269.5C 751.464,264.275 742.131,259.775 732.5,256C 731.748,255.329 731.414,254.496 731.5,253.5C 733.351,249.961 735.018,246.294 736.5,242.5C 737.91,241.172 739.076,241.505 740,243.5C 741.587,242.273 742.921,242.606 744,244.5C 751.623,245.574 759.29,247.574 767,250.5C 768.03,250.836 768.53,251.503 768.5,252.5 Z"/></g>
<g><path style="opacity:0.973" fill="#cad1d0" d="M 768.5,252.5 C 773.761,254.816 779.095,257.15 784.5,259.5C 784.5,261.5 784.5,263.5 784.5,265.5C 783.024,268.583 781.357,271.583 779.5,274.5C 778.833,274.5 778.167,274.5 777.5,274.5C 772.897,272.537 768.23,270.537 763.5,268.5C 762.909,267.849 762.243,267.182 761.5,266.5C 763.092,261.343 765.425,256.676 768.5,252.5 Z"/></g>
<g><path style="opacity:0.784" fill="#eaa54b" d="M 769.5,259.5 C 770.386,258.224 771.386,258.224 772.5,259.5C 771.767,260.087 770.767,260.087 769.5,259.5 Z"/></g>
<g><path style="opacity:0.788" fill="#726faf" d="M 768.5,261.5 C 769.721,260.535 771.054,260.702 772.5,262C 771.072,262.579 769.738,262.412 768.5,261.5 Z"/></g>
<g><path style="opacity:1" fill="#d9cfad" d="M 775.5,258.5 C 777.954,260.06 780.62,261.06 783.5,261.5C 782.941,266.555 780.274,269.388 775.5,270C 774.5,267.909 775.167,266.243 777.5,265C 776.167,264 776.167,263 777.5,262C 774.81,261.665 774.143,260.499 775.5,258.5 Z"/></g>
</svg>
