<svg width="16" height="16" viewBox="0 0 16 16" fill="none" xmlns="http://www.w3.org/2000/svg">
<path d="M13.3335 2.6665H2.66683C1.9315 2.6665 1.3335 3.2645 1.3335 3.99984V11.9998C1.3335 12.7352 1.9315 13.3332 2.66683 13.3332H13.3335C14.0688 13.3332 14.6668 12.7352 14.6668 11.9998V3.99984C14.6668 3.2645 14.0688 2.6665 13.3335 2.6665ZM13.3335 3.99984V4.3405L8.00016 8.48917L2.66683 4.34117V3.99984H13.3335ZM2.66683 11.9998V6.02917L7.59083 9.85917C7.70757 9.95087 7.85172 10.0007 8.00016 10.0007C8.14861 10.0007 8.29276 9.95087 8.4095 9.85917L13.3335 6.02917L13.3348 11.9998H2.66683Z" fill="#8181A5"/>
</svg>
