<svg width="16" height="16" viewBox="0 0 16 16" fill="none" xmlns="http://www.w3.org/2000/svg">
<path d="M13.3334 2.66797H4.00008C3.26475 2.66797 2.66675 3.26597 2.66675 4.0013V7.33464H4.00008V5.33464L8.26675 8.53464C8.38219 8.62108 8.52253 8.6678 8.66675 8.6678C8.81097 8.6678 8.95131 8.62108 9.06675 8.53464L13.3334 5.33464V11.3346H8.00008V12.668H13.3334C14.0687 12.668 14.6667 12.07 14.6667 11.3346V4.0013C14.6667 3.26597 14.0687 2.66797 13.3334 2.66797ZM8.66675 7.16797L4.44408 4.0013H12.8894L8.66675 7.16797Z" fill="current"/>
<path d="M1.33325 8H5.99992V9.33333H1.33325V8ZM2.66659 10H6.66659V11.3333H2.66659V10ZM4.66659 12H7.33325V13.3333H4.66659V12Z" fill="current"/>
</svg>
