<svg width="16" height="16" viewBox="0 0 16 16" fill="none" xmlns="http://www.w3.org/2000/svg">
<path d="M13.3337 2.66797H4.00033C3.26499 2.66797 2.66699 3.26597 2.66699 4.0013V7.33464H4.00033V5.33464L8.26699 8.53464C8.38243 8.62108 8.52277 8.6678 8.66699 8.6678C8.81121 8.6678 8.95155 8.62108 9.06699 8.53464L13.3337 5.33464V11.3346H8.00033V12.668H13.3337C14.069 12.668 14.667 12.07 14.667 11.3346V4.0013C14.667 3.26597 14.069 2.66797 13.3337 2.66797ZM8.66699 7.16797L4.44433 4.0013H12.8897L8.66699 7.16797Z" fill="#8181A5"/>
<path d="M1.33301 8H5.99967V9.33333H1.33301V8ZM2.66634 10H6.66634V11.3333H2.66634V10ZM4.66634 12H7.33301V13.3333H4.66634V12Z" fill="#8181A5"/>
</svg>
