<svg width="39" height="26" viewBox="0 0 39 26" fill="none" xmlns="http://www.w3.org/2000/svg">
<rect x="0.5" y="0.5" width="37.0835" height="25" rx="4.5" fill="white" stroke="#DBE3EB"/>
<path fill-rule="evenodd" clip-rule="evenodd" d="M23.8147 20.3732C27.8434 20.3732 31.1093 17.0251 31.1093 12.8949C31.1093 8.76483 27.8434 5.41671 23.8147 5.41671C22.0091 5.41671 20.3567 6.08923 19.0829 7.20326C17.8091 6.08927 16.1568 5.41677 14.3513 5.41677C10.3225 5.41677 7.05664 8.76489 7.05664 12.895C7.05664 17.0251 10.3225 20.3732 14.3513 20.3732C16.1568 20.3732 17.8092 19.7007 19.083 18.5867C20.3568 19.7007 22.0091 20.3732 23.8147 20.3732Z" fill="#ED0006"/>
<path fill-rule="evenodd" clip-rule="evenodd" d="M19.083 18.5866C20.6515 17.215 21.646 15.1739 21.646 12.8948C21.646 10.6156 20.6515 8.57456 19.083 7.20292C20.3568 6.08898 22.0091 5.41653 23.8146 5.41653C27.8433 5.41653 31.1092 8.76465 31.1092 12.8948C31.1092 17.0249 27.8433 20.373 23.8146 20.373C22.0091 20.373 20.3568 19.7005 19.083 18.5866Z" fill="#F9A000"/>
<path fill-rule="evenodd" clip-rule="evenodd" d="M19.083 18.5862C20.6512 17.2146 21.6456 15.1737 21.6456 12.8948C21.6456 10.6159 20.6512 8.57508 19.0831 7.20344C17.5149 8.57508 16.5205 10.6159 16.5205 12.8948C16.5205 15.1738 17.5149 17.2146 19.083 18.5862Z" fill="#FF5E00"/>
</svg>
