<?xml version="1.0" encoding="iso-8859-1"?>
<!-- Uploaded to: SVG Repo, www.svgrepo.com, Generator: SVG Repo Mixer Tools -->
<!DOCTYPE svg PUBLIC "-//W3C//DTD SVG 1.1//EN" "http://www.w3.org/Graphics/SVG/1.1/DTD/svg11.dtd">
<svg fill="currentColor" height="18px" width="18px" version="1.1" id="Capa_1" xmlns="http://www.w3.org/2000/svg" xmlns:xlink="http://www.w3.org/1999/xlink" 
	 viewBox="0 0 296.427 296.427" xml:space="preserve">
<g>
	<path d="M94.5,215.048h27.583c5.247,0,9.5-4.253,9.5-9.5v-60.149c0-5.246-4.253-9.5-9.5-9.5H94.5c-5.247,0-9.5,4.254-9.5,9.5
		v60.149C85,210.795,89.253,215.048,94.5,215.048z"/>
	<path d="M164.422,215.048h27.583c5.247,0,9.5-4.253,9.5-9.5v-88.195c0-5.247-4.253-9.5-9.5-9.5h-27.583c-5.247,0-9.5,4.253-9.5,9.5
		v88.195C154.922,210.795,159.175,215.048,164.422,215.048z"/>
	<path d="M234.344,215.048h27.583c5.247,0,9.5-4.253,9.5-9.5v-19.195c0-5.247-4.253-9.5-9.5-9.5h-27.583c-5.247,0-9.5,4.253-9.5,9.5
		v19.195C224.844,210.795,229.097,215.048,234.344,215.048z"/>
	<path d="M281.427,242.574H53.432V15c0-8.284-6.716-15-15-15s-15,6.716-15,15v227.574H15c-8.284,0-15,6.716-15,15
		c0,8.284,6.716,15,15,15h8.432v8.853c0,8.284,6.716,15,15,15s15-6.716,15-15v-8.853h227.995c8.284,0,15-6.716,15-15
		C296.427,249.29,289.711,242.574,281.427,242.574z"/>
	<path d="M94.5,116.663h27.583c5.247,0,9.5-4.253,9.5-9.5V79.58c0-5.247-4.253-9.5-9.5-9.5H94.5c-5.247,0-9.5,4.253-9.5,9.5v27.583
		C85,112.41,89.253,116.663,94.5,116.663z"/>
	<path d="M164.422,88.163h27.583c5.247,0,9.5-4.253,9.5-9.5V51.08c0-5.247-4.253-9.5-9.5-9.5h-27.583c-5.247,0-9.5,4.253-9.5,9.5
		v27.583C154.922,83.91,159.175,88.163,164.422,88.163z"/>
	<path d="M234.344,159.191h27.583c5.247,0,9.5-4.253,9.5-9.5v-27.584c0-5.247-4.253-9.5-9.5-9.5h-27.583c-5.247,0-9.5,4.253-9.5,9.5
		v27.584C224.844,154.938,229.097,159.191,234.344,159.191z"/>
</g>
</svg>