<svg width="56" height="56" viewBox="0 0 56 56" fill="none" xmlns="http://www.w3.org/2000/svg">
<rect x="0.5" y="0.5" width="55" height="55" rx="4.5" fill="#F4F5F9" stroke="#ADB5BD" stroke-dasharray="3 3"/>
<path d="M20.4168 21.3646H32.7397V28H34.6356V21.3646C34.6356 20.319 33.7853 19.4688 32.7397 19.4688H20.4168C19.3713 19.4688 18.521 20.319 18.521 21.3646V32.7396C18.521 33.7851 19.3713 34.6354 20.4168 34.6354H28.0002V32.7396H20.4168V21.3646Z" fill="#8181A5"/>
<path d="M24.2085 27.0521L21.3647 30.8438H31.7918L28.0002 25.1562L25.1564 28.9479L24.2085 27.0521Z" fill="#8181A5"/>
<path d="M34.6356 29.8958H32.7397V32.7396H29.896V34.6354H32.7397V37.4792H34.6356V34.6354H37.4793V32.7396H34.6356V29.8958Z" fill="#8181A5"/>
</svg>
