<svg width="80" height="80" viewBox="0 0 80 80" fill="none" xmlns="http://www.w3.org/2000/svg">
<circle cx="40" cy="40" r="40" fill="#DDF7F1"/>
<g clip-path="url(#clip0_3554_35712)">
<path d="M39.9655 38.8882C38.091 38.8882 36.5637 37.8466 36.5637 36.5966C36.5637 35.3466 38.091 34.3049 39.9655 34.3049C41.0068 34.3049 41.9787 34.6521 42.6036 35.2077C43.0895 35.6243 43.7837 35.5549 44.2003 35.1382C44.6168 34.6521 44.5474 33.9577 44.1309 33.541C43.3672 32.8466 42.2564 32.3605 41.1457 32.1521V30.9021C41.1457 30.2771 40.6597 29.791 40.0349 29.791C39.4101 29.791 38.9241 30.2771 38.9241 30.9021V32.1521C36.3555 32.5688 34.4116 34.3743 34.4116 36.5966C34.4116 39.0966 36.9803 41.1105 40.1043 41.1105C41.9787 41.1105 43.5061 42.1521 43.5061 43.4021C43.5061 44.6521 41.9787 45.6938 40.1043 45.6938C39.063 45.6938 38.091 45.3466 37.4662 44.791C36.9803 44.3743 36.286 44.4438 35.8695 44.8605C35.453 45.3466 35.5224 46.041 35.9389 46.4577C36.7026 47.1521 37.8134 47.6382 38.9241 47.8466V49.0966C38.9241 49.7216 39.4101 50.2077 40.0349 50.2077C40.6597 50.2077 41.1457 49.7216 41.1457 49.0966V47.8466C43.7143 47.4299 45.6582 45.6243 45.6582 43.4021C45.6582 40.9021 43.0895 38.8882 39.9655 38.8882Z" fill="#3B892A"/>
<path fill-rule="evenodd" clip-rule="evenodd" d="M61.9546 28.2471C62.5002 28.429 62.795 29.0189 62.6132 29.5647L60.2528 36.648C60.1655 36.9101 59.9776 37.1268 59.7306 37.2503C59.4836 37.3739 59.1976 37.3942 58.9356 37.3069L51.8544 34.9457C51.3088 34.7638 51.0139 34.1739 51.1958 33.6281C51.3777 33.0824 51.9674 32.7874 52.513 32.9693L58.6063 35.001L60.6374 28.9059C60.8192 28.3601 61.409 28.0652 61.9546 28.2471Z" fill="#3B892A"/>
<path fill-rule="evenodd" clip-rule="evenodd" d="M20.9019 42.9912C21.1587 42.8879 21.4461 42.8912 21.7006 43.0002L28.5041 45.9169C29.0327 46.1435 29.2776 46.7559 29.051 47.2847C28.8245 47.8135 28.2123 48.0584 27.6837 47.8318L21.8409 45.327L19.3333 51.2395C19.1087 51.7691 18.4974 52.0163 17.9679 51.7916C17.4385 51.5669 17.1914 50.9555 17.416 50.4259L20.3318 43.5509C20.4399 43.2959 20.645 43.0945 20.9019 42.9912Z" fill="#3B892A"/>
<path fill-rule="evenodd" clip-rule="evenodd" d="M20.7076 34.2913C23.1267 26.0052 30.8193 20 39.896 20C48.9056 20 56.5966 26.0074 59.0151 34.2913C59.1763 34.8436 58.8594 35.422 58.3074 35.5832C57.7553 35.7445 57.1771 35.4276 57.0159 34.8753C54.8524 27.4648 47.9645 22.0833 39.896 22.0833C31.7558 22.0833 24.8696 27.467 22.7067 34.8753C22.5455 35.4276 21.9673 35.7445 21.4152 35.5832C20.8632 35.422 20.5463 34.8436 20.7076 34.2913Z" fill="#3B892A"/>
<path fill-rule="evenodd" clip-rule="evenodd" d="M21.5192 44.9142C22.0654 44.7337 22.6543 45.0303 22.8346 45.5766C25.1989 52.7372 31.8941 57.9172 39.8264 57.9172C47.7648 57.9172 54.5212 52.7323 56.8155 45.5848C56.9914 45.0371 57.5778 44.7356 58.1254 44.9115C58.673 45.0874 58.9743 45.674 58.7985 46.2217C56.2333 54.2132 48.6884 60.0005 39.8264 60.0005C30.9584 60.0005 23.4912 54.2082 20.857 46.23C20.6767 45.6837 20.9731 45.0946 21.5192 44.9142Z" fill="#3B892A"/>
</g>
<defs>
<clipPath id="clip0_3554_35712">
<rect width="45.3333" height="40" fill="white" transform="translate(17.3335 20)"/>
</clipPath>
</defs>
</svg>
