<svg width="60" height="60" viewBox="0 0 60 60" fill="none" xmlns="http://www.w3.org/2000/svg">
<path d="M41.25 23.5004L18.75 10.5254" stroke="currentColor" stroke-width="2" stroke-linecap="round" stroke-linejoin="round"/>
<path d="M52.5 40.0008V20.0007C52.4991 19.1239 52.2676 18.2628 51.8288 17.5036C51.3901 16.7445 50.7593 16.1141 50 15.6757L32.5 5.67573C31.7399 5.23689 30.8777 5.00586 30 5.00586C29.1223 5.00586 28.2601 5.23689 27.5 5.67573L10 15.6757C9.24066 16.1141 8.60995 16.7445 8.17115 17.5036C7.73236 18.2628 7.5009 19.1239 7.5 20.0007V40.0008C7.5009 40.8776 7.73236 41.7387 8.17115 42.4979C8.60995 43.257 9.24066 43.8874 10 44.3258L27.5 54.3258C28.2601 54.7646 29.1223 54.9956 30 54.9956C30.8777 54.9956 31.7399 54.7646 32.5 54.3258L50 44.3258C50.7593 43.8874 51.3901 43.257 51.8288 42.4979C52.2676 41.7387 52.4991 40.8776 52.5 40.0008Z" stroke="#currentColor" stroke-width="2" stroke-linecap="round" stroke-linejoin="round"/>
<path d="M8.1748 17.4004L29.9998 30.0254L51.8248 17.4004" stroke="#currentColor" stroke-width="2" stroke-linecap="round" stroke-linejoin="round"/>
<path d="M30 55.2V30" stroke="#currentColor" stroke-width="2" stroke-linecap="round" stroke-linejoin="round"/>
</svg>
