<svg width="38" height="26" viewBox="0 0 38 26" fill="none" xmlns="http://www.w3.org/2000/svg">
<rect x="0.5" y="0.5" width="37" height="25" rx="4.5" fill="white" stroke="#DBE3EB"/>
<path fill-rule="evenodd" clip-rule="evenodd" d="M10.7483 16.511H9.05935C8.94377 16.511 8.84547 16.5948 8.82745 16.7086L8.14435 21.0301C8.13077 21.1154 8.19696 21.1923 8.28364 21.1923H9.08996C9.20554 21.1923 9.30384 21.1085 9.32186 20.9944L9.5061 19.8289C9.52387 19.7147 9.62241 19.631 9.73775 19.631H10.2724C11.385 19.631 12.027 19.0938 12.1948 18.0293C12.2704 17.5636 12.198 17.1976 11.9794 16.9413C11.7394 16.66 11.3136 16.511 10.7483 16.511ZM10.9432 18.0894C10.8508 18.6941 10.3878 18.6941 9.94001 18.6941H9.68514L9.86394 17.5647C9.87456 17.4965 9.93383 17.4462 10.003 17.4462H10.1198C10.4248 17.4462 10.7125 17.4462 10.8612 17.6197C10.9498 17.7232 10.977 17.8769 10.9432 18.0894ZM15.797 18.07H14.9882C14.9193 18.07 14.8597 18.1203 14.8491 18.1886L14.8133 18.4143L14.7568 18.3325C14.5817 18.0789 14.1913 17.9942 13.8016 17.9942C12.9077 17.9942 12.1444 18.6696 11.9957 19.6171C11.9185 20.0897 12.0283 20.5416 12.297 20.8568C12.5435 21.1466 12.8962 21.2673 13.3157 21.2673C14.0359 21.2673 14.4353 20.8053 14.4353 20.8053L14.3992 21.0296C14.3856 21.1153 14.4517 21.1922 14.5379 21.1922H15.2665C15.3824 21.1922 15.4801 21.1084 15.4984 20.9943L15.9355 18.2322C15.9493 18.1472 15.8834 18.07 15.797 18.07ZM14.6696 19.6407C14.5915 20.1018 14.2248 20.4113 13.7571 20.4113C13.5222 20.4113 13.3345 20.3361 13.214 20.1937C13.0945 20.0523 13.049 19.8509 13.087 19.6267C13.16 19.1695 13.5329 18.85 13.9935 18.85C14.2231 18.85 14.4098 18.9261 14.5328 19.0697C14.656 19.2149 14.7049 19.4174 14.6696 19.6407ZM19.2918 18.0699H20.1046C20.2184 18.0699 20.2848 18.1973 20.2201 18.2904L17.5169 22.1838C17.4731 22.2469 17.401 22.2844 17.324 22.2844H16.5122C16.3979 22.2844 16.3312 22.156 16.3973 22.0626L17.2391 20.8771L16.3439 18.2557C16.3129 18.1645 16.3803 18.0699 16.4775 18.0699H17.2761C17.3799 18.0699 17.4714 18.1379 17.5013 18.2369L17.9764 19.8202L19.0975 18.1726C19.1414 18.1083 19.2143 18.0699 19.2918 18.0699Z" fill="#253B80"/>
<path fill-rule="evenodd" clip-rule="evenodd" d="M28.1047 21.0301L28.7978 16.6296C28.8085 16.5613 28.8678 16.511 28.9367 16.5107H29.717C29.8032 16.5107 29.8694 16.5878 29.8558 16.6731L29.1722 20.9944C29.1544 21.1084 29.0561 21.1922 28.9403 21.1922H28.2434C28.1573 21.1922 28.0911 21.1154 28.1047 21.0301ZM22.7962 16.511H21.107C20.9916 16.511 20.8934 16.5948 20.8753 16.7086L20.1922 21.0301C20.1786 21.1154 20.2448 21.1922 20.3311 21.1922H21.1978C21.2784 21.1922 21.3473 21.1336 21.3599 21.0538L21.5537 19.8288C21.5715 19.7147 21.67 19.631 21.7854 19.631H22.3198C23.4326 19.631 24.0745 19.0938 24.2424 18.0292C24.3182 17.5635 24.2454 17.1976 24.0268 16.9412C23.787 16.6599 23.3615 16.511 22.7962 16.511ZM22.9911 18.0893C22.899 18.6941 22.4359 18.6941 21.9879 18.6941H21.7332L21.9123 17.5647C21.923 17.4965 21.9817 17.4462 22.0511 17.4462H22.1679C22.4727 17.4462 22.7607 17.4462 22.9092 17.6196C22.9979 17.7232 23.0249 17.8769 22.9911 18.0893ZM27.8445 18.0699H27.0362C26.9667 18.0699 26.9078 18.1202 26.8974 18.1885L26.8616 18.4142L26.8048 18.3325C26.6297 18.0788 26.2395 17.9941 25.8498 17.9941C24.956 17.9941 24.1929 18.6695 24.0442 19.6171C23.9672 20.0896 24.0766 20.5416 24.3452 20.8567C24.5922 21.1465 24.9444 21.2673 25.364 21.2673C26.0841 21.2673 26.4834 20.8052 26.4834 20.8052L26.4474 21.0295C26.4338 21.1153 26.5 21.1921 26.5867 21.1921H27.315C27.4303 21.1921 27.5286 21.1083 27.5466 20.9943L27.984 18.2321C27.9974 18.1472 27.9312 18.0699 27.8445 18.0699ZM26.7171 19.6407C26.6395 20.1017 26.2723 20.4112 25.8046 20.4112C25.5702 20.4112 25.382 20.3361 25.2615 20.1936C25.1419 20.0522 25.097 19.8508 25.1346 19.6266C25.2079 19.1695 25.5803 18.85 26.0409 18.85C26.2706 18.85 26.4573 18.926 26.5803 19.0697C26.704 19.2149 26.7529 19.4174 26.7171 19.6407Z" fill="#179BD7"/>
<path d="M16.9976 14.965L17.2053 13.6491L16.7428 13.6383H14.5342L16.069 3.92752C16.0737 3.8982 16.0893 3.87086 16.1119 3.85146C16.1345 3.83205 16.1636 3.82135 16.1937 3.82135H19.9177C21.1541 3.82135 22.0072 4.07806 22.4527 4.58473C22.6615 4.82242 22.7945 5.0708 22.8589 5.34414C22.9263 5.63097 22.9276 5.97363 22.8616 6.39157L22.8568 6.42207V6.68986L23.0657 6.80793C23.2416 6.90101 23.3813 7.00758 23.4885 7.1296C23.6672 7.33282 23.7828 7.59111 23.8316 7.89733C23.882 8.21227 23.8653 8.58702 23.7828 9.0113C23.6875 9.49936 23.5334 9.92443 23.3254 10.2723C23.134 10.5927 22.8902 10.8585 22.6008 11.0646C22.3245 11.2602 21.9961 11.4088 21.6249 11.5039C21.2652 11.5973 20.8551 11.6445 20.4053 11.6445H20.1155C19.9082 11.6445 19.7069 11.719 19.5489 11.8525C19.3905 11.9888 19.2856 12.1749 19.2535 12.3786L19.2317 12.4971L18.8648 14.8164L18.8481 14.9016C18.8438 14.9286 18.8362 14.9421 18.8252 14.9512C18.8152 14.9594 18.8009 14.965 18.787 14.965H16.9976Z" fill="#253B80"/>
<path d="M23.2649 6.45309C23.2538 6.524 23.2412 6.59649 23.2269 6.67097C22.7357 9.18692 21.0555 10.0561 18.9096 10.0561H17.817C17.5546 10.0561 17.3335 10.2462 17.2926 10.5045L16.7331 14.0445L16.5747 15.0479C16.5481 15.2175 16.6792 15.3704 16.8506 15.3704H18.7886C19.0181 15.3704 19.2129 15.2041 19.249 14.9783L19.2681 14.88L19.633 12.5696L19.6565 12.4429C19.6921 12.2163 19.8874 12.0499 20.1169 12.0499H20.4067C22.2842 12.0499 23.7541 11.2893 24.1837 9.08828C24.3631 8.16881 24.2702 7.40108 23.7953 6.86112C23.6517 6.6983 23.4734 6.56322 23.2649 6.45309Z" fill="#179BD7"/>
<path d="M22.7506 6.24884C22.6757 6.22705 22.5982 6.20724 22.5187 6.18942C22.439 6.17199 22.3571 6.15654 22.273 6.14307C21.9784 6.09553 21.6557 6.07295 21.3098 6.07295H18.391C18.3191 6.07295 18.2509 6.08919 18.1897 6.11851C18.0551 6.18308 17.9551 6.31025 17.9309 6.46593L17.3098 10.3902L17.292 10.5047C17.3329 10.2464 17.5541 10.0562 17.8165 10.0562H18.909C21.055 10.0562 22.7352 9.18669 23.2263 6.67114C23.2409 6.59666 23.2533 6.52417 23.2643 6.45326C23.1401 6.3875 23.0055 6.33124 22.8606 6.2833C22.8249 6.27142 22.788 6.25994 22.7506 6.24884Z" fill="#222D65"/>
<path d="M17.9312 6.46585C17.9554 6.31016 18.0555 6.183 18.19 6.11882C18.2516 6.0895 18.3195 6.07326 18.3913 6.07326H21.3103C21.6561 6.07326 21.9788 6.09584 22.2733 6.14338C22.3576 6.15685 22.4394 6.1723 22.5192 6.18972C22.5986 6.20756 22.676 6.22737 22.7511 6.24915C22.7883 6.26024 22.8252 6.27173 22.8613 6.28322C23.0063 6.33115 23.1409 6.3878 23.2651 6.45317C23.4113 5.5234 23.264 4.89036 22.7602 4.31713C22.2048 3.68607 21.2023 3.41589 19.9195 3.41589H16.1954C15.9333 3.41589 15.7099 3.60604 15.6693 3.86473L14.1182 13.6754C14.0876 13.8695 14.2377 14.0446 14.4338 14.0446H16.733L17.3102 10.3901L17.9312 6.46585Z" fill="#253B80"/>
</svg>
