<svg width="44" height="53" viewBox="0 0 44 53" fill="none" xmlns="http://www.w3.org/2000/svg">
<g clip-path="url(#clip0_7888_68711)">
<path d="M5.95998 -0.000300326C2.95011 -0.000300326 0.5 2.45772 0.5 5.47503V47.524C0.5 50.5413 2.95011 52.9993 5.95998 52.9993H38.0331C41.0429 52.9993 43.493 50.5414 43.493 47.524V12.948C43.493 12.948 43.5789 11.9356 43.1405 10.9504C42.7296 10.0269 42.0598 9.38409 42.0598 9.38409C42.0581 9.38182 42.0564 9.37956 42.0548 9.3773L34.0973 1.55254C34.093 1.54807 34.0885 1.54365 34.0841 1.53928C34.0841 1.53928 33.4047 0.890737 32.3976 0.457488C31.2118 -0.052641 29.9895 0.0012098 29.9895 0.0012098L30.0077 -0.000488281L5.95998 -0.000300326Z" fill="#FF2116"/>
<path d="M5.95986 1.79834H30.0076C30.0137 1.7984 30.0198 1.7984 30.0258 1.79834C30.0258 1.79834 30.9874 1.80768 31.6908 2.11027C32.3678 2.4015 32.8478 2.84234 32.851 2.8453C32.851 2.84531 32.8543 2.84869 32.8543 2.84869L40.7919 10.6552C40.7919 10.6552 41.2701 11.1614 41.5019 11.6822C41.689 12.1027 41.7005 12.8719 41.7005 12.8719C41.6997 12.8846 41.6991 12.8973 41.6988 12.91V47.5241C41.6988 49.5765 40.0801 51.2009 38.0329 51.2009H5.95986C3.91266 51.2009 2.29395 49.5766 2.29395 47.5241V5.47518C2.29395 3.42274 3.91266 1.79834 5.95986 1.79834Z" fill="#F5F5F5"/>
<path d="M11.2353 31.5555C10.0009 30.318 11.3364 28.6176 14.9608 26.8119L17.2413 25.6757L18.1297 23.7269C18.6184 22.6551 19.3476 20.9063 19.7504 19.8406L20.4826 17.903L19.978 16.4691C19.3576 14.706 19.1363 12.0565 19.53 11.1038C20.0632 9.81328 21.8097 9.94569 22.5011 11.329C23.0411 12.4094 22.9859 14.3659 22.3458 16.8334L21.821 18.8562L22.2833 19.6429C22.5375 20.0756 23.2801 21.1029 23.9335 21.9259L25.1616 23.4573L26.6897 23.2574C31.5444 22.6223 33.2072 23.7017 33.2072 25.2493C33.2072 27.2025 29.3952 27.3637 26.1942 25.1098C25.4739 24.6026 24.9793 24.0989 24.9793 24.0989C24.9793 24.0989 22.9739 24.5081 21.9866 24.7749C20.9674 25.0503 20.459 25.2228 18.9661 25.728C18.9661 25.728 18.4423 26.4905 18.101 27.0449C16.8311 29.1074 15.3484 30.8167 14.2895 31.4388C13.1039 32.1354 11.861 32.1828 11.2353 31.5555ZM13.1724 30.8617C13.8663 30.4318 15.2707 28.7666 16.2428 27.2211L16.6364 26.5954L14.8442 27.4988C12.0762 28.894 10.8099 30.209 11.4684 31.0044C11.8383 31.4512 12.2808 31.4141 13.1724 30.8617ZM31.1522 25.8022C31.8309 25.3257 31.7324 24.3654 30.9651 23.9782C30.368 23.6768 29.8867 23.6149 28.3356 23.6379C27.3823 23.703 25.8495 23.8956 25.5898 23.9542C25.5898 23.9542 26.4318 24.5376 26.8057 24.7521C27.3033 25.037 28.5127 25.566 29.3957 25.837C30.2667 26.1042 30.7705 26.0761 31.1522 25.8022ZM23.9228 22.7899C23.5121 22.3571 22.8137 21.4537 22.3708 20.7824C21.7916 20.0209 21.5011 19.4836 21.5011 19.4836C21.5011 19.4836 21.0778 20.8487 20.7305 21.6702L19.6469 24.3553L19.3327 24.9643C19.3327 24.9643 21.0029 24.4153 21.8527 24.1928C22.7528 23.9571 24.5795 23.597 24.5795 23.597L23.9228 22.7899ZM21.593 13.4235C21.6978 12.5421 21.7422 11.6621 21.4598 11.2183C20.6763 10.3596 19.7306 11.0757 19.8908 13.1171C19.9447 13.8038 20.1149 14.9778 20.3424 15.7014L20.7561 17.0169L21.0472 16.0261C21.2073 15.4811 21.453 14.3099 21.593 13.4235Z" fill="#FF2116"/>
<path d="M13.334 37.2859H15.338C15.9784 37.2859 16.4982 37.3473 16.8974 37.4701C17.2966 37.589 17.6326 37.8565 17.9053 38.2726C18.1781 38.6847 18.3145 39.182 18.3145 39.7645C18.3145 40.2995 18.2038 40.7592 17.9824 41.1435C17.7611 41.5279 17.4626 41.8053 17.0871 41.9757C16.7156 42.1461 16.1424 42.2313 15.3677 42.2313H14.674V45.3995H13.334V37.2859ZM14.674 38.3261V41.1554H15.338C15.9309 41.1554 16.3401 41.0445 16.5654 40.8226C16.7946 40.6007 16.9093 40.2401 16.9093 39.7408C16.9093 39.3683 16.8341 39.0671 16.6839 38.8373C16.5337 38.6035 16.3677 38.4608 16.1859 38.4093C16.008 38.3538 15.7254 38.326 15.338 38.326L14.674 38.3261ZM19.3402 37.2859H21.1604C22.0419 37.2859 22.7455 37.4424 23.2712 37.7555C23.8009 38.0685 24.2001 38.5341 24.4689 39.1523C24.7416 39.7705 24.878 40.456 24.878 41.2089C24.878 42.0015 24.7555 42.7088 24.5104 43.3309C24.2693 43.9491 23.8977 44.4484 23.3957 44.8288C22.8977 45.2092 22.1862 45.3995 21.2612 45.3995H19.3402V37.2859ZM20.6802 38.3617V44.3236H21.2375C22.0162 44.3236 22.5815 44.0541 22.9333 43.5152C23.285 42.9723 23.4609 42.2491 23.4609 41.3456C23.4609 39.3564 22.7198 38.3617 21.2375 38.3617H20.6802ZM26.1646 37.2859H30.6589V38.3617H27.5046V40.7869H30.0304V41.8628H27.5046V45.3995H26.1646V37.2859Z" fill="#2C2C2C"/>
</g>
<defs>
<clipPath id="clip0_7888_68711">
<rect width="43" height="53" fill="white" transform="translate(0.5)"/>
</clipPath>
</defs>
</svg>
