<svg width="16" height="16" viewBox="0 0 16 16" fill="none" xmlns="http://www.w3.org/2000/svg">
<path d="M12.6663 4.66732H11.9997V1.33398H3.99967V4.66732H3.33301C2.23034 4.66732 1.33301 5.56465 1.33301 6.66732V11.334C1.33301 12.0693 1.93101 12.6673 2.66634 12.6673H3.99967V14.6673H11.9997V12.6673H13.333C14.0683 12.6673 14.6663 12.0693 14.6663 11.334V6.66732C14.6663 5.56465 13.769 4.66732 12.6663 4.66732ZM5.33301 2.66732H10.6663V4.66732H5.33301V2.66732ZM10.6663 13.334H5.33301V10.6673H10.6663V13.334ZM13.333 11.334H11.9997V9.33398H3.99967V11.334H2.66634V6.66732C2.66634 6.29998 2.96567 6.00065 3.33301 6.00065H12.6663C13.0343 6.00065 13.333 6.29998 13.333 6.66732V11.334Z" fill="#8181A5"/>
<path d="M9.33301 6.66602H11.9997V7.99935H9.33301V6.66602Z" fill="#8181A5"/>
</svg>
