<svg width="18" height="18" viewBox="0 0 18 18" fill="none" xmlns="http://www.w3.org/2000/svg">
<path d="M15.7499 6.74999H14.6849L11.9009 1.87799L10.5989 2.62199L12.9577 6.74999H5.04217L7.40167 2.62199L6.09892 1.87799L3.31492 6.74999H2.24992C2.13464 6.75012 2.02094 6.77679 1.91764 6.82794C1.81433 6.87909 1.72419 6.95334 1.6542 7.04494C1.58421 7.13654 1.53626 7.24303 1.51406 7.35615C1.49185 7.46927 1.496 7.58598 1.52617 7.69724L3.62542 15.3952C3.71269 15.7123 3.9015 15.9921 4.16295 16.1916C4.42439 16.3912 4.74404 16.4995 5.07292 16.5H12.9277C13.6012 16.5 14.1967 16.0462 14.3752 15.3937L16.4744 7.69649C16.505 7.58519 16.5093 7.46834 16.4872 7.35507C16.4651 7.2418 16.4171 7.13517 16.3469 7.04353C16.2768 6.95189 16.1864 6.87771 16.0828 6.82678C15.9793 6.77586 15.8653 6.74958 15.7499 6.74999ZM12.9269 15V15.75V15H5.07292L3.23242 8.24999H14.7674L12.9269 15Z" fill="currentColor"/>
<path d="M6.75 9.75H8.25V13.5H6.75V9.75ZM9.75 9.75H11.25V13.5H9.75V9.75Z" fill="currentColor"/>
</svg>
