<svg width="47" height="48" viewBox="0 0 47 48" fill="none" xmlns="http://www.w3.org/2000/svg">
<circle cx="23.5" cy="24" r="23.5" fill="#DBF7EF"/>
<g clip-path="url(#clip0_2308_22124)">
<path d="M32.4357 13.2559H29.3628C28.9514 13.2559 28.6128 13.5944 28.6128 14.0059C28.6128 14.4173 28.9514 14.7559 29.3628 14.7559H32.4357C32.9757 14.7559 33.4128 15.193 33.4128 15.733V18.8059C33.4128 19.2173 33.7514 19.5559 34.1628 19.5559C34.5742 19.5559 34.9128 19.2173 34.9128 18.8059V15.733C34.9128 14.3659 33.8028 13.2559 32.4357 13.2559Z" fill="#6CB155"/>
<path d="M13.5059 19.5559C13.9173 19.5559 14.2559 19.2173 14.2559 18.8059V15.733C14.2559 15.193 14.693 14.7559 15.233 14.7559H18.3059C18.7173 14.7559 19.0559 14.4173 19.0559 14.0059C19.0559 13.5944 18.7173 13.2559 18.3059 13.2559H15.233C13.8659 13.2559 12.7559 14.3659 12.7559 15.733V18.8059C12.7559 19.2173 13.0944 19.5559 13.5059 19.5559Z" fill="#6CB155"/>
<path d="M18.3059 33.9133H15.233C14.693 33.9133 14.2559 33.4761 14.2559 32.9361V29.8633C14.2559 29.4519 13.9173 29.1133 13.5059 29.1133C13.0944 29.1133 12.7559 29.4519 12.7559 29.8633V32.9361C12.7559 34.3033 13.8659 35.4133 15.233 35.4133H18.3059C18.7173 35.4133 19.0559 35.0747 19.0559 34.6633C19.0559 34.2519 18.7173 33.9133 18.3059 33.9133Z" fill="#6CB155"/>
<path d="M34.1628 29.1133C33.7514 29.1133 33.4128 29.4519 33.4128 29.8633V32.9361C33.4128 33.4761 32.9757 33.9133 32.4357 33.9133H29.3628C28.9514 33.9133 28.6128 34.2519 28.6128 34.6633C28.6128 35.0747 28.9514 35.4133 29.3628 35.4133H32.4357C33.8028 35.4133 34.9128 34.3033 34.9128 32.9361V29.8633C34.9128 29.4519 34.5742 29.1133 34.1628 29.1133Z" fill="#6CB155"/>
<path d="M27.5029 18.1836H29.5429C29.7615 18.1836 29.9415 18.3636 29.9415 18.5822V20.6222C29.9415 21.0336 30.2801 21.3722 30.6915 21.3722C31.1029 21.3722 31.4415 21.0336 31.4415 20.6222V18.5822C31.4415 17.5365 30.5886 16.6836 29.5429 16.6836H27.5029C27.0915 16.6836 26.7529 17.0222 26.7529 17.4336C26.7529 17.845 27.0915 18.1836 27.5029 18.1836Z" fill="#6CB155"/>
<path d="M16.2271 18.5822V20.6222C16.2271 21.0336 16.5656 21.3722 16.9771 21.3722C17.3885 21.3722 17.7271 21.0336 17.7271 20.6222V18.5822C17.7271 18.3636 17.9071 18.1836 18.1256 18.1836H20.1656C20.5771 18.1836 20.9156 17.845 20.9156 17.4336C20.9156 17.0222 20.5771 16.6836 20.1656 16.6836H18.1256C17.0799 16.6836 16.2271 17.5365 16.2271 18.5822Z" fill="#6CB155"/>
<path d="M20.1656 30.3995H18.1256C17.9071 30.3995 17.7271 30.2195 17.7271 30.0009V27.9609C17.7271 27.5495 17.3885 27.2109 16.9771 27.2109C16.5656 27.2109 16.2271 27.5495 16.2271 27.9609V30.0009C16.2271 31.0467 17.0799 31.8995 18.1256 31.8995H20.1656C20.5771 31.8995 20.9156 31.5609 20.9156 31.1495C20.9156 30.7381 20.5771 30.3995 20.1656 30.3995Z" fill="#6CB155"/>
<path d="M31.4415 30.0009V27.9609C31.4415 27.5495 31.1029 27.2109 30.6915 27.2109C30.2801 27.2109 29.9415 27.5495 29.9415 27.9609V30.0009C29.9415 30.2195 29.7615 30.3995 29.5429 30.3995H27.5029C27.0915 30.3995 26.7529 30.7381 26.7529 31.1495C26.7529 31.5609 27.0915 31.8995 27.5029 31.8995H29.5429C30.5886 31.8995 31.4415 31.0467 31.4415 30.0009Z" fill="#6CB155"/>
<path d="M12.7988 24.334C12.7988 24.7454 13.1374 25.084 13.5488 25.084H34.1203C34.5317 25.084 34.8703 24.7454 34.8703 24.334C34.8703 23.9226 34.5317 23.584 34.1203 23.584H13.5488C13.1374 23.584 12.7988 23.9226 12.7988 24.334Z" fill="#6CB155"/>
</g>
<defs>
<clipPath id="clip0_2308_22124">
<rect width="22.1572" height="22.1572" fill="white" transform="translate(12.7559 13.2559)"/>
</clipPath>
</defs>
</svg>
