<svg width="14" height="14" viewBox="0 0 16 16" fill="none" xmlns="http://www.w3.org/2000/svg">
<path d="M8 0C3.58788 0 0 3.58788 0 8C0 12.4121 3.58788 16 8 16C12.4121 16 16 12.4121 16 8C16 3.58788 12.4121 0 8 0ZM8 14.5455C4.39273 14.5455 1.45455 11.6073 1.45455 8C1.45455 4.39273 4.39273 1.45455 8 1.45455C11.6073 1.45455 14.5455 4.39273 14.5455 8C14.5455 11.6073 11.6073 14.5455 8 14.5455Z" fill="currentColor"/>
<path d="M7.74797 10.5794C7.24373 10.5794 6.8316 11.0013 6.8316 11.5055C6.8316 12 7.22918 12.4315 7.74797 12.4315C8.26676 12.4315 8.67403 12 8.67403 11.5055C8.67403 11.0013 8.25221 10.5794 7.74797 10.5794Z" fill="currentColor"/>
<path d="M7.90296 3.56363C6.27871 3.56363 5.53204 4.52848 5.53204 5.17817C5.53204 5.64847 5.92962 5.86665 6.25447 5.86665C6.90417 5.86665 6.6375 4.9406 7.86902 4.9406C8.47023 4.9406 8.95023 5.20726 8.95023 5.75999C8.95023 6.40968 8.27629 6.78302 7.87871 7.12241C7.52962 7.42301 7.07386 7.91756 7.07386 8.95028C7.07386 9.57574 7.24356 9.75513 7.73811 9.75513C8.32962 9.75513 8.44599 9.48847 8.44599 9.26059C8.44599 8.63513 8.45568 8.2715 9.11993 7.75756C9.44478 7.50544 10.4678 6.68605 10.4678 5.55635C10.4678 4.42666 9.44478 3.56363 7.90296 3.56363Z" fill="currentColor"/>
</svg>
