<svg width="65" height="65" viewBox="0 0 65 65" fill="none" xmlns="http://www.w3.org/2000/svg">
<path d="M32.5 65C50.4493 65 65 50.4493 65 32.5C65 14.5507 50.4493 0 32.5 0C14.5507 0 0 14.5507 0 32.5C0 50.4493 14.5507 65 32.5 65Z" fill="#EF6355" fill-opacity="0.17"/>
<path d="M41.75 22H24.25C22.8693 22 21.75 23.1193 21.75 24.5V42C21.75 43.3807 22.8693 44.5 24.25 44.5H41.75C43.1307 44.5 44.25 43.3807 44.25 42V24.5C44.25 23.1193 43.1307 22 41.75 22Z" stroke="#EF6355" stroke-width="1.5" stroke-linecap="round" stroke-linejoin="round"/>
<path d="M38 19.5V24.5" stroke="#EF6355" stroke-width="1.5" stroke-linecap="round" stroke-linejoin="round"/>
<path d="M28 19.5V24.5" stroke="#EF6355" stroke-width="1.5" stroke-linecap="round" stroke-linejoin="round"/>
<path d="M21.75 29.5H44.25" stroke="#EF6355" stroke-width="1.5" stroke-linecap="round" stroke-linejoin="round"/>
</svg>
