<svg width="14" height="10" viewBox="0 0 14 10" fill="none" xmlns="http://www.w3.org/2000/svg">
<path d="M5.66659 4.33186H3.73392L3.73459 4.32586C3.82163 3.89962 3.99201 3.49476 4.23592 3.13453C4.59889 2.59974 5.10802 2.18063 5.70259 1.92719C5.90392 1.84186 6.11392 1.77653 6.32792 1.73319C6.77185 1.64319 7.22932 1.64319 7.67325 1.73319C8.31123 1.86392 8.89665 2.17947 9.35659 2.64053L10.3006 1.69919C9.87513 1.27362 9.37175 0.933887 8.81792 0.698526C8.53546 0.578945 8.24179 0.487828 7.94125 0.426526C7.32114 0.300533 6.68203 0.300533 6.06192 0.426526C5.76115 0.488082 5.46726 0.579421 5.18459 0.699192C4.3516 1.05259 3.63854 1.63925 3.13125 2.38853C2.78984 2.89376 2.55109 3.46119 2.42859 4.05853C2.40992 4.14853 2.39992 4.24053 2.38659 4.33186H0.333252L2.99992 6.99853L5.66659 4.33186ZM8.33325 5.66519H10.2659L10.2653 5.67053C10.0911 6.52503 9.5874 7.27658 8.86325 7.76253C8.50313 8.00664 8.09823 8.17703 7.67192 8.26386C7.22822 8.35386 6.77096 8.35386 6.32725 8.26386C5.90101 8.17681 5.49615 8.00644 5.13592 7.76253C4.959 7.64286 4.79382 7.50669 4.64259 7.35586L3.69992 8.29853C4.12559 8.72398 4.6292 9.0635 5.18325 9.29853C5.46592 9.41853 5.76125 9.50986 6.05992 9.57053C6.6798 9.69659 7.31871 9.69659 7.93859 9.57053C9.13361 9.3225 10.1848 8.61814 10.8686 7.60719C11.2097 7.10234 11.4482 6.53537 11.5706 5.93853C11.5886 5.84853 11.5993 5.75653 11.6126 5.66519H13.6666L10.9999 2.99853L8.33325 5.66519Z" fill="white"/>
</svg>
