<svg width="30" height="29" viewBox="0 0 30 29" fill="none" xmlns="http://www.w3.org/2000/svg">
<path d="M20.8917 12.9385C20.8254 11.9224 20.5601 10.9063 20.0295 10.0256L15.5196 1.96448C15.188 1.35481 14.9227 0.677407 14.79 0L14.5911 0.338704C13.4636 2.30318 13.4636 4.80959 14.5911 6.77407L18.2388 13.2094C19.3663 15.1739 19.3663 17.6803 18.2388 19.6448L18.0399 19.9835C17.9072 19.3061 17.6419 18.6287 17.3103 18.019L13.9942 12.1256L11.8718 8.33211C11.5402 7.72244 11.2749 7.04503 11.1423 6.36763L10.9433 6.70633C9.8158 8.67081 9.8158 11.1095 10.9433 13.1417L14.5911 19.5771C15.7185 21.5415 15.7185 24.048 14.5911 26.0124L14.3921 26.3511C14.2594 25.6737 13.9942 24.9963 13.6625 24.3867L9.08625 16.3255C8.48934 15.2417 8.22405 14.0223 8.22405 12.803C3.38247 14.0901 0 16.8674 0 20.0513C0 24.5221 6.49965 28.1124 14.5247 28.1124C22.5498 28.1124 29.0495 24.5221 29.0495 20.0513C29.1158 17.0029 25.7996 14.2256 20.8917 12.9385Z" fill="#EC0000"/>
</svg>
