<svg width="12" height="12" viewBox="0 0 12 12" fill="none" xmlns="http://www.w3.org/2000/svg">
<path d="M1.33333 12H10.6667C11.0203 12 11.3594 11.8595 11.6095 11.6095C11.8595 11.3594 12 11.0203 12 10.6667V3.33334C12.0005 3.24561 11.9837 3.15863 11.9505 3.07741C11.9173 2.99618 11.8685 2.9223 11.8067 2.86001L9.14 0.193344C9.07771 0.131557 9.00383 0.0826734 8.92261 0.049497C8.84138 0.0163206 8.75441 -0.000496119 8.66667 1.11429e-05H1.33333C0.979711 1.11429e-05 0.640573 0.140487 0.390524 0.390535C0.140476 0.640584 0 0.979722 0 1.33334V10.6667C0 11.0203 0.140476 11.3594 0.390524 11.6095C0.640573 11.8595 0.979711 12 1.33333 12ZM8 10.6667H4V7.33334H8V10.6667ZM6.66667 2.66668H5.33333V1.33334H6.66667V2.66668ZM1.33333 1.33334H2.66667V4.00001H8V1.33334H8.39333L10.6667 3.60668V10.6667H9.33333V7.33334C9.33333 6.97972 9.19286 6.64058 8.94281 6.39054C8.69276 6.14049 8.35362 6.00001 8 6.00001H4C3.64638 6.00001 3.30724 6.14049 3.05719 6.39054C2.80714 6.64058 2.66667 6.97972 2.66667 7.33334V10.6667H1.33333V1.33334Z" fill="white"/>
</svg>
