<svg width="15" height="15" viewBox="0 0 15 15" fill="none" xmlns="http://www.w3.org/2000/svg">
<path d="M14.7739 13.6889L11.8197 10.7347C12.7443 9.56679 13.251 8.11546 13.251 6.62691C13.251 2.97137 10.2796 0 6.62691 0C2.97137 0 0 2.97137 0 6.62691C0 10.2824 2.97137 13.2538 6.62691 13.2538C8.11546 13.2538 9.56966 12.7471 10.7347 11.8225L13.6889 14.7767C13.8349 14.9227 14.0267 15.0029 14.2328 15.0029C14.4389 15.0029 14.6307 14.9227 14.7767 14.7767C14.9227 14.6307 15.0029 14.4389 15.0029 14.2328C15 14.0267 14.9198 13.8349 14.7739 13.6889ZM11.7166 6.62691C11.7166 9.43511 9.43225 11.7166 6.62691 11.7166C3.8187 11.7166 1.53721 9.43225 1.53721 6.62691C1.53721 3.8187 3.82156 1.53721 6.62691 1.53721C9.43225 1.53435 11.7166 3.8187 11.7166 6.62691Z" fill="current"/>
</svg>
