<svg width="16" height="16" viewBox="0 0 16 16" fill="none" xmlns="http://www.w3.org/2000/svg">
<path d="M15.7588 14.6015L12.6076 11.4504C13.5939 10.2046 14.1343 8.65649 14.1343 7.0687C14.1343 3.16947 10.9649 0 7.0687 0C3.16947 0 0 3.16947 0 7.0687C0 10.9679 3.16947 14.1374 7.0687 14.1374C8.65649 14.1374 10.2076 13.5969 11.4504 12.6107L14.6015 15.7618C14.7573 15.9176 14.9618 16.0031 15.1817 16.0031C15.4015 16.0031 15.6061 15.9176 15.7618 15.7618C15.9176 15.6061 16.0031 15.4015 16.0031 15.1817C16 14.9618 15.9145 14.7573 15.7588 14.6015ZM12.4977 7.0687C12.4977 10.0641 10.0611 12.4977 7.0687 12.4977C4.07328 12.4977 1.63969 10.0611 1.63969 7.0687C1.63969 4.07328 4.07634 1.63969 7.0687 1.63969C10.0611 1.63664 12.4977 4.07328 12.4977 7.0687Z" fill="#6C6C8A"/>
</svg>
