<svg width="18" height="18" viewBox="0 0 18 18" fill="none" xmlns="http://www.w3.org/2000/svg">
<path d="M15.75 3.75C15.75 2.92275 15.0773 2.25 14.25 2.25H3.75C2.92275 2.25 2.25 2.92275 2.25 3.75V14.25C2.25 15.0773 2.92275 15.75 3.75 15.75H14.25C15.0773 15.75 15.75 15.0773 15.75 14.25V3.75ZM3.75 14.25V3.75H14.25L14.2515 14.25H3.75Z" fill="currentColor"/>
<path d="M5.25 5.25H6.7485V6.75H5.25V5.25ZM8.25 5.25H12.75V6.75H8.25V5.25ZM5.25 8.25H6.7485V9.75H5.25V8.25ZM8.25 8.25H12.75V9.75H8.25V8.25ZM5.25 11.25H6.7485V12.75H5.25V11.25ZM8.25 11.25H12.75V12.75H8.25V11.25Z" fill="currentColor"/>
</svg>
