<svg width="18" height="18" viewBox="0 0 18 18" fill="none" xmlns="http://www.w3.org/2000/svg">
<path d="M9 12C10.6545 12 12 10.6545 12 9C12 7.3455 10.6545 6 9 6C7.3455 6 6 7.3455 6 9C6 10.6545 7.3455 12 9 12ZM9 7.5C9.813 7.5 10.5 8.187 10.5 9C10.5 9.813 9.813 10.5 9 10.5C8.187 10.5 7.5 9.813 7.5 9C7.5 8.187 8.187 7.5 9 7.5Z" fill="currentColor"/>
<path d="M2.13398 12.102L2.88398 13.3995C3.28223 14.0872 4.24073 14.3453 4.93148 13.947L5.32823 13.7175C5.76213 14.0588 6.24053 14.3394 6.75023 14.5515V15C6.75023 15.8273 7.42298 16.5 8.25023 16.5H9.75023C10.5775 16.5 11.2502 15.8273 11.2502 15V14.5515C11.7597 14.3394 12.2381 14.0591 12.6722 13.7183L13.069 13.9478C13.7612 14.3453 14.7175 14.0887 15.1172 13.3995L15.8665 12.1027C16.0652 11.7583 16.1191 11.349 16.0163 10.9648C15.9135 10.5806 15.6625 10.2529 15.3182 10.0538L14.9395 9.83475C15.02 9.28167 15.02 8.71983 14.9395 8.16675L15.3182 7.94775C15.6623 7.74842 15.9133 7.42075 16.016 7.03662C16.1188 6.65249 16.065 6.24327 15.8665 5.89875L15.1172 4.602C14.719 3.912 13.7612 3.65325 13.069 4.053L12.6722 4.2825C12.2383 3.94118 11.7599 3.6606 11.2502 3.4485V3C11.2502 2.17275 10.5775 1.5 9.75023 1.5H8.25023C7.42298 1.5 6.75023 2.17275 6.75023 3V3.4485C6.24071 3.66063 5.76234 3.94094 5.32823 4.28175L4.93148 4.05225C4.23848 3.654 3.28148 3.912 2.88323 4.60125L2.13398 5.898C1.93521 6.24247 1.88131 6.65176 1.98411 7.03595C2.08691 7.42014 2.338 7.74781 2.68223 7.947L3.06098 8.166C2.98015 8.71881 2.98015 9.28044 3.06098 9.83325L2.68223 10.0522C2.3381 10.2517 2.08712 10.5795 1.98435 10.9638C1.88157 11.348 1.93538 11.7574 2.13398 12.102ZM4.62848 10.0335C4.54379 9.69551 4.50072 9.34844 4.50023 9C4.50023 8.6535 4.54373 8.3055 4.62773 7.9665C4.66728 7.8085 4.65427 7.64191 4.59067 7.49196C4.52706 7.34201 4.41632 7.21687 4.27523 7.1355L3.43298 6.648L4.18148 5.35125L5.04023 5.84775C5.18027 5.92879 5.34282 5.96221 5.50348 5.94301C5.66413 5.92381 5.81423 5.85301 5.93123 5.74125C6.43862 5.25867 7.05047 4.89961 7.71923 4.692C7.87284 4.6451 8.00735 4.55012 8.10294 4.42105C8.19853 4.29197 8.25016 4.13562 8.25023 3.975V3H9.75023V3.975C9.75029 4.13562 9.80192 4.29197 9.89751 4.42105C9.99311 4.55012 10.1276 4.6451 10.2812 4.692C10.9498 4.89991 11.5616 5.25893 12.0692 5.74125C12.1863 5.85279 12.3364 5.92344 12.497 5.94264C12.6576 5.96183 12.8201 5.92855 12.9602 5.84775L13.8182 5.352L14.5682 6.64875L13.7252 7.1355C13.5842 7.21697 13.4736 7.34211 13.41 7.49203C13.3464 7.64195 13.3333 7.8085 13.3727 7.9665C13.4567 8.3055 13.5002 8.6535 13.5002 9C13.5002 9.34575 13.4567 9.69375 13.372 10.0335C13.3326 10.1916 13.3458 10.3582 13.4095 10.5081C13.4733 10.658 13.5841 10.7831 13.7252 10.8645L14.5675 11.3512L13.819 12.648L12.9602 12.1522C12.8202 12.0711 12.6576 12.0376 12.497 12.0568C12.3363 12.076 12.1862 12.1469 12.0692 12.2587C11.5618 12.7413 10.95 13.1004 10.2812 13.308C10.1276 13.3549 9.99311 13.4499 9.89751 13.579C9.80192 13.708 9.75029 13.8644 9.75023 14.025L9.75173 15H8.25023V14.025C8.25016 13.8644 8.19853 13.708 8.10294 13.579C8.00735 13.4499 7.87284 13.3549 7.71923 13.308C7.05061 13.1001 6.43881 12.7411 5.93123 12.2587C5.81445 12.1466 5.66427 12.0755 5.50346 12.0564C5.34266 12.0374 5.18002 12.0713 5.04023 12.153L4.18223 12.6495L3.43223 11.3527L4.27523 10.8645C4.41637 10.7831 4.52719 10.658 4.59092 10.5081C4.65466 10.3582 4.66784 10.1916 4.62848 10.0335Z" fill="currentColor"/>
</svg>
