<svg width="40" height="40" viewBox="0 0 40 40" fill="none" xmlns="http://www.w3.org/2000/svg">
<path d="M10 3.33398L5 10.0007V33.334C5 34.218 5.35119 35.0659 5.97631 35.691C6.60143 36.3161 7.44928 36.6673 8.33333 36.6673H31.6667C32.5507 36.6673 33.3986 36.3161 34.0237 35.691C34.6488 35.0659 35 34.218 35 33.334V10.0007L30 3.33398H10Z" stroke="#8181A5" stroke-width="2" stroke-linecap="round" stroke-linejoin="round"/>
<path d="M5 10H35" stroke="#8181A5" stroke-width="2" stroke-linecap="round" stroke-linejoin="round"/>
<path d="M26.6668 16.666C26.6668 18.4341 25.9645 20.1298 24.7142 21.3801C23.464 22.6303 21.7683 23.3327 20.0002 23.3327C18.2321 23.3327 16.5364 22.6303 15.2861 21.3801C14.0359 20.1298 13.3335 18.4341 13.3335 16.666" stroke="#8181A5" stroke-width="2" stroke-linecap="round" stroke-linejoin="round"/>
</svg>
