<svg width="18" height="18" viewBox="0 0 18 18" fill="none" xmlns="http://www.w3.org/2000/svg">
<path d="M14.25 2.25H12.5625C12.5625 2.05109 12.4835 1.86032 12.3428 1.71967C12.2022 1.57902 12.0114 1.5 11.8125 1.5H6.1875C5.98859 1.5 5.79782 1.57902 5.65717 1.71967C5.51652 1.86032 5.4375 2.05109 5.4375 2.25H3.75C2.92275 2.25 2.25 2.92275 2.25 3.75V15C2.25 15.8273 2.92275 16.5 3.75 16.5H14.25C15.0773 16.5 15.75 15.8273 15.75 15V3.75C15.75 2.92275 15.0773 2.25 14.25 2.25ZM14.25 15H3.75V3.75H5.25V5.25H12.75V3.75H14.25V15Z" fill="currentColor"/>
</svg>
