<svg width="66" height="66" viewBox="0 0 66 66" fill="none" xmlns="http://www.w3.org/2000/svg">
<circle cx="33" cy="33" r="33" fill="#6CB155" fill-opacity="0.12"/>
<path d="M55 33C55 45.1503 45.1503 55 33 55C20.8497 55 11 45.1503 11 33C11 20.8497 20.8497 11 33 11C45.1503 11 55 20.8497 55 33Z" fill="#6CB155"/>
<path d="M33 23C27.486 23 23 27.486 23 33C23 38.514 27.486 43 33 43C38.514 43 43 38.514 43 33C43 27.486 38.514 23 33 23ZM33 41C28.589 41 25 37.411 25 33C25 28.589 28.589 25 33 25C37.411 25 41 28.589 41 33C41 37.411 37.411 41 33 41Z" fill="white"/>
<path d="M30.9991 34.587L28.7001 32.292L27.2881 33.708L31.0011 37.413L37.7071 30.707L36.2931 29.293L30.9991 34.587Z" fill="white"/>
</svg>
