<svg width="18" height="18" viewBox="0 0 18 18" fill="none" xmlns="http://www.w3.org/2000/svg">
<path d="M16.5 6C16.5073 5.94776 16.5073 5.89475 16.5 5.8425V5.7825C16.4871 5.74064 16.4695 5.70038 16.4475 5.6625C16.4378 5.6409 16.4251 5.62072 16.41 5.6025L16.335 5.505L16.275 5.46L16.185 5.3925L9.435 1.6425C9.32099 1.57668 9.19165 1.54202 9.06 1.54202C8.92835 1.54202 8.79901 1.57668 8.685 1.6425L1.935 5.3925L1.8675 5.445L1.785 5.505C1.76321 5.52953 1.74549 5.55738 1.7325 5.5875C1.7085 5.60903 1.68823 5.63437 1.6725 5.6625C1.65303 5.69541 1.6379 5.73071 1.6275 5.7675C1.6233 5.79233 1.6233 5.81768 1.6275 5.8425C1.57593 5.88697 1.53275 5.94031 1.5 6V12C1.50097 12.1336 1.53764 12.2646 1.60621 12.3793C1.67478 12.494 1.77275 12.5884 1.89 12.6525L8.64 16.4025C8.67099 16.4206 8.70364 16.4356 8.7375 16.4475H8.8125C8.93571 16.4774 9.06429 16.4774 9.1875 16.4475H9.2625L9.3675 16.4025L16.1175 12.6525C16.2333 12.5874 16.3298 12.4927 16.397 12.378C16.4642 12.2634 16.4998 12.1329 16.5 12V6ZM9 8.9025L3.795 6L5.865 4.86L10.9875 7.785L9 8.9025ZM9 3.1125L14.205 6L12.525 6.9375L7.4025 4.005L9 3.1125ZM3 7.275L8.25 10.215V14.475L3 11.5575V7.275ZM9.75 14.475V10.215L12 8.955V11.25L13.5 10.5V8.115L15 7.2825V11.5575L9.75 14.475Z" fill="currentColor"/>
</svg>
