<svg width="14" height="14" viewBox="0 0 14 14" fill="none" xmlns="http://www.w3.org/2000/svg">
<path d="M13.6713 3.66475L12.1713 0.66475C12.1089 0.54013 12.0131 0.435329 11.8946 0.362079C11.776 0.288829 11.6394 0.250021 11.5 0.25H7.75005C7.4658 0.25 7.2063 0.4105 7.0788 0.66475L5.78655 3.25H2.50005C2.2158 3.25 1.9563 3.4105 1.8288 3.66475L0.328799 6.66475C0.276658 6.76895 0.249512 6.88386 0.249512 7.00037C0.249512 7.11689 0.276658 7.2318 0.328799 7.336L1.8288 10.336C1.9563 10.5895 2.2158 10.75 2.50005 10.75H5.78655L7.07955 13.3353C7.14165 13.4599 7.23731 13.5648 7.35577 13.6381C7.47422 13.7113 7.61077 13.7501 7.75005 13.75H11.5C11.7843 13.75 12.0438 13.5895 12.1713 13.3353L13.6713 10.3353C13.7234 10.2311 13.7506 10.1161 13.7506 9.99963C13.7506 9.88311 13.7234 9.7682 13.6713 9.664L12.3385 7L13.6705 4.33525C13.7227 4.23121 13.7499 4.11646 13.75 4.00009C13.7502 3.88372 13.7232 3.76891 13.6713 3.66475ZM8.21355 1.75H11.0365L12.1615 4L11.0365 6.25H8.21355L7.08855 4L8.21355 1.75ZM1.83855 7L2.96355 4.75H5.78655L6.91155 7L5.78655 9.25H2.96355L1.83855 7ZM11.0365 12.25H8.21355L7.08855 10L8.21355 7.75H11.0365L12.1615 10L11.0365 12.25Z" fill="currentColor"/>
</svg>
