<svg width="18" height="18" viewBox="0 0 18 18" fill="none" xmlns="http://www.w3.org/2000/svg">
<path d="M11.133 15H4.875C3.84075 15 3 14.1593 3 13.125C3 12.0907 3.84075 11.25 4.875 11.25H10.125C11.5725 11.25 12.75 10.0725 12.75 8.625C12.75 7.1775 11.5725 6 10.125 6H6.47925C6.20381 6.53991 5.86273 7.04373 5.46375 7.5H10.125C10.7452 7.5 11.25 8.00475 11.25 8.625C11.25 9.24525 10.7452 9.75 10.125 9.75H4.875C3.01425 9.75 1.5 11.2642 1.5 13.125C1.5 14.9858 3.01425 16.5 4.875 16.5H12.0697C11.7017 16.0371 11.3875 15.5338 11.133 15ZM3.75 1.5C2.5095 1.5 1.5 2.5095 1.5 3.75C1.5 6.141 3.75 7.5 3.75 7.5C3.75 7.5 6 6.14025 6 3.75C6 2.5095 4.9905 1.5 3.75 1.5ZM3.75 4.875C3.60221 4.87495 3.45588 4.84579 3.31937 4.78919C3.18285 4.73259 3.05882 4.64966 2.95435 4.54512C2.84988 4.44058 2.76703 4.3165 2.71052 4.17994C2.65401 4.04339 2.62495 3.89704 2.625 3.74925C2.62505 3.60146 2.65421 3.45513 2.71081 3.31862C2.76741 3.1821 2.85034 3.05807 2.95488 2.9536C3.05942 2.84913 3.1835 2.76628 3.32006 2.70977C3.45661 2.65326 3.60296 2.6242 3.75075 2.62425C4.04922 2.62435 4.33542 2.74301 4.5464 2.95413C4.75738 3.16525 4.87585 3.45153 4.87575 3.75C4.87565 4.04847 4.75699 4.33467 4.54587 4.54565C4.33475 4.75663 4.04847 4.8751 3.75 4.875Z" fill="#ADB5BD"/>
<path d="M14.25 10.5C13.0095 10.5 12 11.5095 12 12.75C12 15.141 14.25 16.5 14.25 16.5C14.25 16.5 16.5 15.1403 16.5 12.75C16.5 11.5095 15.4905 10.5 14.25 10.5ZM14.25 13.875C14.1022 13.875 13.9559 13.8458 13.8194 13.7892C13.6828 13.7326 13.5588 13.6497 13.4543 13.5451C13.3499 13.4406 13.267 13.3165 13.2105 13.1799C13.154 13.0434 13.125 12.897 13.125 12.7493C13.125 12.6015 13.1542 12.4551 13.2108 12.3186C13.2674 12.1821 13.3503 12.0581 13.4549 11.9536C13.5594 11.8491 13.6835 11.7663 13.8201 11.7098C13.9566 11.6533 14.103 11.6242 14.2507 11.6242C14.5492 11.6243 14.8354 11.743 15.0464 11.9541C15.2574 12.1652 15.3758 12.4515 15.3757 12.75C15.3757 13.0485 15.257 13.3347 15.0459 13.5457C14.8348 13.7566 14.5485 13.8751 14.25 13.875Z" fill="#ADB5BD"/>
</svg>
