<svg width="20" height="20" viewBox="0 0 20 20" fill="none" xmlns="http://www.w3.org/2000/svg">
<path d="M13.333 2.5H0.833008V13.3333H13.333V2.5Z" stroke="white" stroke-width="1.5" stroke-linecap="round" stroke-linejoin="round"/>
<path d="M13.333 6.66602H16.6663L19.1663 9.16602V13.3327H13.333V6.66602Z" stroke="white" stroke-width="1.5" stroke-linecap="round" stroke-linejoin="round"/>
<path d="M4.58333 17.5007C5.73393 17.5007 6.66667 16.5679 6.66667 15.4173C6.66667 14.2667 5.73393 13.334 4.58333 13.334C3.43274 13.334 2.5 14.2667 2.5 15.4173C2.5 16.5679 3.43274 17.5007 4.58333 17.5007Z" stroke="white" stroke-width="1.5" stroke-linecap="round" stroke-linejoin="round"/>
<path d="M15.4163 17.5007C16.5669 17.5007 17.4997 16.5679 17.4997 15.4173C17.4997 14.2667 16.5669 13.334 15.4163 13.334C14.2657 13.334 13.333 14.2667 13.333 15.4173C13.333 16.5679 14.2657 17.5007 15.4163 17.5007Z" stroke="white" stroke-width="1.5" stroke-linecap="round" stroke-linejoin="round"/>
</svg>
