<svg width="40" height="40" viewBox="0 0 40 40" fill="none" xmlns="http://www.w3.org/2000/svg">
<path d="M19.6667 16C17.6445 16 16 17.6445 16 19.6667C16 21.6888 17.6445 23.3333 19.6667 23.3333C21.6888 23.3333 23.3333 21.6888 23.3333 19.6667C23.3333 17.6445 21.6888 16 19.6667 16ZM19.6667 21.5C18.6556 21.5 17.8333 20.6778 17.8333 19.6667C17.8333 18.6556 18.6556 17.8333 19.6667 17.8333C20.6778 17.8333 21.5 18.6556 21.5 19.6667C21.5 20.6778 20.6778 21.5 19.6667 21.5Z" fill="#00BC82"/>
<circle cx="20" cy="20" r="20" fill="#DBF7EF"/>
<path d="M23.2084 23.6654C24.4741 23.6654 25.5001 22.6394 25.5001 21.3737C25.5001 20.108 24.4741 19.082 23.2084 19.082C21.9428 19.082 20.9167 20.108 20.9167 21.3737C20.9167 22.6394 21.9428 23.6654 23.2084 23.6654Z" fill="#00BC82"/>
<path d="M20 21.3737C20 20.6266 20.363 19.9694 20.9167 19.5514C20.5223 19.2481 20.0391 19.0832 19.5417 19.082C18.9339 19.082 18.351 19.3235 17.9212 19.7532C17.4914 20.183 17.25 20.7659 17.25 21.3737C17.25 21.9815 17.4914 22.5644 17.9212 22.9942C18.351 23.4239 18.9339 23.6654 19.5417 23.6654C20.0391 23.6642 20.5223 23.4993 20.9167 23.196C20.6328 22.9844 20.4022 22.7095 20.243 22.3932C20.0839 22.0768 20.0007 21.7278 20 21.3737Z" fill="#00BC82"/>
<path d="M27.3333 12.668H12.6666C11.6555 12.668 10.8333 13.4902 10.8333 14.5013V25.5013C10.8333 26.5124 11.6555 27.3346 12.6666 27.3346H27.3333C28.3443 27.3346 29.1666 26.5124 29.1666 25.5013V14.5013C29.1666 13.4902 28.3443 12.668 27.3333 12.668ZM12.6666 25.5013V14.5013H27.3333L27.3351 25.5013H12.6666Z" fill="#00BC82"/>
</svg>
