<svg width="16" height="16" viewBox="0 0 16 16" fill="none" xmlns="http://www.w3.org/2000/svg">
<path d="M8 1.33398C7.34073 1.33398 6.69626 1.52948 6.1481 1.89575C5.59994 2.26202 5.17269 2.78262 4.9204 3.39171C4.66811 4.00079 4.6021 4.67102 4.73072 5.31762C4.85933 5.96422 5.1768 6.55817 5.64298 7.02434C6.10915 7.49052 6.7031 7.80798 7.3497 7.9366C7.9963 8.06522 8.66652 7.99921 9.27561 7.74692C9.8847 7.49462 10.4053 7.06738 10.7716 6.51922C11.1378 5.97105 11.3333 5.32659 11.3333 4.66732C11.3333 3.78326 10.9821 2.93542 10.357 2.3103C9.7319 1.68517 8.88406 1.33398 8 1.33398ZM8 6.66732C7.60444 6.66732 7.21776 6.55002 6.88886 6.33026C6.55996 6.11049 6.30362 5.79814 6.15224 5.43268C6.00087 5.06723 5.96126 4.6651 6.03843 4.27714C6.1156 3.88918 6.30608 3.53281 6.58579 3.2531C6.86549 2.9734 7.22186 2.78292 7.60982 2.70575C7.99778 2.62858 8.39991 2.66818 8.76537 2.81956C9.13082 2.97093 9.44318 3.22728 9.66294 3.55618C9.8827 3.88508 10 4.27176 10 4.66732C10 5.19775 9.78929 5.70646 9.41421 6.08153C9.03914 6.4566 8.53043 6.66732 8 6.66732ZM14 14.0007V13.334C14 12.0963 13.5083 10.9093 12.6332 10.0342C11.758 9.15898 10.571 8.66732 9.33333 8.66732H6.66667C5.42899 8.66732 4.242 9.15898 3.36683 10.0342C2.49167 10.9093 2 12.0963 2 13.334V14.0007H3.33333V13.334C3.33333 12.4499 3.68452 11.6021 4.30964 10.977C4.93477 10.3518 5.78261 10.0007 6.66667 10.0007H9.33333C10.2174 10.0007 11.0652 10.3518 11.6904 10.977C12.3155 11.6021 12.6667 12.4499 12.6667 13.334V14.0007H14Z" fill="white"/>
</svg>
