<svg width="38" height="26" viewBox="0 0 38 26" fill="none" xmlns="http://www.w3.org/2000/svg">
<rect x="0.5" y="0.5" width="37" height="25" rx="4.5" fill="white" stroke="#DBE3EB"/>
<path fill-rule="evenodd" clip-rule="evenodd" d="M11.536 17.6131H9.23396L7.50769 11.0417C7.42576 10.7395 7.25178 10.4722 6.99587 10.3463C6.35722 10.0297 5.65347 9.77785 4.88574 9.6508V9.3978H8.59419C9.106 9.3978 9.48987 9.77785 9.55385 10.2192L10.4495 14.9594L12.7505 9.3978H14.9886L11.536 17.6131ZM16.2682 17.6131H14.0941L15.8843 9.3978H18.0584L16.2682 17.6131ZM20.8714 11.6737C20.9354 11.2312 21.3193 10.9782 21.7671 10.9782C22.4709 10.9147 23.2375 11.0417 23.8772 11.3572L24.2611 9.58838C23.6213 9.33538 22.9176 9.20834 22.2789 9.20834C20.1688 9.20834 18.6333 10.3463 18.6333 11.9256C18.6333 13.1271 19.721 13.7579 20.4887 14.138C21.3193 14.5169 21.6392 14.7699 21.5752 15.1488C21.5752 15.7173 20.9354 15.9703 20.2968 15.9703C19.529 15.9703 18.7613 15.7808 18.0587 15.4643L17.6748 17.2342C18.4425 17.5496 19.2731 17.6766 20.0409 17.6766C22.4069 17.7391 23.8772 16.6022 23.8772 14.8958C23.8772 12.747 20.8714 12.6211 20.8714 11.6737ZM31.4856 17.6131L29.7594 9.3978H27.9051C27.5213 9.3978 27.1374 9.6508 27.0095 10.0297L23.8128 17.6131H26.0509L26.4976 16.4127H29.2475L29.5035 17.6131H31.4856ZM28.2253 11.6102L28.864 14.7064H27.0737L28.2253 11.6102Z" fill="#172B85"/>
</svg>
