<svg width="22" height="22" viewBox="0 0 22 22" fill="none" xmlns="http://www.w3.org/2000/svg">
<path d="M10.0849 9.16669H11.9182V13.75H10.0849V9.16669ZM10.084 14.6667H11.9173V16.5H10.084V14.6667Z" fill="#F9A000"/>
<path d="M12.6205 3.85003C12.3015 3.24961 11.68 2.87653 10.9999 2.87653C10.3197 2.87653 9.6982 3.24961 9.37921 3.85094L2.65271 16.5587C2.50344 16.8378 2.4295 17.1509 2.43819 17.4673C2.44687 17.7836 2.53786 18.0922 2.70221 18.3627C2.86418 18.6344 3.09421 18.8591 3.36958 19.0147C3.64496 19.1703 3.95616 19.2514 4.27245 19.25H17.7273C18.3763 19.25 18.9639 18.9182 19.2985 18.3627C19.4625 18.0921 19.5534 17.7835 19.5621 17.4672C19.5707 17.1509 19.497 16.8378 19.348 16.5587L12.6205 3.85003ZM4.27245 17.4167L10.9999 4.70894L17.7319 17.4167H4.27245Z" fill="#F9A000"/>
</svg>
