<svg width="155" height="30" viewBox="0 0 155 30" fill="none" xmlns="http://www.w3.org/2000/svg">
<g clip-path="url(#clip0_7724_68088)">
<path d="M0.411696 2.85027C1.13216 1.18911 2.93334 -0.000972168 4.8117 -0.000972168C18.9895 -0.000972168 33.1673 -0.000972168 47.3708 -0.000972168C48.6059 -0.0257655 49.841 0.420515 50.7416 1.2139C51.7708 2.10647 52.3626 3.44531 52.3369 4.78415C52.3369 10.0156 52.3369 15.247 52.3369 20.5032C52.3111 22.8585 50.1755 24.9908 47.731 25.0403C42.5591 25.0651 37.3872 25.0403 32.2152 25.0403C32.91 26.7015 33.6047 28.3379 34.2994 29.999C31.2117 28.3627 28.1755 26.6767 25.062 25.0651C18.269 25.0156 11.4503 25.0651 4.63158 25.0403C2.18714 24.966 0.051462 22.8585 0.025731 20.5032C0 15.3709 0.025731 10.2387 0 5.13126C0 4.36266 0.077193 3.56927 0.411696 2.85027Z" fill="#7F54B3"/>
<path d="M21.2024 3.22246C21.9744 2.42907 23.4668 2.677 24.0586 3.59436C24.3673 4.06543 24.3931 4.71006 24.1358 5.20593C23.0551 7.28857 22.5919 9.59436 22.1802 11.8506C21.6913 14.801 21.2796 17.801 21.434 20.801C21.4855 21.5696 21.0995 22.4869 20.2504 22.6853C19.4527 22.8588 18.7065 22.3382 18.1919 21.7927C15.8761 19.3877 14.5638 16.2886 13.6118 13.1894C12.6597 14.9993 11.7077 16.834 10.7814 18.6439C10.1381 19.8836 9.44336 21.1481 8.41412 22.1398C7.97669 22.5613 7.23049 22.9332 6.66441 22.5117C5.81529 21.7927 5.60944 20.6522 5.24921 19.6853C3.88546 15.1481 3.11353 10.4621 2.31587 5.80097C2.13575 5.03237 2.47026 4.09023 3.26792 3.79271C3.91119 3.56957 4.76032 3.51998 5.30067 3.99105C5.68663 4.31337 5.78956 4.83403 5.86675 5.3051C6.43283 8.92494 7.07611 12.52 8.00242 16.0654C9.54629 13.239 11.0901 10.4125 12.634 7.5613C12.8656 7.13981 13.1486 6.71832 13.5603 6.47039C14.1264 6.12328 14.9498 6.14808 15.4387 6.64394C15.8247 7.04064 15.979 7.61089 16.082 8.13155C16.5451 10.4621 17.1627 12.7927 18.0632 14.9993C18.4492 11.6522 18.9381 8.25551 20.1989 5.10676C20.482 4.43733 20.7393 3.76791 21.2024 3.22246ZM29.9252 5.03237C31.5978 4.83403 33.3989 5.37948 34.5311 6.59436C35.4574 7.61089 35.972 8.92494 36.1521 10.239C36.4352 12.4952 35.9978 14.8753 34.8656 16.8836C34.2223 18.0241 33.3989 19.1398 32.2153 19.8092C30.4913 20.8258 28.1755 20.7018 26.503 19.6357C25.165 18.7431 24.4188 17.2555 24.11 15.7679C23.4925 12.3712 24.5475 8.60262 27.1978 6.24725C27.9697 5.57783 28.9217 5.15634 29.9252 5.03237ZM30.2598 8.50345C29.4621 8.75138 28.9475 9.47039 28.51 10.115C27.4293 11.801 27.1206 14.0076 27.9954 15.8175C28.227 16.2886 28.5872 16.8092 29.179 16.9084C29.7966 17.0076 30.3627 16.6605 30.8001 16.2886C31.7779 15.4704 32.2668 14.2555 32.5241 13.0406C32.7814 11.677 32.6527 10.1646 31.8293 8.97452C31.4948 8.52824 30.8258 8.32989 30.2598 8.50345ZM43.2796 5.03237C44.9007 4.83403 46.6761 5.3299 47.8083 6.49518C48.8375 7.5613 49.3779 8.97452 49.5323 10.4125C49.7639 12.5944 49.3522 14.8753 48.2715 16.8092C47.6282 17.9745 46.7791 19.115 45.544 19.8092C43.8972 20.7762 41.6843 20.677 40.0375 19.7348C38.9311 19.0902 38.1849 17.9993 37.7475 16.834C36.5896 13.2886 37.5674 9.12328 40.2434 6.4456C41.1182 5.7018 42.1732 5.15634 43.2796 5.03237ZM43.6399 8.50345C42.765 8.80097 42.2504 9.61915 41.7872 10.3382C40.8095 11.9993 40.5522 14.1563 41.4527 15.9167C41.6843 16.4125 42.1217 16.8836 42.7136 16.9084C43.3568 16.9332 43.9229 16.5365 44.3861 16.115C45.3896 15.1729 45.827 13.834 45.9814 12.52C46.1358 11.3051 45.9299 9.99105 45.1837 8.94973C44.875 8.52824 44.206 8.32989 43.6399 8.50345Z" fill="white"/>
<path d="M61.1368 5.50495C62.5521 5.20743 64.0444 5.23222 65.4597 5.55454C65.4597 6.67024 65.4597 7.78594 65.4597 8.90165C64.3018 8.62892 62.9895 8.38098 61.883 8.90165C60.545 9.54627 59.7988 11.0091 59.7988 12.3975C59.7216 13.7859 60.2105 15.3479 61.4971 16.1413C62.6807 16.8851 64.1988 16.7364 65.4854 16.3892C65.4854 17.505 65.4854 18.6207 65.4854 19.7364C63.7614 20.2074 61.883 20.1578 60.2105 19.5628C58.2035 18.8438 56.6082 17.1578 55.9906 15.1744C55.5275 13.662 55.476 12.0504 55.8363 10.5132C56.4281 8.05867 58.5895 6.05041 61.1368 5.50495ZM71.5836 5.3314C73.3333 5.13305 75.2374 5.40578 76.6526 6.47189C78.0164 7.48842 78.6854 9.14958 78.9427 10.7364C79.1743 12.4967 79.1228 14.3314 78.5567 16.0173C78.0678 17.4554 77.0643 18.7942 75.6234 19.4636C74.1567 20.1331 72.4328 20.1826 70.8632 19.8355C69.4222 19.5132 68.1357 18.5959 67.4152 17.3314C66.4117 15.6454 66.2316 13.6372 66.3088 11.7281C66.386 10.0917 66.8234 8.38098 67.9556 7.11652C68.8819 6.09999 70.2199 5.48016 71.5836 5.3314ZM72.124 8.52975C71.3778 8.7033 70.9404 9.42231 70.7602 10.0917C70.4 11.4306 70.4515 12.819 70.5544 14.1826C70.6573 14.9264 70.7345 15.7198 71.2749 16.3149C71.9953 17.1083 73.462 17.0091 74.1053 16.1909C74.5427 15.6702 74.6714 15.0008 74.7486 14.3562C74.9029 13.2157 74.9287 12.0504 74.7486 10.9099C74.6199 10.2157 74.4141 9.49669 73.8994 8.97603C73.4363 8.52974 72.7415 8.38098 72.124 8.52975ZM140.749 5.55454C142.241 5.18264 143.811 5.23222 145.303 5.52974C145.329 6.64545 145.303 7.76115 145.329 8.90165C144.197 8.62892 142.936 8.38098 141.829 8.85206C140.543 9.42231 139.771 10.7364 139.668 12.0504C139.514 13.538 139.925 15.224 141.289 16.0917C142.473 16.8851 144.016 16.7364 145.329 16.3645C145.303 17.4802 145.354 18.6207 145.303 19.7364C143.476 20.1826 141.469 20.1331 139.745 19.414C137.841 18.6207 136.349 16.9347 135.808 15.0008C135.397 13.5132 135.345 11.9264 135.731 10.414C136.297 8.08346 138.33 6.17437 140.749 5.55454ZM81.2328 5.65371C82.8796 5.65371 84.5521 5.65371 86.1989 5.65371C86.7907 8.23222 87.3567 10.8355 87.8714 13.4388C88.3345 10.8107 88.9778 8.23222 89.6211 5.65371C91.3193 5.65371 93.0176 5.65371 94.7158 5.65371C95.3848 10.3397 96.0281 15.0256 96.6714 19.6868C95.3848 19.6868 94.0725 19.6868 92.786 19.6868C92.4258 16.4884 92.117 13.2653 91.731 10.0669C90.9334 13.2653 90.11 16.4884 89.3123 19.6868C88.4375 19.6868 87.5369 19.6868 86.662 19.6868C85.8129 16.4884 84.9895 13.2653 84.1146 10.0421C83.7801 13.2405 83.4456 16.4636 83.1111 19.6868C81.876 19.6868 80.641 19.6868 79.3801 19.6868C79.9977 15.0256 80.6152 10.3397 81.2328 5.65371ZM99.0386 5.65371C100.685 5.65371 102.358 5.65371 104.005 5.65371C104.597 8.23222 105.163 10.8355 105.677 13.4388C106.166 10.8355 106.784 8.23222 107.427 5.65371H112.496C113.165 10.3397 113.808 15.0256 114.451 19.6868C113.165 19.6868 111.853 19.6868 110.566 19.6868C110.206 16.4884 109.871 13.2653 109.511 10.0669C108.713 13.2653 107.916 16.4884 107.092 19.6868C106.218 19.6868 105.317 19.6868 104.442 19.6868C103.593 16.4636 102.744 13.2653 101.895 10.0421C101.56 13.2653 101.226 16.4636 100.891 19.6868C99.6562 19.6868 98.4211 19.6868 97.1603 19.6868C97.8035 15.0256 98.4211 10.3397 99.0386 5.65371ZM115.584 5.7033C118.234 5.65371 120.91 5.7033 123.56 5.6785C123.56 6.67024 123.56 7.66198 123.56 8.67851C122.222 8.7033 120.884 8.67851 119.546 8.67851C119.546 9.54627 119.546 10.3892 119.546 11.257C120.704 11.257 121.862 11.257 123.02 11.257C123.02 12.224 123.02 13.1909 123.02 14.1578C121.862 14.1578 120.704 14.1578 119.546 14.1578C119.546 15.0008 119.546 15.8686 119.546 16.7364C120.884 16.7364 122.248 16.7364 123.586 16.7364C123.586 17.7281 123.586 18.7198 123.586 19.7364C120.936 19.7364 118.26 19.7364 115.609 19.7364C115.584 15.0504 115.635 10.3892 115.584 5.7033ZM124.692 5.65371C126.365 5.65371 128.012 5.62892 129.684 5.65371C131.254 5.7033 132.926 6.0752 134.084 7.14131C135.139 8.08346 135.499 9.64545 135.088 10.9595C134.753 12.0256 133.93 12.8934 132.901 13.3645C133.93 15.4719 134.985 17.5793 136.04 19.6868C134.65 19.6868 133.261 19.6868 131.897 19.6868C130.816 17.5297 129.761 15.3727 128.655 13.2405C128.629 15.3975 128.655 17.5545 128.655 19.6868C127.343 19.6868 126.03 19.6868 124.718 19.6868C124.692 15.0256 124.692 10.3397 124.692 5.65371ZM128.629 8.35619C128.629 9.47189 128.629 10.5876 128.629 11.7033C129.35 11.6537 130.122 11.6289 130.714 11.2074C131.408 10.7116 131.331 9.69503 130.894 9.05041C130.353 8.43057 129.401 8.43057 128.629 8.35619ZM146.435 5.6785C149.085 5.6785 151.736 5.6785 154.386 5.6785C154.386 6.67024 154.386 7.68677 154.386 8.67851C153.048 8.67851 151.684 8.67851 150.346 8.67851C150.346 9.54627 150.346 10.3892 150.346 11.257C151.504 11.257 152.662 11.257 153.82 11.257C153.82 12.224 153.82 13.1909 153.82 14.1578H150.346C150.346 15.0256 150.346 15.8686 150.346 16.7364C151.71 16.7364 153.048 16.7364 154.412 16.7364C154.412 17.7281 154.412 18.7198 154.412 19.7364C151.761 19.7364 149.085 19.7364 146.435 19.7364C146.409 15.0256 146.435 10.3397 146.435 5.6785Z" fill="black"/>
</g>
<defs>
<clipPath id="clip0_7724_68088">
<rect width="154.412" height="30" fill="white"/>
</clipPath>
</defs>
</svg>
