<svg width="103" height="30" viewBox="0 0 103 30" fill="none" xmlns="http://www.w3.org/2000/svg">
<path d="M17.5788 14.9407L28.7636 3.58852C29.1059 3.24111 29.3345 2.65238 29.3345 2.19888C29.335 1.92499 29.2823 1.65369 29.1792 1.40054C29.0762 1.14739 28.9249 0.917386 28.7341 0.723717C28.5432 0.530048 28.3166 0.376529 28.0671 0.27197C27.8176 0.16741 27.5503 0.113868 27.2804 0.114416C26.7095 0.114416 26.2533 0.34637 25.7962 0.69378L14.6104 12.0449L3.4235 0.69378C3.08115 0.34637 2.501 0.114416 2.0541 0.114416C1.7842 0.113868 1.51685 0.16741 1.2674 0.27197C1.01794 0.376529 0.791279 0.530048 0.600431 0.723717C0.409582 0.917386 0.2583 1.14739 0.155263 1.40054C0.0522262 1.65369 -0.000536233 1.92499 4.10857e-06 2.19888C4.10857e-06 2.77824 0.228579 3.24111 0.570929 3.70501L11.7568 15.0572L0.570929 26.4094C0.114804 26.7568 4.10857e-06 27.3455 4.10857e-06 27.9155C-0.000536233 28.1894 0.0522262 28.4607 0.155263 28.7139C0.2583 28.967 0.409582 29.197 0.600431 29.3907C0.791279 29.5844 1.01794 29.7379 1.2674 29.8424C1.51685 29.947 1.7842 30.0005 2.0541 30C2.62503 30 3.08115 29.768 3.4235 29.4206L14.6104 18.0674L25.7962 29.4185C26.2523 29.8814 26.7187 29.9979 27.2804 29.9979C27.5503 29.9985 27.8176 29.9449 28.0671 29.8404C28.3166 29.7358 28.5432 29.5823 28.7341 29.3886C28.9249 29.1949 29.0762 28.9649 29.1792 28.7118C29.2823 28.4586 29.335 28.1873 29.3345 27.9135C29.3345 27.3341 29.1059 26.8712 28.7636 26.5238L17.5788 14.9407ZM73.0518 14.9407C73.0518 23.1641 79.6733 29.8825 87.7759 29.8825C95.8785 29.8825 102.5 23.1641 102.5 14.9407C102.5 6.71729 95.8785 0 87.7759 0C79.6733 0 73.0518 6.71729 73.0518 14.9407ZM77.2748 14.9407C77.2748 9.03266 81.9549 4.16892 87.8897 4.16892C93.7117 4.16892 98.5046 8.91824 98.5046 14.9407C98.5046 20.9632 93.8254 25.7125 87.8897 25.7125C81.9539 25.7125 77.285 20.8488 77.285 14.9407H77.2748ZM72.0237 0.34741H71.4425C69.616 0.34741 67.7904 0.926773 66.3175 2.08446C66.0889 1.14832 65.2905 0.461827 64.3772 0.461827C63.2353 0.461827 62.4369 1.39796 62.4369 2.43083V27.564C62.4363 27.8379 62.4891 28.1092 62.5921 28.3623C62.6952 28.6154 62.8464 28.8455 63.0373 29.0391C63.2281 29.2328 63.4548 29.3863 63.7043 29.4909C63.9537 29.5954 64.2211 29.649 64.491 29.6484C65.0352 29.6468 65.5568 29.4266 65.9416 29.0361C66.3265 28.6455 66.5434 28.1163 66.5451 27.564V12.1698C66.5451 7.07302 67.0012 4.98856 71.339 4.41023H72.1385C73.2803 4.41023 74.1926 3.59892 74.1926 2.44123C74.0901 1.16705 73.1655 0.356772 72.0237 0.356772V0.34741ZM58.2128 12.1635C57.2903 8.00291 55.1307 4.63491 51.7072 2.43395C46.6847 -0.809236 40.0632 -0.577283 35.2703 2.89682C31.3896 5.67714 29.1069 10.4254 29.1069 15.1747C29.1069 16.3335 29.2094 17.6087 29.5631 18.7653C31.0575 24.6703 36.08 29.1866 42.0045 29.8731C43.7602 30.1025 45.5431 29.9845 47.2546 29.5257C48.7388 29.1783 50.3367 28.4835 51.7061 27.6721C53.1903 26.736 54.3301 25.4712 55.473 24.0815L55.5755 23.9775C56.375 22.9353 56.2602 21.5436 55.3469 20.8498C54.6622 20.2704 53.4066 20.0385 52.3796 21.3127C52.151 21.6601 51.9234 21.892 51.6949 22.2488C50.8768 23.2082 49.9136 24.0294 48.8413 24.6817C47.3571 25.493 45.6453 25.9559 43.9336 25.9559C38.1116 25.8519 35.0304 21.7953 33.8886 18.7747C33.66 18.1953 33.5462 17.616 33.4324 17.0376V16.6902H54.4449C57.1848 16.5862 58.6679 14.4893 58.2118 12.1729L58.2128 12.1635ZM33.5585 12.5109V12.279C34.7004 7.64614 38.9234 4.171 43.8311 4.171C48.8536 4.171 53.0766 7.7616 54.2184 12.5109H33.5585Z" fill="#1AB4D7"/>
</svg>
