<svg width="65" height="65" viewBox="0 0 65 65" fill="none" xmlns="http://www.w3.org/2000/svg">
<g clip-path="url(#clip0_1201_596)">
<path d="M32.5 65C50.4493 65 65 50.4493 65 32.5C65 14.5507 50.4493 0 32.5 0C14.5507 0 0 14.5507 0 32.5C0 50.4493 14.5507 65 32.5 65Z" fill="#FFCE00" fill-opacity="0.17"/>
<path d="M32 18.25V45.75" stroke="#FFCE00" stroke-width="2" stroke-linecap="round" stroke-linejoin="round"/>
<path d="M38.25 23.25H28.875C27.7147 23.25 26.6019 23.7109 25.7814 24.5314C24.9609 25.3519 24.5 26.4647 24.5 27.625C24.5 28.7853 24.9609 29.8981 25.7814 30.7186C26.6019 31.5391 27.7147 32 28.875 32H35.125C36.2853 32 37.3981 32.4609 38.2186 33.2814C39.0391 34.1019 39.5 35.2147 39.5 36.375C39.5 37.5353 39.0391 38.6481 38.2186 39.4686C37.3981 40.2891 36.2853 40.75 35.125 40.75H24.5" stroke="#FFCE00" stroke-width="2" stroke-linecap="round" stroke-linejoin="round"/>
</g>
<defs>
<clipPath id="clip0_1201_596">
<rect width="65" height="65" fill="white"/>
</clipPath>
</defs>
</svg>
