<svg width="13" height="13" viewBox="0 0 13 13" fill="none" xmlns="http://www.w3.org/2000/svg">
  <circle cx="6.5" cy="6.5" r="6.5" fill="#EF6355" />
  <g clip-path="url(#clip0_623_798)">
    <path d="M8.97359 8.23131L7.24234 6.50005L8.97359 4.76879C9.17909 4.5633 9.17909 4.22938 8.97359 4.02389C8.7681 3.8184 8.43675 3.82097 8.23126 4.02646L6.5 5.75772L4.76874 4.02646C4.56325 3.82097 4.22933 3.82097 4.02384 4.02646C3.81835 4.23195 3.81835 4.56587 4.02384 4.77136L5.7551 6.50262L4.02384 8.23388C3.81835 8.43937 3.81835 8.77329 4.02384 8.97878C4.22933 9.18427 4.56325 9.18427 4.76874 8.97878L6.5 7.24752L8.23126 8.97878C8.43675 9.18427 8.77067 9.18427 8.97616 8.97878C9.18165 8.77329 9.18165 8.43937 8.97359 8.23131Z" fill="white" />
  </g>
  <defs>
    <clipPath id="clip0_623_798">
      <rect width="7" height="7" fill="white" transform="translate(6.5 1.55029) rotate(45)" />
    </clipPath>
  </defs>
</svg>
  