<svg width="15" height="9" viewBox="0 0 15 9" fill="none" xmlns="http://www.w3.org/2000/svg">
<g clip-path="url(#clip0_5902_1065)">
<path d="M14.8733 4.10815C13.9463 2.88624 12.8719 1.88553 11.6816 1.19031C11.5763 1.12711 10.8284 0.73736 10.3122 0.526685C9.41684 0.168539 8.46881 0 7.48917 0C4.63454 0 2.03271 1.56952 0.115575 4.10815C-0.0424311 4.31882 -0.0424311 4.60323 0.115575 4.8139C1.16895 6.21489 2.43299 7.31039 3.82344 8.02669C3.82344 8.02669 5.17176 8.92205 7.48917 8.92205C10.3543 8.92205 12.9562 7.35253 14.8733 4.8139C15.0313 4.60323 15.0313 4.31882 14.8733 4.10815ZM10.6493 4.66643C10.6282 4.97191 10.565 5.26685 10.4597 5.55126C10.4491 5.5618 10.4491 5.58287 10.4386 5.5934C10.4281 5.61447 10.4281 5.63553 10.4175 5.6566C9.95406 6.80478 8.81642 7.6264 7.49971 7.6264C6.341 7.6264 5.32976 7.00492 4.78201 6.06742C4.77148 6.04635 4.76094 6.03581 4.75041 6.01475C4.73988 5.99368 4.72934 5.97261 4.71881 5.96208C4.44493 5.46699 4.30799 4.87711 4.35013 4.26615C4.44493 2.69663 5.71951 1.43258 7.28903 1.32725C7.99479 1.28511 8.65842 1.47472 9.19564 1.82233L9.1851 1.83287C9.55378 2.06461 9.86979 2.38062 10.1121 2.73876L10.1226 2.72823C10.4913 3.26545 10.6914 3.93961 10.6493 4.66643Z" fill="#8181A5"/>
<path d="M7.49964 6.15175C8.43627 6.15175 9.19557 5.39245 9.19557 4.45582C9.19557 3.51918 8.43627 2.75989 7.49964 2.75989C6.563 2.75989 5.80371 3.51918 5.80371 4.45582C5.80371 5.39245 6.563 6.15175 7.49964 6.15175Z" fill="#8181A5"/>
</g>
<defs>
<clipPath id="clip0_5902_1065">
<rect width="15" height="8.92205" fill="white"/>
</clipPath>
</defs>
</svg>
