<svg width="15" height="12" viewBox="0 0 15 12" fill="none" xmlns="http://www.w3.org/2000/svg">
  <g clip-path="url(#clip0_2098_1179)">
    <path d="M14.8801 5.64623C13.9167 4.36937 12.7815 3.33748 11.5298 2.63016L12.8859 1.06241C13.119 0.792952 13.0884 0.388767 12.8184 0.156055C12.5484 -0.0766578 12.1434 -0.0460378 11.9102 0.223419L10.3209 2.06062C9.42196 1.72074 8.47698 1.53702 7.50132 1.53702C4.63264 1.53702 2.03395 3.1017 0.116379 5.64317C-0.040095 5.85139 -0.040095 6.14228 0.116379 6.35049C1.17181 7.74983 2.42974 8.85215 3.82879 9.56254L2.63837 10.9343C2.40519 11.2038 2.43587 11.608 2.70587 11.8407C2.82859 11.9448 2.97893 11.9968 3.1262 11.9968C3.30722 11.9968 3.48823 11.9203 3.61403 11.7733L5.08058 10.077C5.85682 10.325 6.6668 10.4566 7.49519 10.4566C10.3608 10.4566 12.9595 8.89196 14.8771 6.35049C15.0366 6.14534 15.0366 5.85445 14.8801 5.64623ZM4.35037 5.79321C4.44855 4.22546 5.72182 2.95473 7.29269 2.85674C7.99836 2.81388 8.658 3.00066 9.20106 3.34973L8.2346 4.47042C7.98302 4.34794 7.69461 4.28976 7.39087 4.30814C6.54407 4.36325 5.85682 5.04608 5.80466 5.89119C5.78011 6.28313 5.8875 6.65057 6.08999 6.94758L5.12047 8.06828C4.59582 7.46813 4.29515 6.66588 4.35037 5.79321ZM10.6461 6.20352C10.5449 7.7682 9.27162 9.03893 7.70382 9.13998C7.14542 9.17366 6.61771 9.06649 6.15135 8.84297L7.1761 7.65797C7.31417 7.68553 7.46144 7.69471 7.60871 7.68553C8.45244 7.63347 9.1397 6.95065 9.19492 6.10247C9.21026 5.8667 9.17651 5.63705 9.10288 5.42883L10.1246 4.25608C10.4927 4.80724 10.6922 5.48088 10.6461 6.20352Z" fill="#8181A5" />
  </g>
  <defs>
    <clipPath id="clip0_2098_1179">
      <rect width="15" height="12" fill="white" />
    </clipPath>
  </defs>
</svg>
  